<svg id="그룹_2739" data-name="그룹 2739" xmlns="http://www.w3.org/2000/svg" width="43.158" height="43.158" viewBox="0 0 43.158 43.158">
  <path id="패스_10869" data-name="패스 10869" d="M21.579,0A21.579,21.579,0,1,1,0,21.579,21.579,21.579,0,0,1,21.579,0Z" transform="translate(0 0)" fill="#ffcd40"/>
  <g id="그룹_1805" data-name="그룹 1805" transform="translate(9.625 12.583)">
    <path id="타원_358" data-name="타원 358" d="M1.523-.45A1.973,1.973,0,1,1-.45,1.523,1.975,1.975,0,0,1,1.523-.45Zm0,3A1.025,1.025,0,1,0,.5,1.523,1.027,1.027,0,0,0,1.523,2.548Z" transform="translate(10.431 14.495)"/>
    <path id="패스_10870" data-name="패스 10870" d="M762.955,573a.474.474,0,0,1-.335-.809,12.016,12.016,0,0,1,17.012,0,.474.474,0,1,1-.67.67,11.069,11.069,0,0,0-15.672,0A.473.473,0,0,1,762.955,573Z" transform="translate(-759.172 -563.985)"/>
    <path id="패스_10871" data-name="패스 10871" d="M781.882,568.673a.472.472,0,0,1-.335-.139,15.742,15.742,0,0,0-22.29,0,.474.474,0,0,1-.67-.67,16.689,16.689,0,0,1,23.63,0,.474.474,0,0,1-.335.809Z" transform="translate(-758.449 -562.962)"/>
    <path id="패스_10872" data-name="패스 10872" d="M766.987,577.336a.474.474,0,0,1-.335-.809,7.341,7.341,0,0,1,10.394,0,.474.474,0,1,1-.67.67,6.393,6.393,0,0,0-9.054,0A.472.472,0,0,1,766.987,577.336Z" transform="translate(-759.895 -565.008)"/>
  </g>
</svg>
