<svg id="그룹_2737" data-name="그룹 2737" xmlns="http://www.w3.org/2000/svg" width="43.158" height="43.158" viewBox="0 0 43.158 43.158">
  <path id="패스_10848" data-name="패스 10848" d="M21.579,0A21.579,21.579,0,1,1,0,21.579,21.579,21.579,0,0,1,21.579,0Z" transform="translate(0 0)" fill="#ffcd40"/>
  <g id="그룹_1798" data-name="그룹 1798" transform="translate(8 14.316)">
    <g id="그룹_1796" data-name="그룹 1796" transform="translate(0 0)">
      <path id="패스_10860" data-name="패스 10860" d="M763.438,542.9h12.346a.421.421,0,0,1,.421.421v7.3a.421.421,0,0,1-.421.421h-1.842a.421.421,0,0,1-.417-.361l-.51-3.535h-6.777l-.51,3.535a.421.421,0,0,1-.417.361h-1.875a.421.421,0,0,1-.421-.421v-7.3A.421.421,0,0,1,763.438,542.9Zm11.925.842h-11.5V550.2h1.089l.51-3.535a.421.421,0,0,1,.417-.361h7.506a.421.421,0,0,1,.417.361l.51,3.535h1.056Z" transform="translate(-763.017 -537.269)"/>
      <path id="패스_10861" data-name="패스 10861" d="M775.833,537.81a.421.421,0,0,1-.421-.421v-5.206h-9.66v5.206a.421.421,0,1,1-.842,0v-5.627a.421.421,0,0,1,.421-.421h10.5a.421.421,0,0,1,.421.421v5.627A.421.421,0,0,1,775.833,537.81Z" transform="translate(-763.988 -531.341)"/>
      <path id="패스_10862" data-name="패스 10862" d="M775.954,540.774a.421.421,0,0,1-.421-.421v-2.386a.07.07,0,0,0-.03-.006h-5.086a.067.067,0,0,0-.03.006v2.386a.421.421,0,1,1-.842,0v-2.406a.852.852,0,0,1,.872-.829H775.5a.852.852,0,0,1,.872.829v2.406A.421.421,0,0,1,775.954,540.774Z" transform="translate(-766.366 -534.305)"/>
    </g>
    <g id="그룹_1797" data-name="그룹 1797" transform="translate(13.563 0)">
      <path id="패스_10863" data-name="패스 10863" d="M791.29,542.9h12.346a.421.421,0,0,1,.421.421v7.3a.421.421,0,0,1-.421.421h-1.842a.421.421,0,0,1-.417-.361l-.51-3.535h-6.777l-.51,3.535a.421.421,0,0,1-.417.361H791.29a.421.421,0,0,1-.421-.421v-7.3A.421.421,0,0,1,791.29,542.9Zm11.925.842h-11.5V550.2H792.8l.51-3.535a.421.421,0,0,1,.417-.361h7.506a.421.421,0,0,1,.417.361l.51,3.535h1.056Z" transform="translate(-790.869 -537.269)"/>
      <path id="패스_10864" data-name="패스 10864" d="M803.685,537.81a.421.421,0,0,1-.421-.421v-5.206H793.6v5.206a.421.421,0,1,1-.842,0v-5.627a.421.421,0,0,1,.421-.421h10.5a.421.421,0,0,1,.421.421v5.627A.421.421,0,0,1,803.685,537.81Z" transform="translate(-791.84 -531.341)"/>
      <path id="패스_10865" data-name="패스 10865" d="M803.806,540.774a.421.421,0,0,1-.421-.421v-2.386a.067.067,0,0,0-.03-.006h-5.086a.067.067,0,0,0-.03.006v2.386a.421.421,0,0,1-.842,0v-2.406a.852.852,0,0,1,.872-.829h5.086a.852.852,0,0,1,.872.829v2.406A.421.421,0,0,1,803.806,540.774Z" transform="translate(-794.218 -534.305)"/>
    </g>
  </g>
</svg>
