<svg id="그룹_2740" data-name="그룹 2740" xmlns="http://www.w3.org/2000/svg" width="43.158" height="43.158" viewBox="0 0 43.158 43.158">
  <path id="패스_10873" data-name="패스 10873" d="M21.579,0A21.579,21.579,0,1,1,0,21.579,21.579,21.579,0,0,1,21.579,0Z" transform="translate(0 0)" fill="#ffcd40"/>
  <g id="그룹_1807" data-name="그룹 1807" transform="translate(10.358 11.31)">
    <g id="그룹_983" data-name="그룹 983" transform="translate(0 0.209)">
      <g id="그룹_981" data-name="그룹 981" transform="translate(0 0)">
        <path id="사각형_1574" data-name="사각형 1574" d="M.021-.4h21.6a.421.421,0,0,1,.421.421V1.8a.421.421,0,0,1-.421.421H.021A.421.421,0,0,1-.4,1.8V.021A.421.421,0,0,1,.021-.4ZM21.2.442H.442V1.38H21.2Z" transform="translate(0.4 9.293)"/>
        <path id="패스_2469" data-name="패스 2469" d="M819.73,584.418h-9.977a4.955,4.955,0,0,1-4.852-5.037v-2.5a.421.421,0,0,1,.842,0v2.5s0,.005,0,.008a4.112,4.112,0,0,0,4.022,4.183h9.961a4.114,4.114,0,0,0,4.023-4.183s0-.005,0-.008v-2.5a.421.421,0,0,1,.842,0v2.5a4.957,4.957,0,0,1-4.853,5.036Z" transform="translate(-803.525 -565.553)"/>
        <path id="선_93" data-name="선 93" d="M.021,2.141a.421.421,0,0,1-.387-.587l.728-1.7a.421.421,0,1,1,.774.332l-.728,1.7A.421.421,0,0,1,.021,2.141Z" transform="translate(4.426 18.424)"/>
        <path id="선_94" data-name="선 94" d="M.749,2.141a.421.421,0,0,1-.387-.255L-.366.187A.421.421,0,0,1,.408-.145l.728,1.7a.421.421,0,0,1-.387.587Z" transform="translate(17.088 18.424)"/>
        <path id="패스_2470" data-name="패스 2470" d="M806.875,574.509a.421.421,0,0,1-.421-.421v-6.554a.425.425,0,0,1,0-.051,3,3,0,0,1,3.1-2.635,3.12,3.12,0,0,1,2.517.957,2.036,2.036,0,0,1,.483,1.04l-.838.084v.005c-.007-.051-.182-1.244-2.171-1.244h-.017l-.088,0a2.175,2.175,0,0,0-2.144,1.873v6.527A.421.421,0,0,1,806.875,574.509Z" transform="translate(-803.62 -564.846)"/>
        <path id="패스_2471" data-name="패스 2471" d="M812.087,566.565c.06,0,.122,0,.182.005s.122-.005.182-.005a3.115,3.115,0,0,1,3.089,2.863.421.421,0,0,1-.42.454h-5.7a.421.421,0,0,1-.42-.454A3.116,3.116,0,0,1,812.087,566.565Zm.182.848h-.028c-.051,0-.1-.005-.154-.005a2.272,2.272,0,0,0-2.168,1.632h4.7a2.271,2.271,0,0,0-2.167-1.632c-.051,0-.1,0-.154.005Z" transform="translate(-803.774 -564.951)"/>
      </g>
      <g id="그룹_982" data-name="그룹 982" transform="translate(5.853 5.775)">
        <path id="선_95" data-name="선 95" d="M.021,1.762A.421.421,0,0,1-.4,1.341V.021a.421.421,0,0,1,.842,0v1.32A.421.421,0,0,1,.021,1.762Z" transform="translate(0.4 0.4)"/>
        <path id="선_96" data-name="선 96" d="M.021,1.762A.421.421,0,0,1-.4,1.341V.021a.421.421,0,0,1,.842,0v1.32A.421.421,0,0,1,.021,1.762Z" transform="translate(4.978 0.4)"/>
        <path id="선_97" data-name="선 97" d="M.021,1.762A.421.421,0,0,1-.4,1.341V.021a.421.421,0,0,1,.842,0v1.32A.421.421,0,0,1,.021,1.762Z" transform="translate(2.689 0.747)"/>
      </g>
    </g>
    <path id="타원_359" data-name="타원 359" d="M.8-.4A1.2,1.2,0,1,1-.4.8,1.2,1.2,0,0,1,.8-.4Zm0,1.565A.362.362,0,1,0,.442.8.362.362,0,0,0,.8,1.165Z" transform="translate(13.995 6.008)"/>
    <path id="타원_360" data-name="타원 360" d="M1-.4A1.4,1.4,0,1,1-.4,1,1.4,1.4,0,0,1,1-.4ZM1,1.548A.553.553,0,1,0,.442,1,.554.554,0,0,0,1,1.548Z" transform="translate(17.034 3.954)"/>
    <path id="타원_361" data-name="타원 361" d="M1.233-.4A1.633,1.633,0,1,1-.4,1.233,1.635,1.635,0,0,1,1.233-.4Zm0,2.425a.791.791,0,1,0-.791-.791A.792.792,0,0,0,1.233,2.025Z" transform="translate(13.565 0.4)"/>
  </g>
</svg>
