<svg id="그룹_2752" data-name="그룹 2752" xmlns="http://www.w3.org/2000/svg" width="43.158" height="43.158" viewBox="0 0 43.158 43.158">
  <path id="패스_10841" data-name="패스 10841" d="M147.535,175.1a21.579,21.579,0,1,1-21.579,21.579A21.579,21.579,0,0,1,147.535,175.1Z" transform="translate(-125.956 -175.097)" fill="#ffcd40"/>
  <g id="그룹_2716" data-name="그룹 2716" transform="translate(10.28 11.926)">
    <path id="패스_12292" data-name="패스 12292" d="M673.077,364.753a2.665,2.665,0,0,1-1.809-.68,1.917,1.917,0,0,0-2.6,0,2.749,2.749,0,0,1-3.62,0,1.917,1.917,0,0,0-2.6,0,2.748,2.748,0,0,1-3.619,0,1.915,1.915,0,0,0-2.6,0,2.747,2.747,0,0,1-3.618,0,1.857,1.857,0,0,0-1.3-.507.421.421,0,1,1,0-.842,2.665,2.665,0,0,1,1.809.68,1.915,1.915,0,0,0,2.6,0,2.748,2.748,0,0,1,3.619,0,1.916,1.916,0,0,0,2.6,0,2.749,2.749,0,0,1,3.62,0,1.917,1.917,0,0,0,2.6,0,2.749,2.749,0,0,1,3.619,0,1.858,1.858,0,0,0,1.3.507.421.421,0,0,1,0,.842Z" transform="translate(-650.902 -351.706)"/>
    <path id="패스_12293" data-name="패스 12293" d="M673.077,369.278a2.665,2.665,0,0,1-1.809-.68,1.917,1.917,0,0,0-2.6,0,2.749,2.749,0,0,1-3.62,0,1.917,1.917,0,0,0-2.6,0,2.748,2.748,0,0,1-3.619,0,1.915,1.915,0,0,0-2.6,0,2.747,2.747,0,0,1-3.618,0,1.857,1.857,0,0,0-1.3-.507.421.421,0,1,1,0-.842,2.664,2.664,0,0,1,1.809.68,1.915,1.915,0,0,0,2.6,0,2.748,2.748,0,0,1,3.619,0,1.916,1.916,0,0,0,2.6,0,2.749,2.749,0,0,1,3.62,0,1.917,1.917,0,0,0,2.6,0,2.749,2.749,0,0,1,3.619,0,1.858,1.858,0,0,0,1.3.507.421.421,0,0,1,0,.842Z" transform="translate(-650.902 -352.078)"/>
    <g id="그룹_2711" data-name="그룹 2711" transform="translate(10.877 0)">
      <path id="선_384" data-name="선 384" d="M.021,3.007A.421.421,0,0,1-.4,2.586V.021a.421.421,0,0,1,.842,0V2.586A.421.421,0,0,1,.021,3.007Z" transform="translate(0.4 0.4)"/>
    </g>
    <g id="그룹_2712" data-name="그룹 2712" transform="translate(5.289 2.315)">
      <path id="선_385" data-name="선 385" d="M1.835,2.256a.42.42,0,0,1-.3-.123L-.277.319a.421.421,0,0,1,.6-.6L2.132,1.537a.421.421,0,0,1-.3.719Z" transform="translate(0.4 0.4)"/>
    </g>
    <g id="그룹_2713" data-name="그룹 2713" transform="translate(2.974 7.903)">
      <path id="선_386" data-name="선 386" d="M2.586.442H.021a.421.421,0,0,1,0-.842H2.586a.421.421,0,0,1,0,.842Z" transform="translate(0.4 0.4)"/>
      <path id="선_387" data-name="선 387" d="M2.587.442H.021a.421.421,0,0,1,0-.842H2.587a.421.421,0,0,1,0,.842Z" transform="translate(13.641 0.4)"/>
    </g>
    <g id="그룹_2714" data-name="그룹 2714" transform="translate(14.651 2.315)">
      <path id="선_388" data-name="선 388" d="M.021,2.256a.42.42,0,0,1-.3-.123.421.421,0,0,1,0-.6L1.537-.277a.421.421,0,0,1,.6.6L.319,2.132A.42.42,0,0,1,.021,2.256Z" transform="translate(0.4 0.4)"/>
    </g>
    <g id="그룹_2715" data-name="그룹 2715" transform="translate(6.781 3.807)">
      <path id="패스_12294" data-name="패스 12294" d="M666.9,359.829h-8.19a.421.421,0,0,1-.421-.4V359.4c0-.005,0-.011,0-.016a4.517,4.517,0,0,1,9.034,0c0,.005,0,.01,0,.015v.025A.421.421,0,0,1,666.9,359.829Zm-7.749-.842h7.307a3.675,3.675,0,0,0-7.307,0Z" transform="translate(-658.291 -354.866)"/>
    </g>
  </g>
</svg>
