<svg id="그룹_2744" data-name="그룹 2744" xmlns="http://www.w3.org/2000/svg" width="43.158" height="43.158" viewBox="0 0 43.158 43.158">
  <path id="패스_10878" data-name="패스 10878" d="M21.579,0A21.579,21.579,0,1,1,0,21.579,21.579,21.579,0,0,1,21.579,0Z" transform="translate(0 0)" fill="#efefef"/>
  <g id="그룹_1816" data-name="그룹 1816" transform="translate(12.21 13.094)">
    <path id="타원_299" data-name="타원 299" d="M2.124-.4A2.524,2.524,0,1,1-.4,2.124,2.527,2.527,0,0,1,2.124-.4Zm0,4.205A1.682,1.682,0,1,0,.442,2.124,1.684,1.684,0,0,0,2.124,3.805Z" transform="translate(7.335 7.499)"/>
    <path id="타원_300" data-name="타원 300" d="M2.617-.4A3.017,3.017,0,1,1-.4,2.617,3.02,3.02,0,0,1,2.617-.4Zm0,5.192A2.175,2.175,0,1,0,.442,2.617,2.177,2.177,0,0,0,2.617,4.792Z" transform="translate(2.181 1.657)"/>
    <path id="타원_301" data-name="타원 301" d="M2.758-.4A3.234,3.234,0,0,1,5.916,2.9,3.234,3.234,0,0,1,2.758,6.2,3.234,3.234,0,0,1-.4,2.9,3.234,3.234,0,0,1,2.758-.4Zm0,5.756A2.392,2.392,0,0,0,5.074,2.9,2.392,2.392,0,0,0,2.758.442,2.392,2.392,0,0,0,.442,2.9,2.392,2.392,0,0,0,2.758,5.356Z" transform="translate(9.393 0.4)"/>
    <path id="패스_2509" data-name="패스 2509" d="M571.291,522.053a.421.421,0,0,1-.421-.421,3.315,3.315,0,0,0-6.582,0,.421.421,0,1,1-.842,0,4.152,4.152,0,0,1,8.266,0A.421.421,0,0,1,571.291,522.053Z" transform="translate(-558.058 -506.529)"/>
    <path id="패스_2510" data-name="패스 2510" d="M562.1,522.2a2.893,2.893,0,0,1-.47-.037,5.469,5.469,0,0,1-5.41-5.476c0-3.671,2.841-5.295,5.275-5.57a.421.421,0,0,1,.095.837c-.756.085-4.527.715-4.527,4.733a4.626,4.626,0,0,0,4.607,4.634.419.419,0,0,1,.087.009,1.6,1.6,0,0,0,1.171-.208.944.944,0,0,0,.311-.579c-.972-.159-3.3-.646-4.061-1.75a2.747,2.747,0,0,1-.64-2.5.421.421,0,1,1,.813.218,1.9,1.9,0,0,0,.457,1.722.443.443,0,0,1,.053.066c.5.775,2.648,1.31,3.882,1.465a.421.421,0,0,1,.369.418,1.94,1.94,0,0,1-.656,1.594A2.148,2.148,0,0,1,562.1,522.2Z" transform="translate(-556.225 -504.662)"/>
    <path id="패스_2511" data-name="패스 2511" d="M572.472,522.367a3.2,3.2,0,0,1-2.064-.73,1.869,1.869,0,0,1-.555-1.388.421.421,0,0,1,.369-.418c.976-.123,3.648-.651,4.277-1.613a.413.413,0,0,1,.055-.067,2.1,2.1,0,0,0,.508-1.907.421.421,0,0,1,.813-.219,2.943,2.943,0,0,1-.694,2.688c-.825,1.2-3.392,1.725-4.44,1.894a.963.963,0,0,0,.254.427,2.393,2.393,0,0,0,1.483.491h.007a5.087,5.087,0,0,0,5.081-5.081c0-4.7-3.586-5.407-5.724-5.407a.421.421,0,0,1,0-.842,7.207,7.207,0,0,1,4.471,1.329,5.87,5.87,0,0,1,2.1,4.92,5.93,5.93,0,0,1-5.921,5.923Z" transform="translate(-559.673 -504.439)"/>
  </g>
</svg>
