<svg id="그룹_2782" data-name="그룹 2782" xmlns="http://www.w3.org/2000/svg" width="19.467" height="12" viewBox="0 0 19.467 12">
  <g id="그룹_2781" data-name="그룹 2781" transform="translate(3.808)">
    <path id="패스_12319" data-name="패스 12319" d="M-1.2,548.457a.329.329,0,0,1,.236.1.329.329,0,0,1,.1.233.189.189,0,0,0,.007.05l1.072,3.943a.333.333,0,0,1-.332.311H-5.765v-4.636Z" transform="translate(13.575 -548.457)"/>
    <path id="패스_12320" data-name="패스 12320" d="M3.177,553.1a3.616,3.616,0,0,1-.483.011L5.643,548.9a1.275,1.275,0,0,1,.9-.44h3.59v4.636H3.41C3.351,553.093,3.269,553.1,3.177,553.1Z" transform="translate(-2.694 -548.457)"/>
  </g>
  <path id="패스_12321" data-name="패스 12321" d="M-3.777,559.992a1.674,1.674,0,0,1,1.672,1.673,1.673,1.673,0,0,1-1.672,1.671,1.674,1.674,0,0,1-1.672-1.671A1.674,1.674,0,0,1-3.777,559.992Z" transform="translate(19.459 -551.336)"/>
  <path id="패스_12322" data-name="패스 12322" d="M11.8,559.992a1.672,1.672,0,1,1-1.672,1.673A1.674,1.674,0,0,1,11.8,559.992Z" transform="translate(-7.811 -551.336)"/>
  <path id="패스_12323" data-name="패스 12323" d="M-4.274,558.412a2.056,2.056,0,0,0-1.913,1.338H-8.265V556.4a1.23,1.23,0,0,1,1.229-1.23H9.973A1.231,1.231,0,0,1,11.2,556.4v3.354H9.326a2.034,2.034,0,0,0-3.823,0H-2.364A2.053,2.053,0,0,0-4.274,558.412Z" transform="translate(8.265 -550.131)"/>
</svg>
