<svg xmlns="http://www.w3.org/2000/svg" xmlns:xlink="http://www.w3.org/1999/xlink" width="25" height="25" viewBox="0 0 25 25">
  <defs>
    <clipPath id="clip-path">
      <rect id="사각형_2428" data-name="사각형 2428" width="25" height="25" transform="translate(197 433)" fill="#ffc8c8"/>
    </clipPath>
  </defs>
  <g id="마스크_그룹_154" data-name="마스크 그룹 154" transform="translate(-197 -433)" clip-path="url(#clip-path)">
    <g id="그룹_2639" data-name="그룹 2639" transform="translate(-519.063 410.46)">
      <g id="그룹_2637" data-name="그룹 2637">
        <path id="패스_12215" data-name="패스 12215" d="M737.629,31.623V44.105H720.064V26.54h12.482" fill="none" stroke="#38383b" stroke-linecap="round" stroke-linejoin="round" stroke-width="1.3"/>
        <path id="패스_12216" data-name="패스 12216" d="M732.546,31.623h5.083l-5.083-5.083Z" fill="none" stroke="#38383b" stroke-linecap="round" stroke-linejoin="round" stroke-width="1.3"/>
      </g>
      <g id="그룹_2638" data-name="그룹 2638">
        <path id="패스_12217" data-name="패스 12217" d="M726.45,35.581h-1.708V34.35h1.823a.142.142,0,0,0,.141-.142v-.341a.141.141,0,0,0-.141-.141h-2.349a.141.141,0,0,0-.141.141v3.958a.142.142,0,0,0,.141.142h.384a.143.143,0,0,0,.142-.142v-1.62h1.708a.141.141,0,0,0,.141-.142v-.34A.141.141,0,0,0,726.45,35.581Z" fill="#38383b" stroke="#38383b" stroke-width="0.2"/>
        <path id="패스_12218" data-name="패스 12218" d="M728.646,33.726h-.434a.144.144,0,0,0-.133.091l-1.47,3.958a.142.142,0,0,0,.133.192h.394a.141.141,0,0,0,.133-.093l.416-1.137h1.476l.4,1.136a.141.141,0,0,0,.134.094h.412a.143.143,0,0,0,.116-.061.14.14,0,0,0,.016-.13l-1.465-3.958A.143.143,0,0,0,728.646,33.726Zm.293,2.393H727.91l.325-.877c.026-.067.05-.133.083-.226l.061-.178c.016-.046.032-.1.05-.15.018.054.034.1.05.151l.072.2c.023.064.046.132.071.194Z" fill="#38383b" stroke="#38383b" stroke-width="0.2"/>
        <path id="패스_12219" data-name="패스 12219" d="M733.758,37.741l-.374-.374a2.162,2.162,0,0,0,.332-1.249v-.544a2.57,2.57,0,0,0-.11-.776,1.767,1.767,0,0,0-.329-.607,1.466,1.466,0,0,0-.535-.39,1.947,1.947,0,0,0-1.421,0,1.448,1.448,0,0,0-.537.392,1.728,1.728,0,0,0-.329.608,2.641,2.641,0,0,0-.107.774v.544a2.546,2.546,0,0,0,.111.775,1.742,1.742,0,0,0,.329.608,1.478,1.478,0,0,0,.536.392,1.786,1.786,0,0,0,.709.134,1.705,1.705,0,0,0,.88-.223l.4.4a.141.141,0,0,0,.1.041h0a.133.133,0,0,0,.1-.044l.247-.258A.142.142,0,0,0,733.758,37.741Zm-1.46-1.254-.247.258a.141.141,0,0,0,0,.2l.378.383a1.02,1.02,0,0,1-.4.073.906.906,0,0,1-.735-.323,1.51,1.51,0,0,1-.282-.99v-.478a1.509,1.509,0,0,1,.282-.989,1,1,0,0,1,1.469,0,1.509,1.509,0,0,1,.282.989v.478a2.034,2.034,0,0,1-.066.547,1.511,1.511,0,0,1-.091.244l-.391-.392c-.028-.026-.075-.054-.1-.041A.14.14,0,0,0,732.3,36.487Z" fill="#38383b" stroke="#38383b" stroke-width="0.2"/>
      </g>
    </g>
  </g>
</svg>
