<svg xmlns="http://www.w3.org/2000/svg" width="43.622" height="29.962" viewBox="0 0 43.622 29.962">
  <g id="그룹_2363" data-name="그룹 2363" transform="translate(-46.228 -361.724)">
    <g id="그룹_2011" data-name="그룹 2011" transform="translate(57.476 371.309)">
      <path id="패스_11846" data-name="패스 11846" d="M102.427,390.99v-9.47H95.775v-2.034h9.186v11.5Zm8.191-4.863V395.5h-2.534V379.486h2.534v4.607h2.036v2.033Z" transform="translate(-80.28 -379.484)" fill="#f8c750"/>
      <path id="패스_11847" data-name="패스 11847" d="M67.067,389.061v-9.578h7.557v2.033H69.6v1.717h4.3v2.033H69.6v1.762h5.747v2.033Zm1.538,10.8v-5.693H80.054v-1.672H68.605v-2.033H82.589V396.2H71.14v1.627h11.9v2.033Zm7.829-10.165v-4.383h-1.81v-2.033h1.81v-3.8h2.535v10.211Zm3.621,0V379.483h2.534v10.211Z" transform="translate(-67.067 -379.483)"/>
    </g>
    <path id="패스_11848" data-name="패스 11848" d="M51.368,373.195a4.7,4.7,0,1,0,4.7,4.7,4.7,4.7,0,0,0-4.7-4.7m0,7.37a2.669,2.669,0,1,1,2.669-2.669,2.668,2.668,0,0,1-2.669,2.669" transform="translate(-0.202 -5.28)"/>
    <path id="패스_11849" data-name="패스 11849" d="M48.459,361.724v5.068h7.469v-2.158h-5.31v-2.91Z" transform="translate(-1.027)"/>
    <path id="패스_11850" data-name="패스 11850" d="M52.049,390.728v-2.91H49.891v2.91H46.228v2.158H57.873v-2.158Z" transform="translate(0 -12.01)"/>
  </g>
</svg>
