<svg width="34" height="49" viewBox="0 0 34 49" fill="none" xmlns="http://www.w3.org/2000/svg">
<path d="M2.47405 45.8V45.044H4.85005V44.009H1.49305V43.253H9.10705V44.009H5.75005V45.044H8.04505V47.789H7.15405V45.8H2.47405ZM8.54005 42.056L8.19805 42.785C7.56805 42.542 6.90205 42.263 6.45205 42.047C5.66005 41.669 5.37205 41.453 5.30905 41.282H5.30005C5.23705 41.462 4.94905 41.669 4.15705 42.047C3.70705 42.263 3.05005 42.542 2.41105 42.785L2.06905 42.056C2.91505 41.741 3.59005 41.453 4.02205 41.219C4.66105 40.877 4.85905 40.652 4.85905 40.04V39.518H5.74105V40.04C5.74105 40.652 5.92105 40.886 6.57805 41.219C7.02805 41.444 7.72105 41.759 8.54005 42.056ZM13.0522 42.407H13.0432C12.9532 42.614 12.5842 42.929 11.9812 43.316C11.4592 43.649 10.8832 44 10.1362 44.414L9.69522 43.712C10.4152 43.316 10.9822 42.992 11.5852 42.587C12.4042 42.029 12.5932 41.642 12.5932 40.76V39.95H13.4932V40.76C13.4932 41.642 13.6282 42.011 14.6002 42.65C15.1672 43.019 15.6892 43.316 16.4002 43.703L15.9682 44.396C15.3022 44.018 14.6452 43.64 14.1052 43.298C13.5202 42.929 13.1512 42.614 13.0522 42.407ZM13.4842 45.845H16.8502V46.601H9.23622V45.845H12.5932V44.063H13.4842V45.845ZM18.9954 40.031C19.8324 40.031 20.3994 40.445 20.6514 41.237H21.7674V39.581H22.6314V47.303H21.7674V44.432H20.6694C20.4174 45.26 19.8594 45.683 18.9954 45.683C17.8074 45.683 17.1774 44.873 17.1774 43.298V42.416C17.1774 40.841 17.7984 40.031 18.9954 40.031ZM24.2064 39.41V47.708H23.3334V39.41H24.2064ZM18.9954 44.9C19.6974 44.9 19.9764 44.306 19.9764 43.199V42.515C19.9764 41.399 19.6884 40.823 18.9954 40.823C18.3024 40.823 18.0144 41.399 18.0144 42.515V43.199C18.0144 44.315 18.3024 44.9 18.9954 44.9ZM20.8134 42.416V43.298C20.8134 43.424 20.8044 43.55 20.7954 43.667H21.7674V42.002H20.7954C20.8044 42.137 20.8134 42.272 20.8134 42.416ZM28.9525 41.525V41.984C28.9525 42.785 28.3045 43.802 26.8915 43.802C25.4785 43.802 24.8305 42.785 24.8305 41.984V41.525C24.8305 40.724 25.4785 39.707 26.8915 39.707C28.3045 39.707 28.9525 40.724 28.9525 41.525ZM25.9375 45.422V44.657H31.1845V47.789H30.2935V45.422H25.9375ZM32.3545 40.535V41.3H31.1845V42.236H32.3545V43.001H31.1845V44.225H30.3115V39.41H31.1845V40.535H32.3545ZM28.0975 41.939V41.57C28.0975 41.039 27.7195 40.481 26.8915 40.481C26.0635 40.481 25.6855 41.039 25.6855 41.57V41.939C25.6855 42.47 26.0635 43.028 26.8915 43.028C27.7195 43.028 28.0975 42.47 28.0975 41.939Z" fill="#363636"/>
<mask id="mask0_19_374" style="mask-type:luminance" maskUnits="userSpaceOnUse" x="0" y="0" width="34" height="34">
<path d="M34 0H0V34H34V0Z" fill="white"/>
</mask>
<g mask="url(#mask0_19_374)">
<path d="M21.42 5.00905L22.02 6.22005L23.357 6.41405L22.39 7.35707L22.618 8.68806L21.418 8.05907L20.218 8.68806L20.446 7.35707L19.479 6.41405L20.816 6.22005L21.42 5.00905Z" fill="#FF724D"/>
<path d="M22.62 8.87805C22.5891 8.87852 22.5585 8.87131 22.531 8.85706L21.424 8.27505L20.317 8.85706C20.2856 8.87362 20.2503 8.88107 20.2149 8.87857C20.1795 8.87607 20.1455 8.86371 20.1168 8.8429C20.0881 8.82208 20.0658 8.79365 20.0524 8.7608C20.039 8.72796 20.035 8.69204 20.041 8.65707L20.252 7.42407L19.352 6.55106C19.3267 6.52621 19.3089 6.49481 19.3004 6.46039C19.292 6.42596 19.2933 6.38987 19.3042 6.35614C19.3151 6.32241 19.3351 6.29238 19.3621 6.26941C19.3891 6.24644 19.422 6.23144 19.457 6.22607L20.695 6.04605L21.249 4.92407C21.2669 4.89491 21.292 4.87081 21.3218 4.8541C21.3517 4.83738 21.3853 4.82861 21.4195 4.82861C21.4537 4.82861 21.4874 4.83738 21.5172 4.8541C21.5471 4.87081 21.5721 4.89491 21.59 4.92407L22.144 6.04605L23.382 6.22607C23.417 6.23144 23.4499 6.24644 23.4769 6.26941C23.5039 6.29238 23.524 6.32241 23.5349 6.35614C23.5458 6.38987 23.547 6.42596 23.5386 6.46039C23.5301 6.49481 23.5123 6.52621 23.487 6.55106L22.587 7.42407L22.799 8.65707C22.8039 8.68442 22.8026 8.7125 22.7954 8.73932C22.7882 8.76614 22.7751 8.79103 22.7572 8.81223C22.7392 8.83342 22.7168 8.85038 22.6915 8.86194C22.6663 8.87349 22.6388 8.87934 22.611 8.87906L22.62 8.87805ZM21.42 7.86908C21.451 7.869 21.4816 7.87653 21.509 7.89105L22.363 8.34006L22.2 7.38806C22.195 7.35778 22.1973 7.32676 22.2067 7.29755C22.2161 7.26833 22.2323 7.24175 22.254 7.22006L22.945 6.54605L21.99 6.40707C21.96 6.40289 21.9313 6.39162 21.9065 6.37424C21.8816 6.35686 21.8612 6.33385 21.847 6.30707L21.419 5.44107L20.991 6.30707C20.9769 6.33372 20.9566 6.35668 20.932 6.37405C20.9073 6.39143 20.8789 6.40274 20.849 6.40707L19.893 6.54605L20.584 7.22006C20.6059 7.24166 20.6222 7.26821 20.6316 7.29745C20.641 7.3267 20.6432 7.35778 20.638 7.38806L20.475 8.34006L21.329 7.89105C21.3571 7.87651 21.3884 7.86831 21.42 7.86908Z" fill="#FF724D"/>
<path d="M16.591 5.00905L17.191 6.22005L18.528 6.41405L17.561 7.35707L17.789 8.68806L16.5891 8.05907L15.389 8.68806L15.617 7.35707L14.65 6.41405L15.987 6.22005L16.591 5.00905Z" fill="#FF724D"/>
<path d="M17.786 8.87805C17.7551 8.87852 17.7245 8.87131 17.697 8.85706L16.59 8.27505L15.483 8.85706C15.4517 8.87362 15.4163 8.88107 15.3809 8.87857C15.3455 8.87607 15.3116 8.86371 15.2828 8.8429C15.2541 8.82208 15.2318 8.79365 15.2184 8.7608C15.205 8.72796 15.2011 8.69204 15.207 8.65707L15.418 7.42407L14.518 6.55106C14.4928 6.52621 14.4749 6.49481 14.4664 6.46039C14.458 6.42596 14.4593 6.38987 14.4702 6.35614C14.4811 6.32241 14.5012 6.29238 14.5281 6.26941C14.5551 6.24644 14.588 6.23144 14.623 6.22607L15.861 6.04605L16.415 4.92407C16.4329 4.89491 16.458 4.87081 16.4878 4.8541C16.5177 4.83738 16.5513 4.82861 16.5855 4.82861C16.6197 4.82861 16.6534 4.83738 16.6832 4.8541C16.7131 4.87081 16.7381 4.89491 16.756 4.92407L17.31 6.04605L18.548 6.22607C18.5831 6.23144 18.6159 6.24644 18.6429 6.26941C18.6699 6.29238 18.69 6.32241 18.7009 6.35614C18.7118 6.38987 18.7131 6.42596 18.7046 6.46039C18.6962 6.49481 18.6783 6.52621 18.653 6.55106L17.753 7.42407L17.965 8.65707C17.9699 8.68442 17.9686 8.7125 17.9614 8.73932C17.9542 8.76614 17.9411 8.79103 17.9232 8.81223C17.9052 8.83342 17.8828 8.85038 17.8576 8.86194C17.8323 8.87349 17.8048 8.87934 17.777 8.87906L17.786 8.87805ZM16.586 7.86908C16.6171 7.869 16.6476 7.87653 16.675 7.89105L17.529 8.34006L17.366 7.38806C17.3609 7.35778 17.3631 7.3267 17.3725 7.29745C17.3819 7.26821 17.3982 7.24166 17.42 7.22006L18.111 6.54605L17.156 6.40707C17.126 6.40296 17.0973 6.39175 17.0725 6.37436C17.0476 6.35697 17.0272 6.3339 17.013 6.30707L16.585 5.44107L16.157 6.30707C16.1428 6.33385 16.1224 6.35686 16.0975 6.37424C16.0727 6.39162 16.0441 6.40289 16.014 6.40707L15.059 6.54605L15.75 7.22006C15.7719 7.24166 15.7882 7.26821 15.7976 7.29745C15.807 7.3267 15.8092 7.35778 15.804 7.38806L15.641 8.34006L16.495 7.89105C16.5246 7.87566 16.5577 7.86842 16.591 7.87006L16.586 7.86908Z" fill="#FF724D"/>
<path d="M11.7311 5.00905L12.3311 6.22005L13.6682 6.41405L12.7011 7.35707L12.9291 8.68806L11.7292 8.05907L10.5291 8.68806L10.7571 7.35707L9.79016 6.41405L11.1271 6.22005L11.7311 5.00905Z" fill="#FF724D"/>
<path d="M12.9242 8.87805C12.8936 8.87836 12.8633 8.87115 12.8362 8.85706L11.7292 8.27505L10.6222 8.85706C10.5909 8.87371 10.5555 8.88126 10.5202 8.87878C10.4848 8.87631 10.4508 8.86393 10.4222 8.84308C10.3935 8.82212 10.3713 8.79363 10.3579 8.7608C10.3445 8.72797 10.3404 8.69207 10.3462 8.65707L10.5582 7.42407L9.65818 6.55106C9.63291 6.52621 9.61503 6.49481 9.60658 6.46039C9.59813 6.42596 9.59943 6.38987 9.61033 6.35614C9.62123 6.32241 9.64129 6.29238 9.66828 6.26941C9.69528 6.24644 9.72812 6.23144 9.76316 6.22607L11.0012 6.04605L11.5552 4.92407C11.5731 4.89491 11.5981 4.87081 11.628 4.8541C11.6578 4.83738 11.6915 4.82861 11.7257 4.82861C11.7599 4.82861 11.7935 4.83738 11.8234 4.8541C11.8532 4.87081 11.8783 4.89491 11.8962 4.92407L12.4502 6.04605L13.6882 6.22607C13.7232 6.23144 13.7561 6.24644 13.7831 6.26941C13.8101 6.29238 13.8301 6.32241 13.841 6.35614C13.8519 6.38987 13.8532 6.42596 13.8448 6.46039C13.8363 6.49481 13.8184 6.52621 13.7932 6.55106L12.8932 7.42407L13.1042 8.65707C13.1092 8.68436 13.1081 8.71241 13.101 8.73923C13.0939 8.76605 13.0809 8.79097 13.0631 8.81219C13.0452 8.83342 13.0228 8.85041 12.9976 8.86197C12.9724 8.87353 12.9449 8.87937 12.9172 8.87906L12.9242 8.87805ZM11.7242 7.86908C11.7552 7.86896 11.7858 7.87649 11.8132 7.89105L12.6672 8.34006L12.5042 7.38806C12.499 7.35778 12.5012 7.3267 12.5106 7.29745C12.52 7.26821 12.5363 7.24166 12.5582 7.22006L13.2492 6.54605L12.2942 6.40707C12.2641 6.40289 12.2355 6.39162 12.2106 6.37424C12.1858 6.35686 12.1654 6.33385 12.1512 6.30707L11.7232 5.44107L11.2952 6.30707C11.281 6.3339 11.2606 6.35697 11.2358 6.37436C11.2109 6.39175 11.1822 6.40296 11.1522 6.40707L10.1972 6.54605L10.8882 7.22006C10.9099 7.24175 10.9261 7.26833 10.9355 7.29755C10.9449 7.32676 10.9472 7.35778 10.9422 7.38806L10.7792 8.34006L11.6332 7.89105C11.6631 7.87549 11.6965 7.86824 11.7302 7.87006L11.7242 7.86908Z" fill="#FF724D"/>
<path d="M13.886 1.51004L14.4859 2.72104L15.8229 2.91504L14.856 3.85803L15.084 5.18903L13.8839 4.56003L12.6839 5.18903L12.912 3.85803L11.9449 2.91504L13.282 2.72104L13.886 1.51004Z" fill="#FF724D"/>
<path d="M15.081 5.38004C15.0499 5.38016 15.0194 5.3726 14.992 5.35803L13.8849 4.77603L12.7779 5.35803C12.7467 5.37469 12.7113 5.38221 12.676 5.37973C12.6406 5.37725 12.6066 5.36488 12.578 5.34402C12.5494 5.32307 12.5271 5.29458 12.5137 5.26175C12.5002 5.22892 12.4962 5.19302 12.5019 5.15802L12.7129 3.92502L11.8129 3.05203C11.7877 3.02718 11.7698 2.99579 11.7614 2.96136C11.7529 2.92694 11.7542 2.89085 11.7651 2.85712C11.776 2.82339 11.7961 2.79333 11.8231 2.77036C11.85 2.74738 11.8829 2.73238 11.918 2.72702L13.1559 2.54803L13.71 1.42603C13.7278 1.39686 13.7529 1.37276 13.7827 1.35605C13.8126 1.33934 13.8462 1.33057 13.8805 1.33057C13.9147 1.33057 13.9483 1.33934 13.9781 1.35605C14.008 1.37276 14.0331 1.39686 14.051 1.42603L14.6049 2.54803L15.8429 2.72702C15.878 2.73238 15.9108 2.74738 15.9378 2.77036C15.9648 2.79333 15.9849 2.82339 15.9958 2.85712C16.0067 2.89085 16.008 2.92694 15.9995 2.96136C15.9911 2.99579 15.9732 3.02718 15.948 3.05203L15.048 3.92502L15.259 5.15802C15.264 5.18536 15.2629 5.21346 15.2558 5.24033C15.2487 5.26719 15.2357 5.29218 15.2179 5.31348C15.2 5.33477 15.1777 5.35185 15.1525 5.36353C15.1272 5.3752 15.0997 5.38117 15.072 5.38101L15.081 5.38004ZM13.8809 4.37103C13.9119 4.37056 13.9425 4.37777 13.97 4.39203L14.824 4.84103L14.6609 3.88901C14.6558 3.85873 14.658 3.82765 14.6674 3.7984C14.6768 3.76915 14.6931 3.7426 14.715 3.72101L15.4059 3.04703L14.4499 2.90802C14.4199 2.90391 14.3912 2.8927 14.3664 2.87531C14.3415 2.85791 14.3211 2.83484 14.3069 2.80801L13.88 1.94202L13.452 2.80801C13.438 2.835 13.4177 2.85819 13.3928 2.87561C13.3678 2.89303 13.3391 2.90415 13.309 2.90802L12.353 3.04703L13.0449 3.72101C13.0667 3.7427 13.0829 3.76927 13.0923 3.79849C13.1017 3.82771 13.104 3.85873 13.099 3.88901L12.936 4.84103L13.7899 4.39203C13.8195 4.3766 13.8526 4.36935 13.8859 4.37103H13.8809Z" fill="#FF724D"/>
<path d="M19.2951 1.51006L18.6951 2.72105L17.3581 2.91505L18.3251 3.85805L18.0971 5.18904L19.2971 4.56004L20.4971 5.18904L20.2691 3.85805L21.2361 2.91505L19.8991 2.72105L19.2951 1.51006Z" fill="#FF724D"/>
<path d="M18.0991 5.38007C18.0713 5.38023 18.0438 5.37423 18.0186 5.36255C17.9934 5.35087 17.9711 5.3338 17.9532 5.3125C17.9354 5.2912 17.9224 5.26622 17.9153 5.23935C17.9082 5.21248 17.9071 5.18438 17.9121 5.15704L18.1231 3.92404L17.2231 3.05106C17.1978 3.02621 17.18 2.99481 17.1715 2.96039C17.1631 2.92596 17.1644 2.88987 17.1753 2.85614C17.1862 2.82241 17.2062 2.79238 17.2332 2.76941C17.2602 2.74644 17.2931 2.73141 17.3281 2.72604L18.5661 2.54706L19.1201 1.42505C19.138 1.39588 19.163 1.37178 19.1929 1.35507C19.2227 1.33836 19.2564 1.32959 19.2906 1.32959C19.3248 1.32959 19.3584 1.33836 19.3883 1.35507C19.4181 1.37178 19.4432 1.39588 19.4611 1.42505L20.0151 2.54706L21.2531 2.72604C21.2884 2.73106 21.3215 2.7459 21.3487 2.76883C21.376 2.79176 21.3962 2.82186 21.4072 2.85574C21.4181 2.88962 21.4193 2.92589 21.4106 2.96042C21.402 2.99495 21.3838 3.02637 21.3581 3.05106L20.4581 3.92404L20.6691 5.15704C20.6749 5.19204 20.6708 5.22794 20.6574 5.26077C20.644 5.2936 20.6217 5.32209 20.5931 5.34305C20.5644 5.3639 20.5305 5.37628 20.4951 5.37875C20.4597 5.38123 20.4244 5.37371 20.3931 5.35706L19.2861 4.77505L18.1791 5.35706C18.1545 5.3706 18.1272 5.37847 18.0991 5.38007ZM17.7691 3.04807L18.4601 3.72205C18.4821 3.74354 18.4985 3.7701 18.5079 3.79938C18.5173 3.82865 18.5194 3.85976 18.5141 3.89005L18.3511 4.84204L19.2051 4.39307C19.2324 4.37887 19.2628 4.37143 19.2936 4.37143C19.3244 4.37143 19.3548 4.37887 19.3821 4.39307L20.2371 4.84204L20.0731 3.89005C20.0681 3.85977 20.0704 3.82875 20.0798 3.79953C20.0892 3.77031 20.1054 3.74374 20.1271 3.72205L20.8191 3.04807L19.8631 2.90906C19.833 2.90519 19.8042 2.89406 19.7793 2.87665C19.7544 2.85923 19.7341 2.83604 19.7201 2.80905L19.2921 1.94305L18.8651 2.80905C18.851 2.83593 18.8307 2.85904 18.8058 2.87643C18.7809 2.89383 18.7522 2.90503 18.7221 2.90906L17.7691 3.04807Z" fill="#FF724D"/>
<path d="M25.42 10.198H8.5V12.198H25.42V10.198Z" stroke="#38383B" stroke-width="1.5" stroke-linecap="round" stroke-linejoin="round"/>
<path d="M24 12.198H10V32.198H24V12.198Z" stroke="#38383B" stroke-width="1.5" stroke-linecap="round" stroke-linejoin="round"/>
<path d="M12.3102 15.7419H13.6912" stroke="#38383B" stroke-width="0.5"/>
<path d="M13.7362 15.9919H12.2642C12.1979 15.9919 12.1343 15.9656 12.0874 15.9187C12.0405 15.8718 12.0142 15.8082 12.0142 15.7419C12.0142 15.6756 12.0405 15.612 12.0874 15.5652C12.1343 15.5183 12.1979 15.4919 12.2642 15.4919H13.7362C13.8025 15.4919 13.866 15.5183 13.9129 15.5652C13.9598 15.612 13.9862 15.6756 13.9862 15.7419C13.9862 15.8082 13.9598 15.8718 13.9129 15.9187C13.866 15.9656 13.8025 15.9919 13.7362 15.9919Z" fill="#38383B" stroke="#38383B" stroke-width="0.5"/>
<path d="M12.3102 18.442H13.6912" stroke="#38383B" stroke-width="0.5"/>
<path d="M13.7362 18.692H12.2642C12.1979 18.692 12.1343 18.6657 12.0874 18.6188C12.0405 18.5719 12.0142 18.5083 12.0142 18.442C12.0142 18.3757 12.0405 18.3121 12.0874 18.2652C12.1343 18.2183 12.1979 18.192 12.2642 18.192H13.7362C13.8025 18.192 13.866 18.2183 13.9129 18.2652C13.9598 18.3121 13.9862 18.3757 13.9862 18.442C13.9862 18.5083 13.9598 18.5719 13.9129 18.6188C13.866 18.6657 13.8025 18.692 13.7362 18.692Z" fill="#38383B" stroke="#38383B" stroke-width="0.5"/>
<path d="M12.3102 21.142H13.6912" stroke="#38383B" stroke-width="0.5"/>
<path d="M13.7362 21.395H12.2642C12.1979 21.395 12.1343 21.3687 12.0874 21.3218C12.0405 21.2749 12.0142 21.2113 12.0142 21.145C12.0142 21.0787 12.0405 21.0151 12.0874 20.9682C12.1343 20.9213 12.1979 20.895 12.2642 20.895H13.7362C13.8025 20.895 13.866 20.9213 13.9129 20.9682C13.9598 21.0151 13.9862 21.0787 13.9862 21.145C13.9862 21.2113 13.9598 21.2749 13.9129 21.3218C13.866 21.3687 13.8025 21.395 13.7362 21.395Z" fill="#38383B" stroke="#38383B" stroke-width="0.5"/>
<path d="M16.3102 15.7419H17.6912" stroke="#38383B" stroke-width="0.5"/>
<path d="M17.7372 15.9919H16.2642C16.1979 15.9919 16.1343 15.9656 16.0874 15.9187C16.0405 15.8718 16.0142 15.8082 16.0142 15.7419C16.0142 15.6756 16.0405 15.612 16.0874 15.5652C16.1343 15.5183 16.1979 15.4919 16.2642 15.4919H17.7372C17.8035 15.4919 17.8671 15.5183 17.9139 15.5652C17.9608 15.612 17.9872 15.6756 17.9872 15.7419C17.9872 15.8082 17.9608 15.8718 17.9139 15.9187C17.8671 15.9656 17.8035 15.9919 17.7372 15.9919Z" fill="#38383B" stroke="#38383B" stroke-width="0.5"/>
<path d="M16.3102 18.442H17.6912" stroke="#38383B" stroke-width="0.5"/>
<path d="M17.7372 18.692H16.2642C16.1979 18.692 16.1343 18.6657 16.0874 18.6188C16.0405 18.5719 16.0142 18.5083 16.0142 18.442C16.0142 18.3757 16.0405 18.3121 16.0874 18.2652C16.1343 18.2183 16.1979 18.192 16.2642 18.192H17.7372C17.8035 18.192 17.8671 18.2183 17.9139 18.2652C17.9608 18.3121 17.9872 18.3757 17.9872 18.442C17.9872 18.5083 17.9608 18.5719 17.9139 18.6188C17.8671 18.6657 17.8035 18.692 17.7372 18.692Z" fill="#38383B" stroke="#38383B" stroke-width="0.5"/>
<path d="M16.3102 21.142H17.6912" stroke="#38383B" stroke-width="0.5"/>
<path d="M17.7372 21.395H16.2642C16.1979 21.395 16.1343 21.3687 16.0874 21.3218C16.0405 21.2749 16.0142 21.2113 16.0142 21.145C16.0142 21.0787 16.0405 21.0151 16.0874 20.9682C16.1343 20.9213 16.1979 20.895 16.2642 20.895H17.7372C17.8035 20.895 17.8671 20.9213 17.9139 20.9682C17.9608 21.0151 17.9872 21.0787 17.9872 21.145C17.9872 21.2113 17.9608 21.2749 17.9139 21.3218C17.8671 21.3687 17.8035 21.395 17.7372 21.395Z" fill="#38383B" stroke="#38383B" stroke-width="0.5"/>
<path d="M20.3091 15.7419H21.6901" stroke="#38383B" stroke-width="0.5"/>
<path d="M21.7362 15.9919H20.2642C20.1979 15.9919 20.1343 15.9656 20.0874 15.9187C20.0405 15.8718 20.0142 15.8082 20.0142 15.7419C20.0142 15.6756 20.0405 15.612 20.0874 15.5652C20.1343 15.5183 20.1979 15.4919 20.2642 15.4919H21.7362C21.8025 15.4919 21.866 15.5183 21.9129 15.5652C21.9598 15.612 21.9862 15.6756 21.9862 15.7419C21.9862 15.8082 21.9598 15.8718 21.9129 15.9187C21.866 15.9656 21.8025 15.9919 21.7362 15.9919Z" fill="#38383B" stroke="#38383B" stroke-width="0.5"/>
<path d="M20.3091 18.442H21.6901" stroke="#38383B" stroke-width="0.5"/>
<path d="M21.7362 18.692H20.2642C20.1979 18.692 20.1343 18.6657 20.0874 18.6188C20.0405 18.5719 20.0142 18.5083 20.0142 18.442C20.0142 18.3757 20.0405 18.3121 20.0874 18.2652C20.1343 18.2183 20.1979 18.192 20.2642 18.192H21.7362C21.8025 18.192 21.866 18.2183 21.9129 18.2652C21.9598 18.3121 21.9862 18.3757 21.9862 18.442C21.9862 18.5083 21.9598 18.5719 21.9129 18.6188C21.866 18.6657 21.8025 18.692 21.7362 18.692Z" fill="#38383B" stroke="#38383B" stroke-width="0.5"/>
<path d="M20.3091 21.142H21.6901" stroke="#38383B" stroke-width="0.5"/>
<path d="M21.7362 21.395H20.2642C20.1979 21.395 20.1343 21.3687 20.0874 21.3218C20.0405 21.2749 20.0142 21.2113 20.0142 21.145C20.0142 21.0787 20.0405 21.0151 20.0874 20.9682C20.1343 20.9213 20.1979 20.895 20.2642 20.895H21.7362C21.8025 20.895 21.866 20.9213 21.9129 20.9682C21.9598 21.0151 21.9862 21.0787 21.9862 21.145C21.9862 21.2113 21.9598 21.2749 21.9129 21.3218C21.866 21.3687 21.8025 21.395 21.7362 21.395Z" fill="#38383B" stroke="#38383B" stroke-width="0.5"/>
<path d="M10 20.1969H6V32.1969H10V20.1969Z" stroke="#38383B" stroke-width="1.5" stroke-linecap="round" stroke-linejoin="round"/>
<path d="M28 20.1969H24V32.1969H28V20.1969Z" stroke="#38383B" stroke-width="1.5" stroke-linecap="round" stroke-linejoin="round"/>
<path d="M15 32.198V26.198H19V32.198" stroke="#38383B" stroke-width="1.5" stroke-linecap="round" stroke-linejoin="round"/>
</g>
</svg>
