<svg width="34" height="48" viewBox="0 0 34 48" fill="none" xmlns="http://www.w3.org/2000/svg">
<path d="M7.588 38.916V42.309H2.152V38.916H7.588ZM5.32 46.746H4.42V44.019H1.063V43.263H8.677V44.019H5.32V46.746ZM3.034 39.663V41.562H6.706V39.663H3.034ZM10.9752 43.461H9.87716V40.896H14.4312V39.861H9.84116V39.105H15.3132V41.652H10.7592V42.705H15.5112V43.461H14.3232V44.883H16.4202V45.639H8.80616V44.883H10.9752V43.461ZM11.8482 43.461V44.883H13.4502V43.461H11.8482ZM18.4213 45.396V45.036C18.4213 44.163 19.3753 43.452 20.9683 43.452C22.5613 43.452 23.5153 44.163 23.5153 45.036V45.396C23.5153 46.269 22.5613 46.98 20.9683 46.98C19.3753 46.98 18.4213 46.269 18.4213 45.396ZM20.9323 40.581V41.04C20.9323 41.841 20.2843 42.858 18.8713 42.858C17.4583 42.858 16.8103 41.841 16.8103 41.04V40.581C16.8103 39.78 17.4583 38.763 18.8713 38.763C20.2843 38.763 20.9323 39.78 20.9323 40.581ZM23.4793 43.344H22.6063V42.12H21.3013V41.355H22.6063V40.248H21.3013V39.483H22.6063V38.448H23.4793V43.344ZM22.6423 45.342V45.09C22.6423 44.649 21.9943 44.181 20.9683 44.181C19.9423 44.181 19.2943 44.649 19.2943 45.09V45.342C19.2943 45.783 19.9423 46.251 20.9683 46.251C21.9943 46.251 22.6423 45.783 22.6423 45.342ZM20.0773 40.995V40.626C20.0773 40.095 19.6993 39.537 18.8713 39.537C18.0433 39.537 17.6653 40.095 17.6653 40.626V40.995C17.6653 41.526 18.0433 42.084 18.8713 42.084C19.6993 42.084 20.0773 41.526 20.0773 40.995ZM29.5665 44.289L29.6385 45.018C28.1445 45.171 27.1635 45.234 24.3195 45.234V44.478C25.2015 44.478 25.9125 44.478 26.5245 44.46V43.641C25.5075 43.515 24.9135 42.894 24.9135 42.246V41.904C24.9135 41.175 25.6695 40.491 26.9205 40.491C28.1715 40.491 28.9275 41.175 28.9275 41.904V42.246C28.9275 42.876 28.3605 43.47 27.4065 43.623V44.433C28.2075 44.406 28.8465 44.352 29.5665 44.289ZM30.9345 46.746H30.0525V38.448H30.9345V41.769H32.1765V42.543H30.9345V46.746ZM29.2605 39.384V40.149H24.4905V39.384H26.4795V38.385H27.3615V39.384H29.2605ZM26.9205 42.93C27.6495 42.93 28.0635 42.561 28.0635 42.165V41.985C28.0635 41.589 27.6405 41.22 26.9205 41.22C26.1915 41.22 25.7775 41.589 25.7775 41.985V42.165C25.7775 42.561 26.2005 42.93 26.9205 42.93Z" fill="#363636"/>
<mask id="mask0_19_637" style="mask-type:luminance" maskUnits="userSpaceOnUse" x="0" y="0" width="34" height="34">
<path d="M34 0H0V34H34V0Z" fill="white"/>
</mask>
<g mask="url(#mask0_19_637)">
<path d="M14.1239 7.966C12.3164 7.966 10.5494 8.50199 9.04651 9.5062C7.54361 10.5104 6.37226 11.9377 5.68055 13.6077C4.98884 15.2776 4.80784 17.1151 5.16047 18.8879C5.5131 20.6607 6.38351 22.2891 7.66163 23.5673C8.93974 24.8454 10.5682 25.7158 12.3409 26.0684C14.1137 26.421 15.9513 26.24 17.6212 25.5483C19.2912 24.8566 20.7185 23.6853 21.7227 22.1824C22.7269 20.6795 23.2629 18.9125 23.2629 17.105C23.2629 14.6812 22.3 12.3567 20.5861 10.6428C18.8722 8.92887 16.5477 7.966 14.1239 7.966ZM9.58289 19.18C9.17273 19.18 8.77178 19.0584 8.43073 18.8305C8.08968 18.6027 7.82388 18.2788 7.66687 17.8999C7.50987 17.521 7.4687 17.104 7.54865 16.7018C7.62859 16.2995 7.82602 15.9299 8.11597 15.6398C8.40593 15.3497 8.77543 15.1521 9.17768 15.072C9.57993 14.9918 9.99687 15.0328 10.3759 15.1896C10.7548 15.3464 11.0789 15.6121 11.3069 15.953C11.5349 16.294 11.6567 16.6949 11.6569 17.105C11.6569 17.6552 11.4384 18.1828 11.0495 18.5719C10.6606 18.961 10.133 19.1797 9.58289 19.18ZM14.1229 23.721C13.7124 23.7212 13.3112 23.5997 12.9698 23.3718C12.6284 23.1439 12.3623 22.8199 12.2051 22.4408C12.0479 22.0616 12.0067 21.6444 12.0866 21.2418C12.1666 20.8392 12.3641 20.4694 12.6543 20.1791C12.9445 19.8888 13.3141 19.6911 13.7167 19.6109C14.1192 19.5308 14.5365 19.5718 14.9157 19.7289C15.2949 19.8859 15.6191 20.1518 15.8471 20.4931C16.0752 20.8344 16.1969 21.2356 16.1969 21.646C16.1969 22.1961 15.9784 22.7238 15.5895 23.1129C15.2006 23.502 14.673 23.7207 14.1229 23.721ZM14.1229 14.639C13.7124 14.6392 13.3111 14.5176 12.9697 14.2897C12.6283 14.0618 12.3622 13.7377 12.205 13.3585C12.0478 12.9793 12.0066 12.562 12.0867 12.1594C12.1667 11.7568 12.3644 11.387 12.6546 11.0967C12.9449 10.8065 13.3147 10.6088 13.7173 10.5288C14.1199 10.4488 14.5372 10.49 14.9164 10.6472C15.2956 10.8043 15.6197 11.0704 15.8476 11.4118C16.0755 11.7532 16.1971 12.1545 16.1969 12.565C16.1969 13.1151 15.9784 13.6426 15.5894 14.0316C15.2005 14.4205 14.6729 14.639 14.1229 14.639ZM18.6639 19.18C18.2534 19.1802 17.8522 19.0587 17.5108 18.8308C17.1694 18.6029 16.9033 18.2789 16.7461 17.8997C16.5889 17.5206 16.5477 17.1034 16.6276 16.7008C16.7076 16.2982 16.9051 15.9284 17.1953 15.6381C17.4854 15.3478 17.8552 15.1501 18.2577 15.0699C18.6602 14.9898 19.0775 15.0308 19.4567 15.1879C19.8359 15.3449 20.1601 15.6108 20.3881 15.9521C20.6162 16.2933 20.7379 16.6946 20.7379 17.105C20.738 17.3775 20.6845 17.6473 20.5803 17.8991C20.4762 18.1509 20.3235 18.3798 20.1309 18.5725C19.9383 18.7653 19.7096 18.9183 19.4579 19.0227C19.2062 19.1271 18.9364 19.1809 18.6639 19.181V19.18Z" fill="#FF724D" stroke="#38383B" stroke-width="1.3" stroke-linecap="round" stroke-linejoin="round"/>
<path d="M14.1239 28.212C20.2576 28.212 25.2299 23.2397 25.2299 17.106C25.2299 10.9723 20.2576 6 14.1239 6C7.99027 6 3.01794 10.9723 3.01794 17.106C3.01794 23.2397 7.99027 28.212 14.1239 28.212Z" stroke="#38383B" stroke-width="1.3" stroke-linecap="round" stroke-linejoin="round"/>
<path d="M30.519 28.211H14.124" stroke="#38383B" stroke-width="1.3" stroke-linecap="round" stroke-linejoin="round"/>
</g>
</svg>
