<svg width="34" height="49" viewBox="0 0 34 49" fill="none" xmlns="http://www.w3.org/2000/svg">
<path d="M9.25205 47.802H3.58205V45.723H8.13605V45.093H3.53705V44.364H9.00905V46.434H4.45505V47.073H9.25205V47.802ZM6.30005 41.43H6.29105C6.20105 41.61 5.58905 41.907 5.21105 42.051C4.60805 42.285 4.05005 42.465 3.43805 42.654L3.13205 41.925C3.84305 41.718 4.37405 41.547 4.85105 41.358C5.43605 41.124 5.85005 40.827 5.85005 40.449V40.422H3.48305V39.684H9.11705V40.422H6.74105V40.449C6.74105 40.827 7.12805 41.088 7.74005 41.349C8.20805 41.547 8.75705 41.718 9.45905 41.925L9.16205 42.654C8.53205 42.456 7.98305 42.276 7.40705 42.051C7.02005 41.898 6.39005 41.61 6.30005 41.43ZM2.49305 42.96H10.1071V43.698H2.49305V42.96ZM17.1392 47.748H16.2482V44.346H14.4482V43.563H16.2482V42.15H14.3762C14.3402 43.527 13.9982 44.085 10.9742 45.93L10.5062 45.219C13.3952 43.518 13.5032 43.068 13.5032 41.79V40.989H10.6682V40.224H14.3852V41.367H16.2482V39.45H17.1392V47.748ZM19.3654 44.562H24.6574V45.309H22.4704C22.4794 45.723 22.6234 45.975 23.2354 46.272C23.6854 46.497 24.1534 46.722 25.0354 47.082L24.7024 47.793C23.9104 47.46 23.3794 47.208 22.9744 47.001C22.3984 46.704 22.1464 46.488 22.0384 46.317C21.9304 46.506 21.7054 46.704 21.0844 47.019C20.6884 47.217 20.1574 47.469 19.3744 47.802L19.0324 47.082C19.9054 46.731 20.4364 46.47 20.8324 46.263C21.4084 45.957 21.5704 45.687 21.5884 45.309H19.3654V44.562ZM20.5624 42.483H20.5534C20.4994 42.627 20.2384 42.933 19.9504 43.158C19.5814 43.446 19.0324 43.842 18.5464 44.157L18.0514 43.509C18.6274 43.14 19.1944 42.744 19.5274 42.447C20.0044 42.024 20.0764 41.709 20.0764 41.061H18.2764V40.296H20.0764V39.351H20.9764V40.296H22.6684V41.061H20.9764C20.9764 41.601 20.9674 41.871 21.4084 42.231C21.8314 42.591 22.3624 42.942 22.8844 43.275L22.3984 43.923C21.9304 43.626 21.4624 43.284 21.0754 42.987C20.8324 42.798 20.6254 42.609 20.5624 42.483ZM25.7104 41.367V42.141H24.5314V44.139H23.6494V39.45H24.5314V41.367H25.7104ZM26.5415 45.939L26.0735 45.228C28.9445 43.545 29.0705 43.077 29.0705 41.799V40.98H26.2355V40.215H29.9525V41.808C29.9525 43.446 29.8265 43.95 26.5415 45.939ZM32.5985 47.748H31.7075V39.45H32.5985V47.748Z" fill="#363636"/>
<mask id="mask0_19_618" style="mask-type:luminance" maskUnits="userSpaceOnUse" x="0" y="0" width="34" height="34">
<path d="M34 0H0V34H34V0Z" fill="white"/>
</mask>
<g mask="url(#mask0_19_618)">
<path d="M29.8054 14.351C29.7324 14.1266 29.598 13.9271 29.4176 13.775C29.2372 13.6228 29.0178 13.5241 28.7843 13.4901L21.3844 12.4151L18.0744 5.70605C17.9699 5.4941 17.8081 5.31563 17.6074 5.19083C17.4068 5.06602 17.1752 4.99988 16.9389 4.99988C16.7025 4.99988 16.471 5.06602 16.2703 5.19083C16.0696 5.31563 15.9079 5.4941 15.8034 5.70605L12.4914 12.4151L5.09133 13.4901C4.85757 13.5242 4.63804 13.623 4.45754 13.7755C4.27704 13.9279 4.1428 14.1277 4.06997 14.3525C3.99714 14.5772 3.98863 14.8178 4.04543 15.0471C4.10223 15.2765 4.22208 15.4853 4.39138 15.6501L9.74837 20.8721L8.48434 28.2461C8.44443 28.4788 8.47042 28.7181 8.55935 28.9368C8.64828 29.1555 8.79665 29.3451 8.98763 29.4839C9.17862 29.6228 9.40465 29.7055 9.64016 29.7227C9.87567 29.7398 10.1112 29.6908 10.3203 29.5811L16.9423 26.1001L23.5653 29.5811C23.7744 29.6912 24.0101 29.7406 24.2458 29.7236C24.4815 29.7066 24.7077 29.6239 24.8988 29.485C25.0899 29.346 25.2383 29.1563 25.3271 28.9373C25.4159 28.7184 25.4416 28.4789 25.4013 28.2461L24.1374 20.8721L29.4954 15.6501C29.6632 15.4841 29.7811 15.2744 29.8359 15.0448C29.8907 14.8153 29.8801 14.5749 29.8054 14.351Z" stroke="#38383B" stroke-width="1.5" stroke-linecap="round" stroke-linejoin="round"/>
<path d="M25.5387 25.483C28.1985 25.483 30.3547 23.3268 30.3547 20.667C30.3547 18.0071 28.1985 15.851 25.5387 15.851C22.8789 15.851 20.7227 18.0071 20.7227 20.667C20.7227 23.3268 22.8789 25.483 25.5387 25.483Z" fill="#FF724D"/>
<path d="M27.5846 20.093H26.2436V18.752C26.2436 18.5651 26.1694 18.3859 26.0372 18.2538C25.9051 18.1217 25.7259 18.0475 25.5391 18.0475C25.3522 18.0475 25.1731 18.1217 25.041 18.2538C24.9088 18.3859 24.8346 18.5651 24.8346 18.752V20.093H23.4936C23.3067 20.093 23.1275 20.1672 22.9954 20.2993C22.8633 20.4314 22.7891 20.6106 22.7891 20.7975C22.7891 20.9843 22.8633 21.1635 22.9954 21.2956C23.1275 21.4277 23.3067 21.502 23.4936 21.502H24.8346V22.843C24.8346 23.0298 24.9088 23.209 25.041 23.3411C25.1731 23.4732 25.3522 23.5475 25.5391 23.5475C25.7259 23.5475 25.9051 23.4732 26.0372 23.3411C26.1694 23.209 26.2436 23.0298 26.2436 22.843V21.502H27.5846C27.7714 21.502 27.9506 21.4277 28.0828 21.2956C28.2149 21.1635 28.2891 20.9843 28.2891 20.7975C28.2891 20.6106 28.2149 20.4314 28.0828 20.2993C27.9506 20.1672 27.7714 20.093 27.5846 20.093Z" fill="white"/>
</g>
</svg>
