<svg width="34" height="46" viewBox="0 0 34 46" fill="none" xmlns="http://www.w3.org/2000/svg">
<path d="M8.06804 40.578V41.334H5.68304V43.17H9.04004V43.926H1.42604V43.17H4.78304V41.334H2.45204V37.428H7.96904V38.184H3.34304V40.578H8.06804ZM15.7122 37.338V41.604H13.4172V43.17H16.7832V43.926H9.1692V43.17H12.5262V41.604H10.2402V37.347H11.1222V38.76H14.8302V37.338H15.7122ZM11.1222 39.516V40.848H14.8302V39.516H11.1222ZM19.5944 40.002H19.5854C19.5314 40.155 19.2614 40.452 18.9824 40.704C18.6044 41.046 18.1094 41.424 17.6054 41.775L17.0834 41.136C17.6594 40.731 18.2084 40.308 18.5234 40.011C18.9644 39.597 19.1084 39.237 19.1084 38.58V38.031H17.3624V37.266H21.6464V38.031H20.0084V38.544C20.0084 39.12 20.0894 39.462 20.4764 39.795C20.9084 40.173 21.3764 40.515 21.8984 40.866L21.3944 41.514C20.9264 41.19 20.5394 40.893 20.1074 40.533C19.8374 40.308 19.6574 40.137 19.5944 40.002ZM23.8424 42.648H22.9604V39.615H21.4304V38.85H22.9604V36.735H23.8424V42.648ZM19.5494 42.171V44.169H24.0134V44.943H18.6584V42.171H19.5494ZM28.4625 36.843C30.0375 36.843 31.1265 37.401 31.1265 38.346V38.598C31.1265 39.093 30.8295 39.489 30.3165 39.741V40.839H32.2695V41.595H24.6555V40.839H26.6175V39.75C26.0955 39.489 25.7985 39.102 25.7985 38.598V38.346C25.7985 37.401 26.8875 36.843 28.4625 36.843ZM28.4625 45.267C26.7525 45.267 25.8435 44.52 25.8435 43.782V43.476C25.8435 42.747 26.7525 41.991 28.4625 41.991C30.1725 41.991 31.0815 42.747 31.0815 43.476V43.782C31.0815 44.511 30.1725 45.267 28.4625 45.267ZM28.4625 39.363C29.5065 39.363 30.2535 39.039 30.2535 38.562V38.382C30.2535 37.905 29.5065 37.581 28.4625 37.581C27.4185 37.581 26.6715 37.905 26.6715 38.382V38.562C26.6715 39.039 27.4185 39.363 28.4625 39.363ZM28.4625 42.72C27.3825 42.72 26.7255 43.161 26.7255 43.548V43.71C26.7255 44.097 27.3825 44.538 28.4625 44.538C29.5425 44.538 30.1995 44.097 30.1995 43.71V43.548C30.1995 43.161 29.5425 42.72 28.4625 42.72ZM28.4625 40.101C28.1115 40.101 27.7875 40.083 27.4995 40.029V40.839H29.4345V40.02C29.1375 40.074 28.8135 40.101 28.4625 40.101Z" fill="#363636"/>
<mask id="mask0_19_434" style="mask-type:luminance" maskUnits="userSpaceOnUse" x="0" y="0" width="34" height="34">
<path d="M34 0H0V34H34V0Z" fill="white"/>
</mask>
<g mask="url(#mask0_19_434)">
<path d="M6.54401 13.144L12.244 17.052L15.703 19.028L18.132 20.537L20.022 21.646L23.439 23.1L25.239 23.415L26.85 23.6H28.804L27.83 25.368L26.53 25.56L24.448 25.442L22.004 24.871L20.027 24.135L17.895 23.1L15.344 21.53L11.433 19.03L7.01196 16.201L5.01196 14.92L6.54401 13.144Z" fill="#FF724D"/>
<path d="M10.428 7.75198L5.01099 14.918L16.741 22.425C16.741 22.425 22.941 26.477 27.831 25.369L28.94 23.663C28.94 23.663 29.4309 22.234 27.2339 21.082C27.2339 21.082 22.968 19.269 19.364 12.338C19.364 12.338 12.113 15.731 10.428 7.75198Z" stroke="#38383B" stroke-width="1.3" stroke-linecap="round" stroke-linejoin="round"/>
<path d="M6.6759 13.064L18.0999 20.416C18.0999 20.416 24.0919 24.416 28.9869 23.306" stroke="#38383B" stroke-width="1.3" stroke-linecap="round" stroke-linejoin="round"/>
<path d="M19.77 9.948C19.473 10.2611 19.2759 10.6554 19.2038 11.0808C19.1317 11.5063 19.1878 11.9436 19.365 12.337" stroke="#38383B" stroke-width="1.3" stroke-linecap="round" stroke-linejoin="round"/>
<path d="M19.382 15.725L21.666 14.192" stroke="#38383B" stroke-width="1.3" stroke-linecap="round" stroke-linejoin="round"/>
<path d="M20.2139 16.965L22.4979 15.432" stroke="#38383B" stroke-width="1.3" stroke-linecap="round" stroke-linejoin="round"/>
<path d="M21.046 18.204L23.33 16.671" stroke="#38383B" stroke-width="1.3" stroke-linecap="round" stroke-linejoin="round"/>
<path d="M25.768 25.56H5.04895" stroke="#38383B" stroke-width="1.3" stroke-linecap="round" stroke-linejoin="round"/>
</g>
</svg>
