<svg xmlns="http://www.w3.org/2000/svg" width="13.429" height="18.376" viewBox="0 0 13.429 18.376">
  <g id="img_location" data-name="img location" transform="translate(0 0)">
    <g id="그룹_2841" data-name="그룹 2841" transform="translate(0 0)">
      <g id="패스_10514-2" data-name="패스 10514-2">
        <path id="패스_12352" data-name="패스 12352" d="M407.287,284.916a47.213,47.213,0,0,1-3.321-4.161c-2.1-2.968-3.217-5.352-3.217-6.9a7.173,7.173,0,0,1,.515-2.685,6.907,6.907,0,0,1,1.4-2.191,6.5,6.5,0,0,1,2.078-1.475,6.248,6.248,0,0,1,5.084,0,6.507,6.507,0,0,1,2.078,1.475,6.9,6.9,0,0,1,1.4,2.191,7.166,7.166,0,0,1,.515,2.685c0,1.544-1.112,3.929-3.216,6.9A47.144,47.144,0,0,1,407.287,284.916Z" transform="translate(-400.572 -266.791)" fill="#f8c750"/>
        <path id="패스_12353" data-name="패스 12353" d="M406.963,266.821a6.156,6.156,0,0,0-4.492,1.96,6.724,6.724,0,0,0-1.367,2.135,6.991,6.991,0,0,0-.5,2.619c0,1.5,1.092,3.837,3.159,6.758a48.531,48.531,0,0,0,3.2,4.038,48.45,48.45,0,0,0,3.2-4.038c2.067-2.921,3.159-5.258,3.159-6.758a6.99,6.99,0,0,0-.5-2.619,6.713,6.713,0,0,0-1.367-2.135,6.155,6.155,0,0,0-4.492-1.96m0-.353a6.9,6.9,0,0,1,6.714,7.068c0,3.9-6.654,11.308-6.714,11.308s-6.714-7.4-6.714-11.308A6.9,6.9,0,0,1,406.963,266.468Z" transform="translate(-400.249 -266.468)" fill="#8e6113"/>
      </g>
    </g>
    <g id="패스_10515" data-name="패스 10515" transform="translate(2.827 2.827)">
      <path id="패스_12354" data-name="패스 12354" d="M412.46,282.389a3.711,3.711,0,1,1,3.711-3.711A3.715,3.715,0,0,1,412.46,282.389Z" transform="translate(-408.572 -274.791)" fill="#fff"/>
      <path id="패스_12355" data-name="패스 12355" d="M412.136,274.821a3.534,3.534,0,1,0,3.534,3.534,3.538,3.538,0,0,0-3.534-3.534m0-.353a3.887,3.887,0,1,1-3.887,3.887A3.887,3.887,0,0,1,412.136,274.468Z" transform="translate(-408.249 -274.468)" fill="#8e6113"/>
    </g>
    <path id="패스_12356" data-name="패스 12356" d="M414.249,282.468l1.767,2.474,1.767-2.474Z" transform="translate(-409.301 -276.814)" fill="#8e6113"/>
  </g>
</svg>
