<svg xmlns="http://www.w3.org/2000/svg" width="44.85" height="61.401" viewBox="0 0 44.85 61.401">
  <g id="그룹_2958" data-name="그룹 2958" transform="translate(-108.568 -1031.757)" opacity="0.55">
    <g id="그룹_2941" data-name="그룹 2941" transform="translate(116.489 1031.757)">
      <g id="그룹_2936" data-name="그룹 2936" transform="translate(19.005 6.862)">
        <path id="패스_12384" data-name="패스 12384" d="M498.753,342.674l1.172,2.376,2.622.381-1.9,1.849.448,2.611-2.345-1.233-2.345,1.233.448-2.611-1.9-1.849,2.622-.381Z" transform="translate(-494.586 -342.318)" fill="#f8c750"/>
        <path id="패스_12385" data-name="패스 12385" d="M501.187,350.35a.368.368,0,0,1-.174-.042l-2.172-1.142-2.172,1.142a.372.372,0,0,1-.541-.393l.414-2.419-1.757-1.711a.374.374,0,0,1,.206-.637l2.428-.352,1.086-2.2a.387.387,0,0,1,.668,0l1.086,2.2,2.428.352a.374.374,0,0,1,.206.637L501.14,347.5l.416,2.419a.371.371,0,0,1-.368.435Zm-2.345-1.978a.371.371,0,0,1,.174.043l1.676.881-.319-1.866a.378.378,0,0,1,.106-.33l1.356-1.322-1.873-.274a.376.376,0,0,1-.28-.2l-.839-1.7L498,345.3a.376.376,0,0,1-.279.2l-1.874.274,1.356,1.322a.375.375,0,0,1,.107.33l-.32,1.866,1.676-.881A.369.369,0,0,1,498.842,348.372Z" transform="translate(-494.675 -342.403)" fill="#f8c750"/>
      </g>
      <g id="그룹_2937" data-name="그룹 2937" transform="translate(9.534 6.862)">
        <path id="패스_12386" data-name="패스 12386" d="M491.506,342.674l1.173,2.376,2.622.381-1.9,1.849.448,2.611-2.345-1.233-2.345,1.233.448-2.611-1.9-1.849,2.622-.381Z" transform="translate(-487.339 -342.318)" fill="#f8c750"/>
        <path id="패스_12387" data-name="패스 12387" d="M493.94,350.35a.367.367,0,0,1-.174-.042l-2.172-1.142-2.172,1.142a.372.372,0,0,1-.541-.393l.414-2.419-1.757-1.711a.374.374,0,0,1,.206-.637l2.428-.352,1.087-2.2a.387.387,0,0,1,.668,0l1.086,2.2,2.428.352a.374.374,0,0,1,.206.637l-1.757,1.711.416,2.419a.371.371,0,0,1-.368.435Zm-2.345-1.978a.37.37,0,0,1,.174.043l1.676.881-.32-1.866a.374.374,0,0,1,.107-.33l1.356-1.322-1.873-.274a.375.375,0,0,1-.28-.2l-.839-1.7-.839,1.7a.376.376,0,0,1-.28.2l-1.873.274,1.356,1.322a.374.374,0,0,1,.107.33l-.32,1.866,1.676-.881A.37.37,0,0,1,491.6,348.372Z" transform="translate(-487.428 -342.403)" fill="#f8c750"/>
      </g>
      <g id="그룹_2938" data-name="그룹 2938" transform="translate(0 6.862)">
        <path id="패스_12388" data-name="패스 12388" d="M484.259,342.674l1.172,2.376,2.622.381-1.9,1.849.448,2.611-2.345-1.233-2.345,1.233.448-2.611-1.9-1.849,2.622-.381Z" transform="translate(-480.091 -342.318)" fill="#f8c750"/>
        <path id="패스_12389" data-name="패스 12389" d="M486.693,350.35a.368.368,0,0,1-.173-.042l-2.172-1.142-2.172,1.142a.37.37,0,0,1-.393-.028.376.376,0,0,1-.148-.366l.416-2.419-1.757-1.711a.374.374,0,0,1,.207-.637l2.428-.352,1.086-2.2a.387.387,0,0,1,.668,0l1.086,2.2,2.428.352a.374.374,0,0,1,.207.637l-1.757,1.711.414,2.419a.369.369,0,0,1-.367.435Zm-2.345-1.978a.37.37,0,0,1,.174.043l1.676.881-.32-1.866a.375.375,0,0,1,.107-.33l1.356-1.322-1.873-.274a.376.376,0,0,1-.28-.2l-.839-1.7-.839,1.7a.375.375,0,0,1-.28.2l-1.873.274,1.356,1.322a.378.378,0,0,1,.107.33l-.32,1.866,1.676-.881A.37.37,0,0,1,484.348,348.372Z" transform="translate(-480.181 -342.403)" fill="#f8c750"/>
      </g>
      <g id="그룹_2939" data-name="그룹 2939" transform="translate(4.229 0)">
        <path id="패스_12390" data-name="패스 12390" d="M487.474,337.458l1.173,2.376,2.622.381-1.9,1.849.448,2.611-2.345-1.233-2.345,1.233.448-2.611-1.9-1.849,2.622-.381Z" transform="translate(-483.306 -337.101)" fill="#f8c750"/>
        <path id="패스_12391" data-name="패스 12391" d="M489.908,345.134a.368.368,0,0,1-.174-.043l-2.172-1.142-2.172,1.142a.371.371,0,0,1-.392-.028.376.376,0,0,1-.149-.366l.414-2.418-1.757-1.713a.374.374,0,0,1,.207-.637l2.428-.351,1.086-2.2a.386.386,0,0,1,.668,0l1.087,2.2,2.428.351a.374.374,0,0,1,.206.637l-1.757,1.713.414,2.418a.371.371,0,0,1-.367.437Zm-2.345-1.978a.368.368,0,0,1,.174.042l1.676.881-.32-1.866a.374.374,0,0,1,.107-.33l1.356-1.322-1.874-.272a.374.374,0,0,1-.28-.2l-.838-1.7-.839,1.7a.37.37,0,0,1-.28.2l-1.874.272,1.358,1.322a.379.379,0,0,1,.106.33l-.32,1.866,1.676-.881A.367.367,0,0,1,487.563,343.156Z" transform="translate(-483.396 -337.187)" fill="#f8c750"/>
      </g>
      <g id="그룹_2940" data-name="그룹 2940" transform="translate(14.837 0)">
        <path id="패스_12392" data-name="패스 12392" d="M495.538,337.458l-1.173,2.376-2.622.381,1.9,1.849-.448,2.611,2.345-1.233,2.345,1.233-.448-2.611,1.9-1.849-2.622-.381Z" transform="translate(-491.371 -337.101)" fill="#f8c750"/>
        <path id="패스_12393" data-name="패스 12393" d="M493.282,345.134a.371.371,0,0,1-.367-.437l.414-2.418-1.757-1.713a.374.374,0,0,1,.206-.637l2.428-.351,1.086-2.2a.386.386,0,0,1,.668,0l1.086,2.2,2.428.351a.373.373,0,0,1,.207.637l-1.757,1.713.414,2.418a.376.376,0,0,1-.149.366.371.371,0,0,1-.392.028l-2.172-1.142-2.172,1.142A.369.369,0,0,1,493.282,345.134Zm-.647-4.573,1.356,1.322a.371.371,0,0,1,.107.33l-.32,1.866,1.676-.881a.376.376,0,0,1,.347,0l1.677.881-.321-1.866a.379.379,0,0,1,.107-.33l1.357-1.322-1.874-.272a.369.369,0,0,1-.28-.2l-.839-1.7-.838,1.7a.372.372,0,0,1-.28.2Z" transform="translate(-491.46 -337.187)" fill="#f8c750"/>
      </g>
    </g>
    <rect id="사각형_2601" data-name="사각형 2601" width="33.186" height="3.923" transform="translate(114.322 1049.153)" fill="none" stroke="#38383b" stroke-linecap="round" stroke-linejoin="round" stroke-width="1.7"/>
    <path id="패스_12394" data-name="패스 12394" d="M507.923,352.55H480.464v39.227h27.459Z" transform="translate(-363.2 700.527)" fill="none" stroke="#38383b" stroke-linecap="round" stroke-linejoin="round" stroke-width="1.7"/>
    <g id="그룹_2954" data-name="그룹 2954" transform="translate(121.187 1059.537)">
      <g id="그룹_2945" data-name="그룹 2945">
        <g id="그룹_2942" data-name="그룹 2942">
          <line id="선_478" data-name="선 478" x2="2.708" transform="translate(0.608 0.491)" fill="#fff" stroke="#38383b" stroke-width="0.5"/>
          <path id="패스_12395" data-name="패스 12395" d="M486.993,358.05h-2.887a.491.491,0,1,1,0-.981h2.887a.491.491,0,1,1,0,.981Z" transform="translate(-483.588 -357.069)" fill="#38383b" stroke="#38383b" stroke-width="0.5"/>
        </g>
        <g id="그룹_2943" data-name="그룹 2943" transform="translate(0 5.296)">
          <line id="선_479" data-name="선 479" x2="2.708" transform="translate(0.608 0.49)" fill="#fff" stroke="#38383b" stroke-width="0.5"/>
          <path id="패스_12396" data-name="패스 12396" d="M486.993,362.064h-2.887a.491.491,0,1,1,0-.981h2.887a.491.491,0,1,1,0,.981Z" transform="translate(-483.588 -361.083)" fill="#38383b" stroke="#38383b" stroke-width="0.5"/>
        </g>
        <g id="그룹_2944" data-name="그룹 2944" transform="translate(0 10.591)">
          <line id="선_480" data-name="선 480" x2="2.708" transform="translate(0.608 0.491)" fill="#fff" stroke="#38383b" stroke-width="0.5"/>
          <path id="패스_12397" data-name="패스 12397" d="M486.993,366.078h-2.887a.491.491,0,1,1,0-.981h2.887a.491.491,0,1,1,0,.981Z" transform="translate(-483.588 -365.097)" fill="#38383b" stroke="#38383b" stroke-width="0.5"/>
        </g>
      </g>
      <g id="그룹_2949" data-name="그룹 2949" transform="translate(7.845)">
        <g id="그룹_2946" data-name="그룹 2946" transform="translate(0)">
          <line id="선_481" data-name="선 481" x2="2.708" transform="translate(0.607 0.491)" fill="#fff" stroke="#38383b" stroke-width="0.5"/>
          <path id="패스_12398" data-name="패스 12398" d="M492.393,358.05H489.5a.491.491,0,1,1,0-.981h2.889a.491.491,0,1,1,0,.981Z" transform="translate(-488.987 -357.069)" fill="#38383b" stroke="#38383b" stroke-width="0.5"/>
        </g>
        <g id="그룹_2947" data-name="그룹 2947" transform="translate(0 5.296)">
          <line id="선_482" data-name="선 482" x2="2.708" transform="translate(0.607 0.49)" fill="#fff" stroke="#38383b" stroke-width="0.5"/>
          <path id="패스_12399" data-name="패스 12399" d="M492.393,362.064H489.5a.491.491,0,1,1,0-.981h2.889a.491.491,0,1,1,0,.981Z" transform="translate(-488.987 -361.083)" fill="#38383b" stroke="#38383b" stroke-width="0.5"/>
        </g>
        <g id="그룹_2948" data-name="그룹 2948" transform="translate(0 10.591)">
          <line id="선_483" data-name="선 483" x2="2.708" transform="translate(0.607 0.491)" fill="#fff" stroke="#38383b" stroke-width="0.5"/>
          <path id="패스_12400" data-name="패스 12400" d="M492.393,366.078H489.5a.491.491,0,1,1,0-.981h2.889a.491.491,0,1,1,0,.981Z" transform="translate(-488.987 -365.097)" fill="#38383b" stroke="#38383b" stroke-width="0.5"/>
        </g>
      </g>
      <g id="그룹_2953" data-name="그룹 2953" transform="translate(15.691)">
        <g id="그룹_2950" data-name="그룹 2950">
          <line id="선_484" data-name="선 484" x2="2.708" transform="translate(0.607 0.491)" fill="#fff" stroke="#38383b" stroke-width="0.5"/>
          <path id="패스_12401" data-name="패스 12401" d="M497.791,358.05H494.9a.491.491,0,1,1,0-.981h2.887a.491.491,0,1,1,0,.981Z" transform="translate(-494.386 -357.069)" fill="#38383b" stroke="#38383b" stroke-width="0.5"/>
        </g>
        <g id="그룹_2951" data-name="그룹 2951" transform="translate(0 5.296)">
          <line id="선_485" data-name="선 485" x2="2.708" transform="translate(0.607 0.49)" fill="#fff" stroke="#38383b" stroke-width="0.5"/>
          <path id="패스_12402" data-name="패스 12402" d="M497.791,362.064H494.9a.491.491,0,1,1,0-.981h2.887a.491.491,0,1,1,0,.981Z" transform="translate(-494.386 -361.083)" fill="#38383b" stroke="#38383b" stroke-width="0.5"/>
        </g>
        <g id="그룹_2952" data-name="그룹 2952" transform="translate(0 10.591)">
          <line id="선_486" data-name="선 486" x2="2.708" transform="translate(0.607 0.491)" fill="#fff" stroke="#38383b" stroke-width="0.5"/>
          <path id="패스_12403" data-name="패스 12403" d="M497.791,366.078H494.9a.491.491,0,1,1,0-.981h2.887a.491.491,0,1,1,0,.981Z" transform="translate(-494.386 -365.097)" fill="#38383b" stroke="#38383b" stroke-width="0.5"/>
        </g>
      </g>
    </g>
    <g id="그룹_2955" data-name="그룹 2955" transform="translate(109.418 1068.767)">
      <rect id="사각형_2602" data-name="사각형 2602" width="7.845" height="23.536" transform="translate(0 0)" fill="none" stroke="#38383b" stroke-linecap="round" stroke-linejoin="round" stroke-width="1.7"/>
    </g>
    <g id="그룹_2956" data-name="그룹 2956" transform="translate(144.723 1068.767)">
      <rect id="사각형_2603" data-name="사각형 2603" width="7.845" height="23.536" transform="translate(0 0)" fill="none" stroke="#38383b" stroke-linecap="round" stroke-linejoin="round" stroke-width="1.7"/>
    </g>
    <path id="패스_12404" data-name="패스 12404" d="M6607.867,2015.17V2003.4h7.845v11.768" transform="translate(-6480.797 -922.862)" fill="none" stroke="#38383b" stroke-linecap="round" stroke-linejoin="round" stroke-width="1.7"/>
  </g>
</svg>
