<svg xmlns="http://www.w3.org/2000/svg" xmlns:xlink="http://www.w3.org/1999/xlink" width="16" height="16" viewBox="0 0 16 16">
  <defs>
    <clipPath id="clip-path">
      <rect id="사각형_2286" data-name="사각형 2286" width="16" height="16" transform="translate(22 508)" fill="#fbc0c0"/>
    </clipPath>
  </defs>
  <g id="마스크_그룹_92" data-name="마스크 그룹 92" transform="translate(-22 -508)" clip-path="url(#clip-path)">
    <rect id="사각형_1144" data-name="사각형 1144" width="24" height="24" transform="translate(18 504)" fill="none"/>
    <path id="패스_10535" data-name="패스 10535" d="M332.067,673.964a5.117,5.117,0,0,0-5.111,5.111,5.648,5.648,0,0,0,1.015,3.231c.011.015.022.031.031.046l3.82,5.464a.277.277,0,0,0,.49,0l3.818-5.462a.544.544,0,0,1,.033-.049,5.646,5.646,0,0,0,1.015-3.231A5.117,5.117,0,0,0,332.067,673.964Zm0,8.229a3.118,3.118,0,1,1,3.118-3.118A3.121,3.121,0,0,1,332.067,682.193Z" transform="translate(-301.957 -164.964)" fill="#707070"/>
  </g>
</svg>
