<svg xmlns="http://www.w3.org/2000/svg" xmlns:xlink="http://www.w3.org/1999/xlink" width="19" height="19" viewBox="0 0 19 19">
  <defs>
    <clipPath id="clip-path">
      <rect id="사각형_2497" data-name="사각형 2497" width="19" height="19" transform="translate(10426 678)" fill="#ec7b7b"/>
    </clipPath>
  </defs>
  <g id="마스크_그룹_158" data-name="마스크 그룹 158" transform="translate(-10426 -678)" clip-path="url(#clip-path)">
    <g id="그룹_2641" data-name="그룹 2641" transform="translate(10427 679)">
      <path id="사각형_2410" data-name="사각형 2410" d="M-.284-.709H16.339a.425.425,0,0,1,.425.425V16.339a.425.425,0,0,1-.425.425H-.284a.425.425,0,0,1-.425-.425V-.284A.425.425,0,0,1-.284-.709Zm16.2.85H.141V15.914H15.914Z" transform="translate(0.709 0.709)" fill="#707070" stroke="#707070" stroke-linecap="round" stroke-width="0.2"/>
      <path id="사각형_2411" data-name="사각형 2411" d="M-.284-.709H3.552a.425.425,0,0,1,.425.425V3.552a.425.425,0,0,1-.425.425H-.284a.425.425,0,0,1-.425-.425V-.284A.425.425,0,0,1-.284-.709Zm3.411.85H.141V3.127H3.127Z" transform="translate(3.266 3.053)" fill="#707070" stroke="#707070" stroke-linecap="round" stroke-width="0.2"/>
      <path id="사각형_2412" data-name="사각형 2412" d="M-.284-.709H3.552a.425.425,0,0,1,.425.425V3.552a.425.425,0,0,1-.425.425H-.284a.425.425,0,0,1-.425-.425V-.284A.425.425,0,0,1-.284-.709Zm3.411.85H.141V3.127H3.127Z" transform="translate(10.512 3.053)" fill="#707070" stroke="#707070" stroke-linecap="round" stroke-width="0.2"/>
      <path id="사각형_2413" data-name="사각형 2413" d="M-.284-.709H3.552a.425.425,0,0,1,.425.425V3.552a.425.425,0,0,1-.425.425H-.284a.425.425,0,0,1-.425-.425V-.284A.425.425,0,0,1-.284-.709Zm3.411.85H.141V3.127H3.127Z" transform="translate(3.266 10.512)" fill="#707070" stroke="#707070" stroke-linecap="round" stroke-width="0.2"/>
      <rect id="사각형_2484" data-name="사각형 2484" width="1.492" height="1.492" transform="translate(7.884 7.884)" fill="#707070"/>
      <rect id="사각형_2485" data-name="사각형 2485" width="1.492" height="1.492" transform="translate(5.22 7.884)" fill="#707070"/>
      <rect id="사각형_2486" data-name="사각형 2486" width="1.492" height="1.492" transform="translate(7.884 5.646)" fill="#707070"/>
      <rect id="사각형_2487" data-name="사각형 2487" width="1.492" height="1.492" transform="translate(9.376 9.269)" fill="#707070"/>
      <rect id="사각형_2488" data-name="사각형 2488" width="1.492" height="1.492" transform="translate(11.4 11.4)" fill="#707070"/>
      <rect id="사각형_2489" data-name="사각형 2489" width="1.492" height="1.492" transform="translate(10.015 12.785)" fill="#707070"/>
      <rect id="사각형_2490" data-name="사각형 2490" width="1.492" height="1.492" transform="translate(7.99 12.785)" fill="#707070"/>
      <rect id="사각형_2491" data-name="사각형 2491" width="1.492" height="1.492" transform="translate(11.4 8.63)" fill="#707070"/>
      <rect id="사각형_2492" data-name="사각형 2492" width="1.492" height="1.492" transform="translate(12.892 9.908)" fill="#707070"/>
      <rect id="사각형_2493" data-name="사각형 2493" width="1.492" height="1.492" transform="translate(12.892 12.785)" fill="#707070"/>
      <rect id="사각형_2494" data-name="사각형 2494" width="1.492" height="1.492" transform="translate(12.892 7.458)" fill="#707070"/>
    </g>
  </g>
</svg>
