<svg xmlns="http://www.w3.org/2000/svg" xmlns:xlink="http://www.w3.org/1999/xlink" width="25" height="25" viewBox="0 0 25 25">
  <defs>
    <clipPath id="clip-path">
      <rect id="사각형_2434" data-name="사각형 2434" width="25" height="25" transform="translate(0.444 -0.198)" fill="#ffc8c8"/>
    </clipPath>
  </defs>
  <g id="마스크_그룹_147" data-name="마스크 그룹 147" transform="translate(-0.444 0.198)" clip-path="url(#clip-path)">
    <g id="그룹_2577" data-name="그룹 2577" transform="translate(4.121 2.598)">
      <path id="사각형_2426" data-name="사각형 2426" d="M-.271-.709H17.017a.438.438,0,0,1,.438.438V16.835a.438.438,0,0,1-.438.438H-.271a.438.438,0,0,1-.438-.438V-.271A.438.438,0,0,1-.271-.709ZM16.58.167H.167V16.4H16.58Z" transform="translate(0.709 1.975)" fill="#38383b" stroke="#38383b" stroke-linecap="round" stroke-width="0.7"/>
      <g id="그룹_2576" data-name="그룹 2576" transform="translate(3.428 0)">
        <path id="선_335" data-name="선 335" d="M-.271,2.771a.438.438,0,0,1-.438-.438v-2.6A.438.438,0,0,1-.271-.709a.438.438,0,0,1,.438.438v2.6A.438.438,0,0,1-.271,2.771Z" transform="translate(0.709 0.709)" fill="#38383b" stroke="#38383b" stroke-linecap="round" stroke-width="0.7"/>
        <path id="선_336" data-name="선 336" d="M-.271,2.771a.438.438,0,0,1-.438-.438v-2.6A.438.438,0,0,1-.271-.709a.438.438,0,0,1,.438.438v2.6A.438.438,0,0,1-.271,2.771Z" transform="translate(11.141 0.709)" fill="#38383b" stroke="#38383b" stroke-linecap="round" stroke-width="0.7"/>
      </g>
      <path id="패스_12236" data-name="패스 12236" d="M356.764,574.43a.438.438,0,0,1-.3-.121l-3.066-2.928a.438.438,0,0,1,.6-.633l2.721,2.6,4.643-5.761a.438.438,0,1,1,.682.549l-4.942,6.132a.438.438,0,0,1-.312.162Z" transform="translate(-348.62 -561.467)" fill="#38383b" stroke="#38383b" stroke-linecap="round" stroke-width="0.7"/>
    </g>
  </g>
</svg>
