<svg width="225" height="140" viewBox="0 0 225 140" fill="none" xmlns="http://www.w3.org/2000/svg">
<path d="M56.8832 104.729C56.2549 103.964 55.0654 103.646 54.1209 103.646H44.668C42.8502 103.646 40.8268 104.638 40.4711 106.577L39.574 111.668C39.4397 112.457 39.6412 113.063 40.0009 113.515L41.056 114.776C41.6843 115.541 42.8541 115.878 43.8184 115.878H50.6235L49.7936 120.541C49.7027 120.993 49.434 121.239 49.0506 121.239H44.3558L44.9407 117.905L43.8855 116.62H38.6098L37.8708 120.744C37.7364 121.533 37.9143 122.139 38.2976 122.591L39.3527 123.852C39.9811 124.617 41.1271 124.954 42.0914 124.954H51.8802C53.6546 124.954 55.7649 123.919 56.081 122.024L57.0927 116.37C57.2271 115.581 57.0255 114.974 56.6422 114.522L55.6107 113.238C54.9824 112.473 53.8126 112.155 52.8721 112.155H46.067L46.7862 108.056C46.8534 107.604 47.1458 107.358 47.5292 107.358H51.8841L51.3467 110.442L52.4018 111.727H57.6776L58.3494 107.853C58.4838 107.064 58.2822 106.458 57.9226 106.006L56.8912 104.721L56.8832 104.729Z" fill="#FF724D"/>
<path d="M77.5397 107.524L77.9862 105.046L76.9311 103.761H59.7088L59.2583 106.24L60.3174 107.524H65.0083L62.2025 123.586L63.2576 124.871H68.5334L71.5644 107.524H77.5397Z" fill="#FF724D"/>
<path d="M81.622 103.738L71.1574 123.586L72.1691 124.871H75.2673L78.1641 119.419H84.3408L84.8783 123.586L85.89 124.871H91.7743L89.3953 105.022L88.3401 103.738H81.622ZM80.1835 115.656L83.2146 109.955L83.9101 115.656H80.1835Z" fill="#FF724D"/>
<path d="M111.194 103.738H108.186L101.448 112.794L98.5755 105.022L97.5203 103.738H91.5254L96.7102 116.513L95.4772 123.586L96.5087 124.871H101.788L103.045 117.73L112.249 105.022L111.194 103.738Z" fill="#FF724D"/>
<path d="M129.831 103.738H124.555L123.073 112.12H117.975L119.232 105.022L118.177 103.738H112.901L109.419 123.586L110.451 124.871H115.731L117.323 115.882H122.421L121.073 123.586L122.105 124.871H127.385L130.886 105.022L129.831 103.738Z" fill="#FF724D"/>
<path d="M135.822 121.152L136.743 115.859H145.907L146.334 113.428L145.279 112.143H137.395L138.225 107.457H147.634L148.061 105.022L147.006 103.738H132.321L128.839 123.586L129.874 124.871H144.718L145.164 122.437L144.109 121.152H135.822Z" fill="#FF724D"/>
<path d="M164.252 115.093C164.904 114.665 165.441 113.991 165.599 113L166.496 107.952C166.631 107.163 166.429 106.557 166.046 106.105L165.014 104.82C164.386 104.055 163.216 103.738 162.276 103.738H149.163L145.682 123.586L146.713 124.871H151.989L153.471 116.469H158.77L157.533 123.586L158.565 124.871H163.841L165.145 117.548C165.279 116.735 165.101 116.128 164.718 115.676L164.248 115.089L164.252 115.093ZM159.221 112.052C159.13 112.48 158.818 112.75 158.549 112.75H154.127L155.071 107.457H160.035L159.225 112.052H159.221Z" fill="#FF724D"/>
<path d="M184.683 104.729C184.054 103.964 182.865 103.646 181.92 103.646H172.132C170.314 103.646 168.29 104.638 167.931 106.577L165.437 120.747C165.303 121.537 165.481 122.143 165.864 122.595L166.919 123.856C167.547 124.621 168.694 124.958 169.658 124.958H179.447C181.221 124.958 183.331 123.923 183.647 122.028L186.141 107.857C186.275 107.068 186.074 106.462 185.714 106.01L184.683 104.725V104.729ZM177.364 120.545C177.273 120.997 177.004 121.243 176.621 121.243H171.93L174.242 108.063C174.309 107.611 174.602 107.366 174.981 107.366H179.676L177.364 120.545Z" fill="#FF724D"/>
<path d="M140.604 63.8102C140.288 60.0632 140.193 56.3005 139.987 52.5456C139.963 52.0976 139.865 51.6535 139.77 50.9874C137.908 51.9628 136.142 52.7399 134.545 53.7708C133.115 54.6946 131.83 55.7295 129.969 55.5947C129.226 55.5392 129.021 56.1419 129.44 56.7763C129.55 56.9468 129.669 57.1133 129.787 57.2798C132.119 60.543 134.312 63.9053 135.126 67.902C135.699 70.7132 135.964 73.5879 136.359 76.4347C136.474 77.2555 136.703 77.9771 137.324 78.6234C138.288 79.6265 139.256 80.6693 139.975 81.8509C140.864 83.3061 141.517 84.9079 142.24 86.4622C142.504 87.0292 142.694 87.5129 143.492 87.5763C143.492 87.5763 144.393 87.7825 145.698 87.9213C147.626 88.1275 150.444 88.1909 152.586 87.2235C152.586 87.2235 152.59 87.2235 152.594 87.2235C153.645 86.7358 154.672 86.1291 155.72 85.5066C154.7 85.0546 153.811 84.6938 152.945 84.2775C150.226 82.9651 147.67 81.4187 145.82 78.9485C142.465 74.472 141.082 69.2819 140.616 63.8181L140.604 63.8102Z" fill="#FF724D"/>
<path d="M67.0633 73.5641C66.9526 74.8408 66.7274 76.1611 66.103 77.2951C66.1741 77.3229 66.2452 77.3506 66.3124 77.3744C66.6918 77.1167 67.0633 76.8431 67.4585 76.6052C71.1416 74.4086 74.1806 74.1707 77.9823 76.7955C80.2032 78.326 81.6299 80.5187 83.0604 82.7272C83.8943 84.0158 84.6807 85.3996 85.7675 86.4503C88.1544 88.754 91.2171 89.317 94.426 89.3289C95.0188 89.3289 95.3152 89.1861 95.4733 88.5755C96.481 84.6819 98.2198 81.2086 101.275 78.4807C101.634 78.1595 101.931 77.6163 101.998 77.1365C102.259 75.3047 102.373 73.453 102.614 71.6212C102.942 69.147 103.428 66.6927 104.519 64.4287C105.657 62.0695 106.898 59.754 108.155 57.4543C108.562 56.7089 108.384 56.4353 107.645 56.2093C106.479 55.8524 105.278 55.5273 104.187 54.996C101.895 53.8779 99.6781 52.5972 97.4018 51.4473C94.5011 49.9842 91.6716 48.4617 89.6956 45.7298C88.4073 43.9495 88.3876 42.5816 89.7391 40.8053C91.636 38.3153 94.1099 36.4715 96.5284 34.5485C97.5085 33.7714 98.4214 32.911 99.5318 31.9475C99.1327 31.9118 99.0458 31.8801 98.9628 31.8999C98.2752 32.0466 97.5915 32.1973 96.9039 32.3519C92.2881 33.3868 88.4034 35.6944 85.1273 39.1043C82.5981 41.737 81.0568 44.9804 79.3536 48.1326C77.9902 50.6543 76.4529 53.0333 74.0344 54.7105C70.4065 57.2204 66.3243 58.3861 62.0088 58.9015C60.7442 59.0522 59.4796 59.2147 58.2664 59.3654C59.6337 60.2655 61.0841 61.0307 62.3092 62.0576C64.5617 63.9489 66.3401 66.5024 66.8736 69.4365C67.1186 70.7965 67.1858 72.1882 67.0672 73.5641H67.0633Z" fill="#FF724D"/>
<path d="M208.813 124.059C208.813 123.797 208.876 123.297 209.307 122.865L224.004 108.119H196.064V102.251C196.064 97.0254 191.844 92.7908 186.635 92.7908H164.584C165.844 91.0462 166.805 89.0478 167.342 86.8473L175.451 53.8109C177.135 46.9475 174.428 39.7511 168.638 35.7226L121.694 3.02727C115.897 -1.00909 108.103 -1.00909 102.306 3.02727L55.3657 35.7226C49.6197 39.7273 46.8811 46.9951 48.5527 53.8109L56.6619 86.8473C57.2033 89.0478 58.1597 91.0462 59.4203 92.7908H37.0528C32.022 92.7908 27.9397 96.8827 27.9397 101.934V108.119H0L14.697 122.865C15.353 123.523 15.353 124.594 14.697 125.252L0 139.998H26.0626C29.3585 139.998 32.2315 138.17 33.7411 135.478H190.267C191.776 138.174 194.649 139.998 197.945 139.998H224.004L209.307 125.252C208.88 124.824 208.813 124.32 208.813 124.059ZM27.9437 131.164C27.9437 132.203 27.098 133.051 26.0626 133.051H16.7164L19.5934 130.165C22.9485 126.799 22.9485 121.319 19.5934 117.953L16.7164 115.066H27.9437V131.164ZM55.2788 52.1496C54.2869 48.1093 55.9111 43.7993 59.3176 41.4282L106.258 8.7329C109.696 6.33804 114.312 6.33804 117.75 8.7329L164.69 41.4282C168.097 43.7993 169.721 48.1093 168.729 52.1496L160.62 85.1859C159.608 89.3016 156.19 92.2793 152.088 92.7908H142.528C142.153 89.9717 141.426 87.2438 140.165 84.6586C139.181 82.6364 137.656 81.0346 136.193 79.3693C135.759 78.8737 135.435 78.1679 135.32 77.5176C134.972 75.4955 134.747 73.4535 134.486 71.4155C134.095 68.3664 133.336 65.4284 131.728 62.7837C130.384 60.5752 128.946 58.4222 127.559 56.2653C128.183 54.5484 129.416 53.7039 131.34 53.8506C131.767 53.8823 132.245 53.5611 132.664 53.3312C134.755 52.1972 136.786 50.9442 138.924 49.9133C141.438 48.7001 143.828 47.3718 145.63 45.1633C146.385 44.2394 146.603 43.3394 146.014 42.1975C145.295 40.8057 144.279 39.6995 143.089 38.7479C141.505 37.4752 139.813 36.3332 138.268 35.0169C137.256 34.1525 136.446 33.0542 135.506 32.1026C134.466 31.0479 133.301 30.1716 131.74 30.1003C130.775 30.0527 129.803 30.1003 128.839 30.0289C126.733 29.8782 124.642 29.6086 122.872 28.3041C122.634 28.1297 122.401 27.749 122.413 27.4754C122.469 26.4525 122.52 25.4057 122.769 24.4184C123.409 21.8967 123.437 19.367 123.16 16.8096C123.01 15.4298 121.639 13.8874 120.485 13.9508C118.864 14.0381 117.244 14.1887 115.636 14.3909C114.422 14.5416 113.209 15.2315 112.846 16.4845C112.589 17.3687 112.854 18.2806 113.047 19.145C113.237 19.9975 113.344 20.8658 113.49 21.7262C113.735 23.1576 113.81 24.6682 114.359 26.0282C114.434 26.1709 114.494 26.3018 114.553 26.4485C115.079 27.749 114.324 27.7887 114.324 27.7887C112.893 27.7807 111.534 28.3081 110.633 28.7641C110.376 28.8949 110.158 29.0139 109.985 29.1169C109.716 29.2755 109.558 29.3866 109.538 29.3985C108.657 29.8465 107.661 29.7553 106.72 29.8624C106.665 29.8663 106.61 29.8782 106.554 29.8822C106.475 29.8941 106.4 29.906 106.321 29.9218C106.163 29.9536 106.001 29.9773 105.835 30.0051C103.713 30.465 102.061 31.714 101.607 32.0867C100.109 33.3872 98.7968 34.9058 97.2753 36.1746C95.1453 37.9509 92.9243 39.6123 91.2092 41.8327C90.4109 42.8636 90.3675 43.5654 91.0946 44.6042C92.3829 46.436 94.0862 47.796 96.0423 48.815C98.4965 50.0918 101.049 51.1782 103.448 52.5421C105.061 53.462 106.716 54.1717 108.467 54.7387C109.281 55.0004 110.044 55.4207 110.937 55.8133C110.293 57.1415 109.724 58.3588 109.115 59.5522C108.179 61.392 107.139 63.1842 106.27 65.0556C104.784 68.2475 104.42 71.7049 104.159 75.1624C104.009 77.137 103.642 78.9688 102.049 80.3566C99.3105 82.7475 98.0578 85.971 97.2556 89.3888C96.9908 90.507 96.7774 91.6409 96.5719 92.7948H71.9083C67.8023 92.2833 64.3839 89.3056 63.3762 85.1899L55.2669 52.1536L55.2788 52.1496ZM119.161 45.9246C119.445 45.9246 119.647 45.7422 119.71 45.4051L120.327 41.9358H115.268C114.549 41.9358 113.684 41.686 113.213 41.115L112.427 40.1753C112.158 39.8383 112.008 39.3863 112.111 38.7995L112.779 35.0129C113.047 33.5736 114.549 32.8361 115.901 32.8361H122.931C123.634 32.8361 124.52 33.07 124.986 33.641L125.753 34.5966C126.021 34.9336 126.171 35.3856 126.069 35.9724L125.567 38.855H121.643L120.856 37.8994L121.255 35.6037H118.015C117.73 35.6037 117.513 35.79 117.465 36.1231L116.932 39.1722H121.99C122.69 39.1722 123.559 39.4061 124.03 39.9771L124.796 40.9326C125.081 41.2696 125.231 41.7217 125.132 42.3085L124.381 46.5153C124.148 47.9229 122.579 48.6921 121.259 48.6921H113.98C113.261 48.6921 112.411 48.4423 111.941 47.8714L111.154 46.9317C110.87 46.5946 110.735 46.1426 110.838 45.5558L111.387 42.4909H115.312L116.098 43.4464L115.663 45.9246H119.161ZM114.122 74.8531C115.675 72.153 117.177 69.4211 118.691 66.6932C118.999 66.1381 119.252 65.5552 119.572 64.905C120.208 66.2333 120.742 67.4941 121.405 68.6836C122.931 71.4036 124.48 74.1117 126.092 76.7841C127.78 79.5715 129.625 82.2637 131.25 85.0828C131.953 86.3001 132.19 87.7751 132.791 89.0637C133.384 90.3285 134.048 91.5616 134.711 92.7908H104.468C105.732 90.7052 106.388 88.354 107.345 86.1296C107.993 84.6269 109.068 83.3145 109.921 81.8989C111.336 79.5596 112.755 77.2203 114.118 74.8531H114.122ZM127.385 48.1529C128.871 46.2735 130.285 44.4813 131.72 42.705C131.842 42.5543 132.143 42.4235 132.317 42.4631C133.976 42.8596 135.624 43.2918 137.521 43.7755C136.114 45.1791 134.854 46.4638 133.561 47.7167C132.898 48.3591 132.194 48.9578 131.479 49.5446C131.305 49.6873 130.977 49.8301 130.811 49.7587C129.704 49.2789 128.622 48.7397 127.385 48.1529ZM109.909 48.1529C108.59 48.7278 107.53 49.1996 106.456 49.6437C106.305 49.7072 106.025 49.6754 105.914 49.5723C104.163 47.9665 102.421 46.3528 100.706 44.7113C100.433 44.4496 100.291 44.0452 100.042 43.6328C101.535 43.2442 102.903 42.8438 104.29 42.5543C104.634 42.4829 105.179 42.6415 105.404 42.8953C106.906 44.5765 108.345 46.3131 109.906 48.1529H109.909ZM189.141 128.531H34.8674V99.7375H71.5249C72.0703 99.789 72.6157 99.8247 73.1729 99.8247H150.835C151.392 99.8247 151.938 99.793 152.483 99.7375H186.635C188.014 99.7375 189.141 100.864 189.141 102.251V128.531ZM204.415 130.165L207.291 133.051H197.945C196.91 133.051 196.064 132.203 196.064 131.164V115.066H207.291L204.415 117.953C202.79 119.582 201.893 121.751 201.893 124.059C201.893 126.366 202.79 128.535 204.415 130.165Z" fill="#FF724D"/>
</svg>
