<svg xmlns="http://www.w3.org/2000/svg" width="43.158" height="43.158" viewBox="0 0 43.158 43.158">
  <g id="그룹_2758" data-name="그룹 2758" transform="translate(-8952.678 -2813.53)">
    <path id="패스_12309" data-name="패스 12309" d="M21.579,0A21.579,21.579,0,1,1,0,21.579,21.579,21.579,0,0,1,21.579,0Z" transform="translate(8952.678 2813.53)" fill="#efefef"/>
    <g id="그룹_2748" data-name="그룹 2748" transform="translate(8963.666 2824.519)">
      <path id="사각형_2537" data-name="사각형 2537" d="M.021-.4H12.869a.421.421,0,0,1,.421.421V3.443a.421.421,0,0,1-.421.421H.021A.421.421,0,0,1-.4,3.443V.021A.421.421,0,0,1,.021-.4ZM12.448.442H.442V3.022H12.448Z" transform="translate(2.684 8.944)"/>
      <path id="선_380" data-name="선 380" d="M.021,3.705A.421.421,0,0,1-.4,3.284V.021a.421.421,0,0,1,.842,0V3.284A.421.421,0,0,1,.021,3.705Z" transform="translate(6.717 9.067)"/>
      <path id="선_381" data-name="선 381" d="M.021,3.6A.421.421,0,0,1-.4,3.18V.021a.421.421,0,0,1,.842,0V3.18A.421.421,0,0,1,.021,3.6Z" transform="translate(17.004 9.075)"/>
      <path id="선_382" data-name="선 382" d="M.021,3.6A.421.421,0,0,1-.4,3.18V.021a.421.421,0,0,1,.842,0V3.18A.421.421,0,0,1,.021,3.6Z" transform="translate(18.452 9.075)"/>
      <path id="타원_463" data-name="타원 463" d="M10.189-.4A10.589,10.589,0,1,1-.4,10.189,10.6,10.6,0,0,1,10.189-.4Zm0,20.337A9.747,9.747,0,1,0,.442,10.189,9.758,9.758,0,0,0,10.189,19.937Z" transform="translate(0.4 0.4)"/>
      <path id="선_383" data-name="선 383" d="M14.365,14.337a.42.42,0,0,1-.293-.119L-.272.323a.421.421,0,0,1,.586-.6L14.658,13.613a.421.421,0,0,1-.293.723Z" transform="translate(3.593 3.593)"/>
    </g>
  </g>
</svg>
