<svg id="그룹_2742" data-name="그룹 2742" xmlns="http://www.w3.org/2000/svg" width="43.158" height="43.158" viewBox="0 0 43.158 43.158">
  <path id="패스_10878" data-name="패스 10878" d="M21.579,0A21.579,21.579,0,1,1,0,21.579,21.579,21.579,0,0,1,21.579,0Z" transform="translate(0 0)" fill="#efefef"/>
  <g id="그룹_1812" data-name="그룹 1812" transform="translate(10.104 13.263)">
    <g id="그룹_984" data-name="그룹 984" transform="translate(0 0)">
      <path id="패스_2472" data-name="패스 2472" d="M649.859,744.808h-5.651l-.113-.085c-3.242-2.453-3.022-9.027-3.011-9.306a.421.421,0,0,1,.842.033c0,.071-.206,6.255,2.569,8.516h5.364a.421.421,0,1,1,0,.842Z" transform="translate(-641.077 -735.013)"/>
      <path id="선_98" data-name="선 98" d="M.022,6.027l-.039,0A.421.421,0,0,1-.4,5.567L.119-.018A.421.421,0,0,1,.957.06L.44,5.644A.421.421,0,0,1,.022,6.027Z" transform="translate(2.734 9.64)"/>
      <path id="선_99" data-name="선 99" d="M1.184,6.027a.421.421,0,0,1-.412-.335L-.391.107A.421.421,0,1,1,.433-.065L1.6,5.52a.421.421,0,0,1-.413.507Z" transform="translate(6.871 9.64)"/>
    </g>
    <g id="그룹_985" data-name="그룹 985" transform="translate(14.314 0)">
      <path id="패스_2473" data-name="패스 2473" d="M663,744.808h-5.652a.421.421,0,1,1,0-.842h5.365c2.78-2.265,2.572-8.453,2.569-8.516a.421.421,0,0,1,.4-.437h.017a.421.421,0,0,1,.42.4c.011.279.229,6.853-3.011,9.306Z" transform="translate(-656.923 -735.013)"/>
      <path id="선_100" data-name="선 100" d="M.538,6.027a.421.421,0,0,1-.419-.382L-.4.06A.421.421,0,0,1,.44-.018L.957,5.567a.421.421,0,0,1-.38.458Z" transform="translate(5.91 9.64)"/>
      <path id="선_101" data-name="선 101" d="M.021,6.027a.423.423,0,0,1-.086-.009.421.421,0,0,1-.326-.5L.772-.065A.421.421,0,1,1,1.6.107L.433,5.691A.421.421,0,0,1,.021,6.027Z" transform="translate(1.127 9.64)"/>
    </g>
    <g id="그룹_986" data-name="그룹 986" transform="translate(5.544 3.609)">
      <path id="사각형_1575" data-name="사각형 1575" d="M1.25-.4H9.259a1.65,1.65,0,1,1,0,3.3H1.25a1.65,1.65,0,1,1,0-3.3ZM9.259,2.059a.808.808,0,1,0,0-1.616H1.25a.808.808,0,1,0,0,1.616Z" transform="translate(0.4 0.4)"/>
      <path id="선_102" data-name="선 102" d="M4,.442H.021a.421.421,0,0,1,0-.842H4A.421.421,0,0,1,4,.442Z" transform="translate(3.646 11.151)"/>
      <path id="선_103" data-name="선 103" d="M.021,8.735A.421.421,0,0,1-.4,8.314V.021a.421.421,0,0,1,.842,0V8.314A.421.421,0,0,1,.021,8.735Z" transform="translate(5.633 2.859)"/>
    </g>
  </g>
</svg>
