<svg id="그룹_2749" data-name="그룹 2749" xmlns="http://www.w3.org/2000/svg" width="43.158" height="43.158" viewBox="0 0 43.158 43.158">
  <path id="패스_10827" data-name="패스 10827" d="M21.579,0A21.579,21.579,0,1,1,0,21.579,21.579,21.579,0,0,1,21.579,0Z" transform="translate(0 0)" fill="#efefef"/>
  <g id="그룹_1753" data-name="그룹 1753" transform="translate(10.797 13.051)">
    <path id="패스_10828" data-name="패스 10828" d="M782.524,385.651H769.568a.165.165,0,0,1-.129-.06.168.168,0,0,1-.037-.137l.551-3.081a2.477,2.477,0,0,1,2.388-2.129h7.451a2.389,2.389,0,0,1,2.39,2.134l.507,3.077a.168.168,0,0,1-.165.2Zm-12.756-.335h12.559l-.476-2.886v-.007a2.032,2.032,0,0,0-2.057-1.843h-7.451a2.152,2.152,0,0,0-2.059,1.857Z" transform="translate(-765.127 -378.732)"/>
    <path id="패스_10828_-_윤곽선" data-name="패스 10828 - 윤곽선" d="M782.532,385.817H769.576a.326.326,0,0,1-.321-.382l.551-3.082a2.633,2.633,0,0,1,2.544-2.259H779.8a2.545,2.545,0,0,1,2.546,2.27l.507,3.074a.326.326,0,0,1-.321.379ZM772.35,380.41a2.326,2.326,0,0,0-2.234,2l-.55,3.077a.01.01,0,0,0,0,.008.009.009,0,0,0,.008,0h12.956a.01.01,0,0,0,.01-.012l-.508-3.084a2.233,2.233,0,0,0-2.233-2Zm10.171,5.072H769.587l.548-3.065a2.306,2.306,0,0,1,2.215-1.987H779.8a2.186,2.186,0,0,1,2.214,1.982v0Zm-12.556-.316h12.184l-.447-2.714a1.879,1.879,0,0,0-1.9-1.706H772.35a2,2,0,0,0-1.9,1.731Z" transform="translate(-765.135 -378.74)"/>
    <path id="패스_10829" data-name="패스 10829" d="M781,397.044H765.256a1.976,1.976,0,0,1-1.974-1.974v-3.237a1.976,1.976,0,0,1,1.974-1.974H781a1.976,1.976,0,0,1,1.974,1.974v3.237A1.976,1.976,0,0,1,781,397.044Zm-15.742-6.85a1.64,1.64,0,0,0-1.638,1.638v3.237a1.64,1.64,0,0,0,1.638,1.638H781a1.64,1.64,0,0,0,1.639-1.638v-3.237A1.64,1.64,0,0,0,781,390.194Z" transform="translate(-762.261 -383.236)"/>
    <path id="패스_10829_-_윤곽선" data-name="패스 10829 - 윤곽선" d="M781.006,397.21H765.264a2.134,2.134,0,0,1-2.132-2.132v-3.237a2.134,2.134,0,0,1,2.132-2.132h15.743a2.134,2.134,0,0,1,2.132,2.132v3.237A2.134,2.134,0,0,1,781.006,397.21Zm-15.743-7.185a1.818,1.818,0,0,0-1.816,1.816v3.237a1.818,1.818,0,0,0,1.816,1.816h15.743a1.818,1.818,0,0,0,1.816-1.816v-3.237a1.818,1.818,0,0,0-1.816-1.816Zm15.743,6.85H765.264a1.8,1.8,0,0,1-1.8-1.8v-3.237a1.8,1.8,0,0,1,1.8-1.8h15.743a1.8,1.8,0,0,1,1.8,1.8v3.237A1.8,1.8,0,0,1,781.006,396.874Zm-15.743-6.514a1.482,1.482,0,0,0-1.48,1.481v3.237a1.482,1.482,0,0,0,1.48,1.481h15.743a1.482,1.482,0,0,0,1.481-1.481v-3.237a1.482,1.482,0,0,0-1.481-1.481Z" transform="translate(-762.269 -383.244)"/>
    <path id="패스_10830" data-name="패스 10830" d="M793.792,395.609h-1.107a.906.906,0,0,1-.919-.729l-.064-.212a.934.934,0,0,1,.016-.8.621.621,0,0,1,.522-.213h1.552a.894.894,0,0,1,.893.893v.17A.894.894,0,0,1,793.792,395.609Zm-1.55-1.62a.345.345,0,0,0-.255.077c-.08.108.007.408.036.506l.062.205c.118.356.287.5.6.5h1.107a.558.558,0,0,0,.558-.557v-.17a.558.558,0,0,0-.558-.557Z" transform="translate(-775.534 -385.013)"/>
    <path id="패스_10830_-_윤곽선" data-name="패스 10830 - 윤곽선" d="M793.8,395.775h-1.107a1.059,1.059,0,0,1-1.069-.838l-.065-.215a1.065,1.065,0,0,1,.041-.941.768.768,0,0,1,.647-.277H793.8a1.052,1.052,0,0,1,1.051,1.051v.17A1.052,1.052,0,0,1,793.8,395.775Zm-1.552-1.955a.474.474,0,0,0-.395.149.817.817,0,0,0,.008.663l.064.21a.747.747,0,0,0,.768.617H793.8a.736.736,0,0,0,.735-.735v-.17a.736.736,0,0,0-.735-.735Zm1.552,1.62h-1.107a.736.736,0,0,1-.749-.6l-.064-.209c-.069-.236-.123-.495-.011-.646a.455.455,0,0,1,.38-.141H793.8a.716.716,0,0,1,.715.715v.17A.716.716,0,0,1,793.8,395.44Zm-1.677-1.267a.878.878,0,0,0,.06.364l.062.2c.108.324.236.384.449.384H793.8a.4.4,0,0,0,.4-.4v-.17a.4.4,0,0,0-.4-.4H792.25A.394.394,0,0,0,792.122,394.173Z" transform="translate(-775.542 -385.021)"/>
    <path id="패스_10831" data-name="패스 10831" d="M768.4,395.609h-1.107a.894.894,0,0,1-.893-.893v-.17a.894.894,0,0,1,.893-.893h1.55a.624.624,0,0,1,.525.213.932.932,0,0,1,.016.8l-.063.209A.908.908,0,0,1,768.4,395.609Zm.441-1.62h-1.548a.558.558,0,0,0-.558.557v.17a.558.558,0,0,0,.558.557H768.4c.313,0,.482-.14.6-.5l.062-.2c.028-.1.115-.4.035-.5C769.048,394,768.929,393.991,768.836,393.99Z" transform="translate(-763.719 -385.013)"/>
    <path id="패스_10831_-_윤곽선" data-name="패스 10831 - 윤곽선" d="M768.4,395.775H767.3a1.052,1.052,0,0,1-1.051-1.05v-.17A1.052,1.052,0,0,1,767.3,393.5h1.55a.774.774,0,0,1,.651.277,1.059,1.059,0,0,1,.041.938l-.063.21A1.064,1.064,0,0,1,768.4,395.775Zm.441-1.955H767.3a.736.736,0,0,0-.735.735v.17a.736.736,0,0,0,.735.735H768.4a.752.752,0,0,0,.771-.626l.062-.2a.811.811,0,0,0,.008-.66A.481.481,0,0,0,768.844,393.82Zm-.441,1.62H767.3a.716.716,0,0,1-.715-.715v-.17a.716.716,0,0,1,.715-.715h1.548a.454.454,0,0,1,.384.141.8.8,0,0,1-.01.643l-.062.2C769.013,395.258,768.788,395.44,768.4,395.44Zm.439-1.284H767.3a.4.4,0,0,0-.4.4v.17a.4.4,0,0,0,.4.4H768.4c.213,0,.341-.061.451-.392l.06-.2a.862.862,0,0,0,.059-.36A.406.406,0,0,0,768.842,394.155Z" transform="translate(-763.727 -385.021)"/>
    <path id="패스_10832" data-name="패스 10832" d="M798.309,388.233h-.956a1.054,1.054,0,0,1-1.071-1.034V387a1.054,1.054,0,0,1,1.071-1.034h.956A1.054,1.054,0,0,1,799.381,387v.2A1.054,1.054,0,0,1,798.309,388.233Zm-.956-1.935a.718.718,0,0,0-.736.7v.2a.718.718,0,0,0,.736.7h.956a.718.718,0,0,0,.736-.7V387a.719.719,0,0,0-.736-.7Z" transform="translate(-777.718 -381.411)"/>
    <path id="패스_10832_-_윤곽선" data-name="패스 10832 - 윤곽선" d="M798.317,388.4h-.956a1.212,1.212,0,0,1-1.229-1.191V387a1.212,1.212,0,0,1,1.229-1.191h.956a1.212,1.212,0,0,1,1.23,1.191v.2A1.212,1.212,0,0,1,798.317,388.4Zm-.956-2.27a.9.9,0,0,0-.913.876v.2a.9.9,0,0,0,.913.876h.956a.9.9,0,0,0,.914-.876V387a.9.9,0,0,0-.914-.876Zm.956,1.934h-.956a.876.876,0,0,1-.894-.856V387a.876.876,0,0,1,.894-.856h.956a.877.877,0,0,1,.894.856v.2A.877.877,0,0,1,798.317,388.063Zm-.956-1.6a.561.561,0,0,0-.578.54v.2a.56.56,0,0,0,.578.54h.956a.561.561,0,0,0,.578-.54V387a.561.561,0,0,0-.578-.54Z" transform="translate(-777.726 -381.419)"/>
    <path id="패스_10833" data-name="패스 10833" d="M763.686,388.233h-.956a1.054,1.054,0,0,1-1.071-1.034V387a1.054,1.054,0,0,1,1.071-1.034h.956A1.054,1.054,0,0,1,764.758,387v.2A1.054,1.054,0,0,1,763.686,388.233Zm-.956-1.935a.718.718,0,0,0-.736.7v.2a.718.718,0,0,0,.736.7h.956a.719.719,0,0,0,.736-.7V387a.719.719,0,0,0-.736-.7Z" transform="translate(-761.501 -381.411)"/>
    <path id="패스_10833_-_윤곽선" data-name="패스 10833 - 윤곽선" d="M763.694,388.4h-.956a1.212,1.212,0,0,1-1.229-1.191V387a1.212,1.212,0,0,1,1.229-1.191h.956A1.212,1.212,0,0,1,764.923,387v.2A1.212,1.212,0,0,1,763.694,388.4Zm-.956-2.27a.9.9,0,0,0-.913.876v.2a.9.9,0,0,0,.913.876h.956a.9.9,0,0,0,.914-.876V387a.9.9,0,0,0-.914-.876Zm.956,1.934h-.956a.876.876,0,0,1-.894-.856V387a.876.876,0,0,1,.894-.856h.956a.877.877,0,0,1,.894.856v.2A.877.877,0,0,1,763.694,388.063Zm-.956-1.6a.561.561,0,0,0-.578.54v.2a.561.561,0,0,0,.578.54h.956a.561.561,0,0,0,.578-.54V387a.561.561,0,0,0-.578-.54Z" transform="translate(-761.509 -381.419)"/>
    <path id="패스_10834" data-name="패스 10834" d="M766.845,384.361h0l.809-3.756a2.8,2.8,0,0,1,2.545-2.572h9.077a2.64,2.64,0,0,1,2.543,2.56v.009l.62,3.76h.039l.31.062-.638-3.871a3,3,0,0,0-2.876-2.855H770.2a3.121,3.121,0,0,0-2.873,2.842l-.833,3.871Z" transform="translate(-763.765 -377.539)"/>
    <path id="패스_10834_-_윤곽선" data-name="패스 10834 - 윤곽선" d="M782.992,384.63l-.519-.1h-.158l-.644-3.91a2.487,2.487,0,0,0-2.386-2.419h-9.077a2.655,2.655,0,0,0-2.39,2.443l-.833,3.869-.686.094.88-4.091a3.268,3.268,0,0,1,3.028-2.967h9.077a3.155,3.155,0,0,1,3.032,2.991Zm-.406-.4.02,0-.6-3.655a2.845,2.845,0,0,0-2.719-2.714h-9.077a2.968,2.968,0,0,0-2.718,2.713l-.786,3.655.02,0,.785-3.648a2.952,2.952,0,0,1,2.7-2.7h9.077a2.793,2.793,0,0,1,2.7,2.7v0Z" transform="translate(-763.775 -377.547)"/>
    <path id="패스_10835" data-name="패스 10835" d="M767.221,402.894l-1.575-.248-.36-.111v2.283a.9.9,0,0,0,.9.9h1.3a.9.9,0,0,0,.9-.9v-2Z" transform="translate(-763.2 -389.174)"/>
    <path id="패스_10835_-_윤곽선" data-name="패스 10835 - 윤곽선" d="M765.136,402.333l.554.17,1.547.243,1.322-.081v2.164a1.062,1.062,0,0,1-1.06,1.061h-1.3a1.062,1.062,0,0,1-1.061-1.061Zm2.085.731-1.614-.255-.156-.048v2.069a.746.746,0,0,0,.745.745h1.3a.746.746,0,0,0,.745-.745V403Z" transform="translate(-763.208 -389.184)"/>
    <path id="패스_10836" data-name="패스 10836" d="M795.415,402.62l-1.693.248h-1.157v1.924a.9.9,0,0,0,.9.9h1.3a.9.9,0,0,0,.9-.9V402.48Z" transform="translate(-775.977 -389.147)"/>
    <path id="패스_10836_-_윤곽선" data-name="패스 10836 - 윤곽선" d="M795.837,402.227v2.579a1.062,1.062,0,0,1-1.061,1.061h-1.3a1.062,1.062,0,0,1-1.061-1.061v-2.082h1.3l1.654-.242Zm-1.061,3.324a.746.746,0,0,0,.746-.745V402.76l-.048.026-1.744.254h-1v1.766a.746.746,0,0,0,.745.745Z" transform="translate(-775.985 -389.161)"/>
  </g>
</svg>
