<svg xmlns="http://www.w3.org/2000/svg" xmlns:xlink="http://www.w3.org/1999/xlink" width="25" height="25" viewBox="0 0 25 25">
  <defs>
    <clipPath id="clip-path">
      <rect id="사각형_2433" data-name="사각형 2433" width="25" height="25" transform="translate(-0.249 -0.198)" fill="#ffc8c8"/>
    </clipPath>
  </defs>
  <g id="마스크_그룹_146" data-name="마스크 그룹 146" transform="translate(0.249 0.198)" clip-path="url(#clip-path)">
    <g id="그룹_2575" data-name="그룹 2575" transform="translate(2.585 4.452)">
      <path id="패스_12244" data-name="패스 12244" d="M457.211,560.579H470.6a.438.438,0,0,1,.438.438v9.04a.438.438,0,0,1-.438.438h-6.263l-3.95,2.08a.438.438,0,0,1-.613-.542l.583-1.538h-3.148a.438.438,0,0,1-.438-.438v-9.04A.438.438,0,0,1,457.211,560.579Zm12.954.876H457.648v8.164h3.344a.438.438,0,0,1,.409.593l-.4,1.049,3.022-1.592a.438.438,0,0,1,.2-.051h5.934Z" transform="translate(-456.773 -560.579)" fill="#38383b" stroke="#38383b" stroke-linecap="round" stroke-width="0.7"/>
      <g id="그룹_2574" data-name="그룹 2574" transform="translate(4.199 2.967)">
        <path id="선_337" data-name="선 337" d="M4.723.167H-.271A.438.438,0,0,1-.709-.271.438.438,0,0,1-.271-.709H4.723a.438.438,0,0,1,.438.438A.438.438,0,0,1,4.723.167Z" transform="translate(0.709 0.709)" fill="#38383b" stroke="#38383b" stroke-linecap="round" stroke-width="0.5"/>
        <path id="선_338" data-name="선 338" d="M4.723.167H-.271A.438.438,0,0,1-.709-.271.438.438,0,0,1-.271-.709H4.723a.438.438,0,0,1,.438.438A.438.438,0,0,1,4.723.167Z" transform="translate(0.709 3.48)" fill="#38383b" stroke="#38383b" stroke-linecap="round" stroke-width="0.5"/>
      </g>
      <path id="패스_12245" data-name="패스 12245" d="M474.046,566.642h5.2a.438.438,0,0,1,.438.438v9.04a.438.438,0,0,1-.438.438H476.2l.568,1.541a.438.438,0,0,1-.619.536l-3.839-2.078h-6.089a.438.438,0,0,1-.438-.438v-2.979a.438.438,0,0,1,.234-.387l1.455-.766a.437.437,0,0,1,.2-.05h5.934v-4.857A.438.438,0,0,1,474.046,566.642Zm4.766.876h-4.328v4.857a.438.438,0,0,1-.438.438h-6.263l-1.126.593v2.277h5.762a.438.438,0,0,1,.208.053l2.916,1.578-.384-1.042a.438.438,0,0,1,.411-.589h3.242Z" transform="translate(-460.217 -562.897)" fill="#38383b" stroke="#38383b" stroke-linecap="round" stroke-width="0.7"/>
    </g>
  </g>
</svg>
