<svg width="34" height="50" viewBox="0 0 34 50" fill="none" xmlns="http://www.w3.org/2000/svg">
<path d="M12.262 48.286H11.371V39.988H12.262V48.286ZM7.897 40.546C9.112 40.546 9.994 41.374 9.994 42.958V43.894C9.994 45.478 9.112 46.297 7.897 46.297C6.682 46.297 5.8 45.478 5.8 43.894V42.958C5.8 41.365 6.682 40.546 7.897 40.546ZM7.897 45.496C8.545 45.496 9.139 45.037 9.139 43.768V43.084C9.139 41.815 8.536 41.356 7.897 41.356C7.249 41.356 6.655 41.815 6.655 43.084V43.768C6.655 45.037 7.249 45.496 7.897 45.496ZM16.7292 44.551H13.4442V40.465H14.2902V41.869H15.8832V40.465H16.7292V42.04H17.7732V40.096H18.6192V45.694H17.7732V42.796H16.7292V44.551ZM15.7482 45.487V47.422H20.3382V48.196H14.8572V45.487H15.7482ZM19.3302 45.892V39.988H20.1852V45.892H19.3302ZM14.2902 42.598V43.804H15.8832V42.598H14.2902ZM27.5053 44.299V45.055H21.8983V40.609H27.3793V41.365H22.7893V42.463H27.3163V43.201H22.7893V44.299H27.5053ZM20.8723 46.423H28.4863V47.179H20.8723V46.423Z" fill="#363636"/>
<mask id="mask0_19_505" style="mask-type:luminance" maskUnits="userSpaceOnUse" x="0" y="0" width="34" height="34">
<path d="M34 0H0V34H34V0Z" fill="white"/>
</mask>
<g mask="url(#mask0_19_505)">
<path d="M19.863 13.753H15.137V29.753H19.863V13.753Z" fill="#FF724D"/>
<path d="M19.863 9.40599H15.137V13.753H19.863V9.40599Z" fill="#FF724D"/>
<path d="M8.849 5H13.323C13.8715 5 14.4147 5.10804 14.9215 5.31796C15.4282 5.52787 15.8887 5.83554 16.2766 6.22342C16.6645 6.61129 16.9721 7.07175 17.182 7.57853C17.392 8.08531 17.5 8.62847 17.5 9.177V9.753H8.849V5Z" fill="#FF724D"/>
<path d="M26.151 9.75301L17.5 9.75301V9.17701C17.5 8.62847 17.608 8.08531 17.818 7.57854C18.0279 7.07176 18.3355 6.61129 18.7234 6.22342C19.1113 5.83555 19.5718 5.52787 20.0785 5.31796C20.5853 5.10805 21.1285 5.00001 21.677 5.00001L26.151 5.00001V9.75301Z" fill="#FF724D"/>
<path d="M27 13.753H8V29.753H27V13.753Z" stroke="#38383B" stroke-width="1.5" stroke-linecap="round" stroke-linejoin="round"/>
<path d="M29 9.75299H6V13.753H29V9.75299Z" stroke="#38383B" stroke-width="1.5" stroke-linecap="round" stroke-linejoin="round"/>
</g>
</svg>
