<svg width="34" height="50" viewBox="0 0 34 50" fill="none" xmlns="http://www.w3.org/2000/svg">
<path d="M2.07693 47.019V46.659C2.07693 45.786 3.01293 45.075 4.57893 45.075C6.14493 45.075 7.08093 45.786 7.08093 46.659V47.019C7.08093 47.892 6.14493 48.603 4.57893 48.603C3.01293 48.603 2.07693 47.892 2.07693 47.019ZM5.40693 43.383L5.49693 44.121C4.22793 44.283 3.47193 44.319 0.879932 44.319V40.593H4.72293V41.358H1.75293V43.554C3.59793 43.554 4.15593 43.518 5.40693 43.383ZM6.20793 46.965V46.713C6.20793 46.272 5.57793 45.804 4.57893 45.804C3.57993 45.804 2.94993 46.272 2.94993 46.713V46.965C2.94993 47.406 3.57993 47.874 4.57893 47.874C5.57793 47.874 6.20793 47.406 6.20793 46.965ZM8.22393 41.988V42.762H7.04493V44.967H6.16293V40.071H7.04493V41.988H8.22393ZM15.3461 48.423H9.9731V46.155H14.2391V45.354H9.9281V44.616H15.1121V46.875H10.8461V47.685H15.3461V48.423ZM15.1121 44.202H14.2301V40.071H15.1121V44.202ZM10.5941 40.188C11.9441 40.188 12.6551 41.07 12.6551 41.898V42.258C12.6551 43.086 11.9441 43.968 10.5941 43.968C9.2441 43.968 8.5331 43.086 8.5331 42.258V41.898C8.5331 41.07 9.2441 40.188 10.5941 40.188ZM10.5941 43.203C11.3681 43.203 11.8001 42.717 11.8001 42.204V41.952C11.8001 41.448 11.3681 40.962 10.5941 40.962C9.8201 40.962 9.3881 41.439 9.3881 41.952V42.204C9.3881 42.717 9.8201 43.203 10.5941 43.203ZM17.9683 43.014H22.4683V43.77H17.0953V40.332H22.4233V41.088H17.9683V41.682H22.3783V42.411H17.9683V43.014ZM16.9603 46.551V45.795H22.5313V48.468H21.6403V46.551H16.9603ZM15.9793 44.391H23.5933V45.129H15.9793V44.391ZM31.4984 43.14V43.914H30.2204V48.369H29.3294V40.071H30.2204V43.14H31.4984ZM24.3614 46.542L23.8934 45.831C26.7644 44.148 26.8724 43.689 26.8724 42.411V41.61H24.0554V40.845H27.7544V42.42C27.7544 44.058 27.6464 44.553 24.3614 46.542Z" fill="#363636"/>
<mask id="mask0_19_465" style="mask-type:luminance" maskUnits="userSpaceOnUse" x="0" y="0" width="34" height="34">
<path d="M34 0H0V34H34V0Z" fill="white"/>
</mask>
<g mask="url(#mask0_19_465)">
<path d="M24.8219 30.764H9.00195V13.384L16.9129 6.114L24.8239 13.384L24.8219 30.764Z" stroke="#38383B" stroke-width="1.5" stroke-linecap="round" stroke-linejoin="round"/>
<path d="M16.9119 13.8C17.7779 13.8 18.4799 13.098 18.4799 12.232C18.4799 11.366 17.7779 10.664 16.9119 10.664C16.0459 10.664 15.3439 11.366 15.3439 12.232C15.3439 13.098 16.0459 13.8 16.9119 13.8Z" stroke="#38383B" stroke-width="1.5"/>
<path d="M24.736 3.84201C24.2961 3.48221 23.762 3.25656 23.1975 3.19202C22.6329 3.12747 22.0617 3.22675 21.552 3.478C20.2208 3.9878 19.018 4.78431 18.029 5.811C17.941 5.899 17.946 5.92399 17.863 6.01099L18.937 6.99899C18.9683 6.93961 19.0081 6.88507 19.055 6.837C19.8914 5.96858 20.905 5.29053 22.027 4.849C22.3472 4.72842 22.685 4.66086 23.027 4.64899C23.2721 4.62924 23.5152 4.70643 23.704 4.86398C23.984 5.14398 23.99 5.77301 23.723 6.54401C22.8021 8.75849 21.0524 10.5254 18.847 11.468C18.5666 11.5595 18.2793 11.6287 17.988 11.675C17.588 11.717 17.267 11.746 17.088 11.57C17.042 11.523 16.932 11.47 16.901 11.398C16.7689 11.4061 16.6402 11.4436 16.5245 11.5078C16.4088 11.5721 16.3088 11.6614 16.2321 11.7693C16.1554 11.8772 16.1038 12.0009 16.0811 12.1313C16.0584 12.2617 16.0652 12.3956 16.101 12.523C16.3176 12.7366 16.5761 12.903 16.8603 13.0116C17.1445 13.1202 17.4481 13.1687 17.752 13.154C17.836 13.154 17.929 13.134 18.016 13.129C18.3618 13.1192 18.7035 13.0516 19.027 12.929C19.098 12.908 19.163 12.899 19.234 12.873C20.553 12.3387 21.7512 11.5448 22.7575 10.5385C23.7638 9.53221 24.5577 8.33399 25.092 7.01498C25.3418 6.5073 25.441 5.93872 25.3779 5.37643C25.3149 4.81415 25.0921 4.28171 24.736 3.84201Z" fill="#FF724D"/>
<path d="M18.9557 21.5674C19.3776 21.5674 19.7379 21.7168 20.0367 22.0157C20.3356 22.3145 20.485 22.6748 20.485 23.0967C20.485 23.5186 20.3356 23.8789 20.0367 24.1778C19.7379 24.4766 19.3776 24.626 18.9557 24.626C18.5309 24.626 18.1691 24.4766 17.8702 24.1778C17.5714 23.8789 17.422 23.5186 17.422 23.0967C17.422 22.6748 17.5714 22.3145 17.8702 22.0157C18.1691 21.7168 18.5309 21.5674 18.9557 21.5674ZM18.3185 18.3594H18.8063L15.2863 24.793H14.7985L18.3185 18.3594ZM14.6403 20.961C14.8922 20.961 15.1061 20.8731 15.2819 20.6973C15.4606 20.5186 15.5499 20.3047 15.5499 20.0557C15.5499 19.8067 15.4606 19.5943 15.2819 19.4185C15.1061 19.2398 14.8922 19.1504 14.6403 19.1504C14.3912 19.1504 14.1774 19.2383 13.9987 19.4141C13.8229 19.5899 13.735 19.8037 13.735 20.0557C13.735 20.3047 13.8229 20.5186 13.9987 20.6973C14.1774 20.8731 14.3912 20.961 14.6403 20.961ZM14.6403 18.522C15.0651 18.522 15.4269 18.6729 15.7257 18.9746C16.0245 19.2735 16.174 19.6338 16.174 20.0557C16.174 20.4776 16.0245 20.8379 15.7257 21.1367C15.4269 21.4356 15.0651 21.585 14.6403 21.585C14.2184 21.585 13.858 21.4356 13.5592 21.1367C13.2604 20.8379 13.111 20.4776 13.111 20.0557C13.111 19.6338 13.2604 19.2735 13.5592 18.9746C13.858 18.6729 14.2184 18.522 14.6403 18.522ZM18.9557 24.002C19.2047 24.002 19.4171 23.9141 19.5929 23.7383C19.7716 23.5596 19.861 23.3457 19.861 23.0967C19.861 22.8477 19.7716 22.6353 19.5929 22.4595C19.4171 22.2808 19.2047 22.1914 18.9557 22.1914C18.7037 22.1914 18.4884 22.2808 18.3097 22.4595C18.1339 22.6353 18.046 22.8477 18.046 23.0967C18.046 23.3457 18.1339 23.5596 18.3097 23.7383C18.4884 23.9141 18.7037 24.002 18.9557 24.002Z" fill="#38383B"/>
<path d="M18.3185 18.3594V18.0594C18.2088 18.0594 18.1079 18.1192 18.0553 18.2154L18.3185 18.3594ZM18.8063 18.3594L19.0695 18.5034C19.1203 18.4105 19.1184 18.2976 19.0643 18.2064C19.0103 18.1153 18.9122 18.0594 18.8063 18.0594V18.3594ZM15.2863 24.793V25.093C15.3959 25.093 15.4968 25.0332 15.5494 24.937L15.2863 24.793ZM14.7985 24.793L14.5353 24.649C14.4844 24.742 14.4864 24.8548 14.5404 24.946C14.5944 25.0371 14.6925 25.093 14.7985 25.093V24.793ZM15.2819 19.4185L15.068 19.6289L15.0715 19.6324L15.2819 19.4185ZM13.9987 19.4141L13.7883 19.2002L13.7865 19.202L13.9987 19.4141ZM13.9987 20.6973L13.7848 20.9077L13.7883 20.9112L13.9987 20.6973ZM15.7257 18.9746L15.5125 19.1857L15.5136 19.1868L15.7257 18.9746ZM13.5592 18.9746L13.7713 19.1868L13.7724 19.1857L13.5592 18.9746ZM19.5929 22.4595L19.379 22.6699L19.3825 22.6734L19.5929 22.4595ZM18.3097 23.7383L18.0958 23.9487L18.0993 23.9522L18.3097 23.7383ZM18.9557 21.8674C19.2978 21.8674 19.5819 21.9851 19.8246 22.2278L20.2489 21.8035C19.8939 21.4485 19.4573 21.2674 18.9557 21.2674V21.8674ZM19.8246 22.2278C20.0673 22.4705 20.185 22.7546 20.185 23.0967H20.785C20.785 22.5951 20.6039 22.1585 20.2489 21.8035L19.8246 22.2278ZM20.185 23.0967C20.185 23.4389 20.0673 23.723 19.8246 23.9656L20.2489 24.3899C20.6039 24.0349 20.785 23.5983 20.785 23.0967H20.185ZM19.8246 23.9656C19.5819 24.2083 19.2978 24.326 18.9557 24.326V24.926C19.4573 24.926 19.8939 24.7449 20.2489 24.3899L19.8246 23.9656ZM18.9557 24.326C18.61 24.326 18.3246 24.2079 18.0824 23.9656L17.6581 24.3899C18.0135 24.7453 18.4518 24.926 18.9557 24.926V24.326ZM18.0824 23.9656C17.8397 23.723 17.722 23.4389 17.722 23.0967H17.122C17.122 23.5983 17.3031 24.0349 17.6581 24.3899L18.0824 23.9656ZM17.722 23.0967C17.722 22.7546 17.8397 22.4705 18.0824 22.2278L17.6581 21.8035C17.3031 22.1585 17.122 22.5951 17.122 23.0967H17.722ZM18.0824 22.2278C18.3246 21.9855 18.61 21.8674 18.9557 21.8674V21.2674C18.4518 21.2674 18.0135 21.4481 17.6581 21.8035L18.0824 22.2278ZM18.3185 18.6594H18.8063V18.0594H18.3185V18.6594ZM18.5431 18.2154L15.0231 24.649L15.5494 24.937L19.0695 18.5034L18.5431 18.2154ZM15.2863 24.493H14.7985V25.093H15.2863V24.493ZM15.0616 24.937L18.5817 18.5034L18.0553 18.2154L14.5353 24.649L15.0616 24.937ZM14.6403 21.261C14.9706 21.261 15.2611 21.1423 15.494 20.9094L15.0697 20.4852C14.9511 20.6038 14.8139 20.661 14.6403 20.661V21.261ZM15.494 20.9094C15.728 20.6754 15.8499 20.3856 15.8499 20.0557H15.2499C15.2499 20.2238 15.1931 20.3618 15.0697 20.4852L15.494 20.9094ZM15.8499 20.0557C15.8499 19.7256 15.7279 19.4364 15.4922 19.2046L15.0715 19.6324C15.1933 19.7522 15.2499 19.8877 15.2499 20.0557H15.8499ZM15.4957 19.2081C15.2632 18.9717 14.9722 18.8504 14.6403 18.8504V19.4504C14.8123 19.4504 14.9489 19.5078 15.068 19.6289L15.4957 19.2081ZM14.6403 18.8504C14.3119 18.8504 14.0227 18.9697 13.7883 19.2002L14.209 19.628C14.332 19.507 14.4705 19.4504 14.6403 19.4504V18.8504ZM13.7865 19.202C13.5536 19.4349 13.435 19.7254 13.435 20.0557H14.035C14.035 19.8821 14.0921 19.7449 14.2108 19.6262L13.7865 19.202ZM13.435 20.0557C13.435 20.384 13.5542 20.6733 13.7848 20.9077L14.2125 20.4869C14.0915 20.3639 14.035 20.2254 14.035 20.0557H13.435ZM13.7883 20.9112C14.0227 21.1417 14.3119 21.261 14.6403 21.261V20.661C14.4705 20.661 14.332 20.6044 14.209 20.4834L13.7883 20.9112ZM14.6403 18.822C14.985 18.822 15.2701 18.9409 15.5125 19.1857L15.9389 18.7635C15.5837 18.4049 15.1451 18.222 14.6403 18.222V18.822ZM15.5136 19.1868C15.7563 19.4294 15.874 19.7135 15.874 20.0557H16.474C16.474 19.5541 16.2928 19.1175 15.9378 18.7625L15.5136 19.1868ZM15.874 20.0557C15.874 20.3978 15.7563 20.6819 15.5136 20.9246L15.9378 21.3489C16.2928 20.9939 16.474 20.5573 16.474 20.0557H15.874ZM15.5136 20.9246C15.2713 21.1669 14.986 21.285 14.6403 21.285V21.885C15.1442 21.885 15.5824 21.7043 15.9378 21.3489L15.5136 20.9246ZM14.6403 21.285C14.2981 21.285 14.014 21.1673 13.7713 20.9246L13.3471 21.3489C13.7021 21.7039 14.1387 21.885 14.6403 21.885V21.285ZM13.7713 20.9246C13.5287 20.6819 13.411 20.3978 13.411 20.0557H12.811C12.811 20.5573 12.9921 20.9939 13.3471 21.3489L13.7713 20.9246ZM13.411 20.0557C13.411 19.7135 13.5287 19.4294 13.7713 19.1868L13.3471 18.7625C12.9921 19.1175 12.811 19.5541 12.811 20.0557H13.411ZM13.7724 19.1857C14.0153 18.9404 14.2991 18.822 14.6403 18.822V18.222C14.1377 18.222 13.7008 18.4053 13.346 18.7635L13.7724 19.1857ZM18.9557 24.302C19.2841 24.302 19.5729 24.1826 19.805 23.9504L19.3808 23.5262C19.2614 23.6456 19.1253 23.702 18.9557 23.702V24.302ZM19.805 23.9504C20.0391 23.7164 20.161 23.4266 20.161 23.0967H19.561C19.561 23.2648 19.5042 23.4028 19.3808 23.5262L19.805 23.9504ZM20.161 23.0967C20.161 22.7667 20.0389 22.4774 19.8033 22.2456L19.3825 22.6734C19.5043 22.7932 19.561 22.9287 19.561 23.0967H20.161ZM19.8068 22.2491C19.575 22.0135 19.2857 21.8914 18.9557 21.8914V22.4914C19.1237 22.4914 19.2592 22.5481 19.379 22.6699L19.8068 22.2491ZM18.9557 21.8914C18.6239 21.8914 18.3323 22.0126 18.0976 22.2474L18.5218 22.6716C18.6445 22.549 18.7836 22.4914 18.9557 22.4914V21.8914ZM18.0976 22.2474C17.8654 22.4795 17.746 22.7683 17.746 23.0967H18.346C18.346 22.9271 18.4024 22.791 18.5218 22.6716L18.0976 22.2474ZM17.746 23.0967C17.746 23.425 17.8653 23.7143 18.0958 23.9487L18.5236 23.5279C18.4026 23.4049 18.346 23.2664 18.346 23.0967H17.746ZM18.0993 23.9522C18.3345 24.1835 18.6255 24.302 18.9557 24.302V23.702C18.782 23.702 18.6423 23.6447 18.5201 23.5244L18.0993 23.9522Z" fill="#38383B"/>
</g>
</svg>
