<svg xmlns="http://www.w3.org/2000/svg" xmlns:xlink="http://www.w3.org/1999/xlink" width="34" height="34" viewBox="0 0 34 34">
  <defs>
    <clipPath id="clip-path">
      <rect id="사각형_2193" data-name="사각형 2193" width="34" height="34" transform="translate(161 136)" fill="#ffe8e8"/>
    </clipPath>
  </defs>
  <g id="마스크_그룹_37" data-name="마스크 그룹 37" transform="translate(-161 -136)" clip-path="url(#clip-path)">
    <g id="그룹_2121" data-name="그룹 2121" transform="translate(52 -40)">
      <g id="그룹_2120" data-name="그룹 2120" transform="translate(118 179)">
        <path id="패스_11969" data-name="패스 11969" d="M567.72,372.388H551.9v-17.38l7.911-7.27,7.911,7.27Z" transform="translate(-551.898 -344.624)" fill="none" stroke="#38383b" stroke-linecap="round" stroke-linejoin="round" stroke-width="1.5"/>
        <g id="그룹_2119" data-name="그룹 2119" transform="translate(6.344 7.664)">
          <ellipse id="타원_376" data-name="타원 376" cx="1.568" cy="1.568" rx="1.568" ry="1.568" transform="translate(0 0)" fill="none" stroke="#38383b" stroke-width="1.5"/>
        </g>
        <path id="패스_11970" data-name="패스 11970" d="M567.589,345.183a2.961,2.961,0,0,0-3.184-.364,9.716,9.716,0,0,0-3.523,2.333c-.088.088-.083.113-.166.2l1.074.988a.7.7,0,0,1,.118-.162,8.394,8.394,0,0,1,2.972-1.988,3.148,3.148,0,0,1,1-.2.939.939,0,0,1,.677.215c.28.28.286.909.019,1.68a9.194,9.194,0,0,1-4.876,4.924,5.6,5.6,0,0,1-.859.207c-.4.042-.721.071-.9-.105-.046-.047-.156-.1-.187-.172a.887.887,0,0,0-.8,1.125,2.2,2.2,0,0,0,1.651.631c.084,0,.177-.02.264-.025a3.1,3.1,0,0,0,1.011-.2c.071-.021.136-.03.207-.056a10.624,10.624,0,0,0,5.858-5.858A2.963,2.963,0,0,0,567.589,345.183Z" transform="translate(-551.853 -344.341)" fill="#f8c750"/>
        <text id="_" data-name="%" transform="translate(3.821 22.626)" fill="#38383b" stroke="#38383b" stroke-linecap="round" stroke-linejoin="round" stroke-width="0.6" font-size="9" font-family="Gulim" letter-spacing="0.01em"><tspan x="0" y="0">%</tspan></text>
      </g>
    </g>
  </g>
</svg>
