<svg xmlns="http://www.w3.org/2000/svg" xmlns:xlink="http://www.w3.org/1999/xlink" width="25" height="25" viewBox="0 0 25 25">
  <defs>
    <clipPath id="clip-path">
      <rect id="사각형_2429" data-name="사각형 2429" width="25" height="25" transform="translate(-0.431 -0.198)" fill="#ffc8c8"/>
    </clipPath>
  </defs>
  <g id="마스크_그룹_142" data-name="마스크 그룹 142" transform="translate(0.431 0.198)" clip-path="url(#clip-path)">
    <g id="그룹_2568" data-name="그룹 2568" transform="translate(4.39 3.216)">
      <path id="사각형_2425" data-name="사각형 2425" d="M5.242-.709H5.3a5.958,5.958,0,0,1,5.951,5.951V9.585a.438.438,0,0,1-.438.438H-.271a.438.438,0,0,1-.438-.438V5.242A5.958,5.958,0,0,1,5.242-.709ZM10.38,9.148V5.242A5.081,5.081,0,0,0,5.3.167H5.242A5.081,5.081,0,0,0,.167,5.242V9.148Z" transform="translate(2.613 0.709)" fill="#38383b" stroke="#38383b" stroke-linecap="round" stroke-width="0.7"/>
      <path id="패스_12234" data-name="패스 12234" d="M328.178,580.029h-14.9a.438.438,0,0,1-.4-.613l1.9-4.351a.438.438,0,0,1,.4-.262h11.088a.438.438,0,0,1,.4.262l1.9,4.351a.438.438,0,0,1-.4.613Zm-14.228-.876h13.558l-1.521-3.475H315.472Z" transform="translate(-312.844 -564.946)" fill="#38383b" stroke="#38383b" stroke-linecap="round" stroke-width="0.7"/>
      <path id="패스_12235" data-name="패스 12235" d="M323.576,585.57a3.29,3.29,0,0,1-3.287-3.287.438.438,0,0,1,.438-.438h5.7a.438.438,0,0,1,.438.438A3.29,3.29,0,0,1,323.576,585.57Zm-2.371-2.849a2.412,2.412,0,0,0,4.743,0Z" transform="translate(-315.69 -567.638)" fill="#38383b" stroke="#38383b" stroke-linecap="round" stroke-width="0.7"/>
    </g>
  </g>
</svg>
