<svg xmlns="http://www.w3.org/2000/svg" width="37.878" height="26.016" viewBox="0 0 37.878 26.016">
  <g id="그룹_2400" data-name="그룹 2400" transform="translate(-46.228 -361.724)">
    <g id="그룹_2011" data-name="그룹 2011" transform="translate(55.995 370.047)">
      <path id="패스_11846" data-name="패스 11846" d="M101.551,389.475v-8.223H95.775v-1.766h7.976v9.989Zm7.112-4.223v8.141h-2.2V379.486h2.2v4h1.768v1.766Z" transform="translate(-82.32 -379.485)" fill="#b5b5b5"/>
      <path id="패스_11847" data-name="패스 11847" d="M67.067,387.8v-8.317h6.562v1.766H69.267v1.491H73V384.5H69.267v1.53h4.991V387.8Zm1.336,9.376v-4.943h9.942v-1.452H68.4v-1.765H80.545V394H70.6v1.413H80.938v1.765Zm6.8-8.827v-3.806H73.629v-1.765H75.2v-3.3h2.2v8.866Zm3.144,0v-8.866h2.2v8.866Z" transform="translate(-67.067 -379.483)" fill="#b5b5b5"/>
    </g>
    <path id="패스_11848" data-name="패스 11848" d="M50.749,373.195a4.082,4.082,0,1,0,4.082,4.083,4.083,4.083,0,0,0-4.082-4.083m0,6.4a2.318,2.318,0,1,1,2.318-2.317,2.317,2.317,0,0,1-2.318,2.317" transform="translate(-0.233 -6.095)" fill="#b5b5b5"/>
    <path id="패스_11849" data-name="패스 11849" d="M48.459,361.724v4.4h6.485v-1.874H50.333v-2.527Z" transform="translate(-1.185 0)" fill="#b5b5b5"/>
    <path id="패스_11850" data-name="패스 11850" d="M51.283,390.345v-2.527H49.409v2.527H46.228v1.874H56.339v-1.874Z" transform="translate(0 -13.864)" fill="#b5b5b5"/>
  </g>
</svg>
