<svg id="그룹_369" data-name="그룹 369" xmlns="http://www.w3.org/2000/svg" width="10" height="10" viewBox="0 0 10 10">
  <g id="패스_12331" data-name="패스 12331" fill="none">
    <path d="M5,0A5,5,0,1,1,0,5,5,5,0,0,1,5,0Z" stroke="none"/>
    <path d="M 5 0.6000003814697266 C 2.573830127716064 0.6000003814697266 0.6000003814697266 2.573830127716064 0.6000003814697266 5 C 0.6000003814697266 7.426170349121094 2.573830127716064 9.399999618530273 5 9.399999618530273 C 7.426170349121094 9.399999618530273 9.399999618530273 7.426170349121094 9.399999618530273 5 C 9.399999618530273 2.573830127716064 7.426170349121094 0.6000003814697266 5 0.6000003814697266 M 5 0 C 7.761420249938965 0 10 2.238580226898193 10 5 C 10 7.761420249938965 7.761420249938965 10 5 10 C 2.238580226898193 10 0 7.761420249938965 0 5 C 0 2.238580226898193 2.238580226898193 0 5 0 Z" stroke="none" fill="#878d91"/>
  </g>
  <path id="패스_65" data-name="패스 65" d="M.9-5.76h.779v4.65H.9Zm.394-.959A.549.549,0,0,1,.9-6.861.471.471,0,0,1,.75-7.225.465.465,0,0,1,.9-7.6.57.57,0,0,1,1.29-7.73a.57.57,0,0,1,.385.133.465.465,0,0,1,.154.373.471.471,0,0,1-.154.364A.549.549,0,0,1,1.29-6.719Z" transform="translate(3.75 9.397)" fill="#878d91"/>
</svg>
