<svg xmlns="http://www.w3.org/2000/svg" xmlns:xlink="http://www.w3.org/1999/xlink" width="34" height="34" viewBox="0 0 34 34">
  <defs>
    <clipPath id="clip-path">
      <rect id="사각형_2190" data-name="사각형 2190" width="34" height="34" transform="translate(39 169)" fill="#ffe8e8"/>
    </clipPath>
  </defs>
  <g id="마스크_그룹_35" data-name="마스크 그룹 35" transform="translate(-39 -169)" clip-path="url(#clip-path)">
    <g id="그룹_2136" data-name="그룹 2136" transform="translate(-6546 -1801)">
      <g id="그룹_2125" data-name="그룹 2125" transform="translate(0.732 0.328)">
        <g id="그룹_2110" data-name="그룹 2110" transform="translate(6603.563 1974.499)">
          <path id="패스_11955" data-name="패스 11955" d="M496.893,342.675l.6,1.211,1.337.194-.967.943.228,1.331-1.2-.629-1.2.629.228-1.331-.967-.943,1.337-.194Z" transform="translate(-494.768 -342.493)" fill="#f8c750"/>
          <path id="패스_11956" data-name="패스 11956" d="M498,346.455a.187.187,0,0,1-.089-.021l-1.107-.582-1.107.582a.19.19,0,0,1-.276-.2l.211-1.233-.9-.873a.191.191,0,0,1,.105-.325l1.238-.18.554-1.122a.2.2,0,0,1,.341,0l.554,1.122,1.238.18a.191.191,0,0,1,.105.325l-.9.873.212,1.233a.189.189,0,0,1-.188.222Zm-1.2-1.009a.189.189,0,0,1,.089.022l.854.449-.163-.952a.193.193,0,0,1,.054-.168l.691-.674-.955-.139a.192.192,0,0,1-.143-.1l-.428-.866-.428.866a.192.192,0,0,1-.142.1l-.956.139.691.674a.191.191,0,0,1,.054.168l-.163.952.854-.449A.188.188,0,0,1,496.8,345.447Z" transform="translate(-494.675 -342.404)" fill="#f8c750"/>
        </g>
        <g id="그룹_2111" data-name="그룹 2111" transform="translate(6598.734 1974.499)">
          <path id="패스_11957" data-name="패스 11957" d="M489.646,342.675l.6,1.211,1.337.194-.967.943.228,1.331-1.2-.629-1.2.629.228-1.331-.967-.943,1.337-.194Z" transform="translate(-487.521 -342.493)" fill="#f8c750"/>
          <path id="패스_11958" data-name="패스 11958" d="M490.748,346.455a.187.187,0,0,1-.089-.021l-1.107-.582-1.107.582a.19.19,0,0,1-.276-.2l.211-1.233-.9-.873a.191.191,0,0,1,.105-.325l1.238-.18.554-1.122a.2.2,0,0,1,.341,0l.554,1.122,1.238.18a.191.191,0,0,1,.105.325l-.9.873.212,1.233a.189.189,0,0,1-.188.222Zm-1.2-1.009a.189.189,0,0,1,.089.022l.854.449-.163-.952a.191.191,0,0,1,.054-.168l.691-.674-.955-.139a.191.191,0,0,1-.143-.1l-.428-.866-.428.866a.192.192,0,0,1-.143.1l-.955.139.691.674a.191.191,0,0,1,.054.168l-.163.952.854-.449A.188.188,0,0,1,489.553,345.447Z" transform="translate(-487.428 -342.404)" fill="#f8c750"/>
        </g>
        <g id="그룹_2112" data-name="그룹 2112" transform="translate(6593.873 1974.499)">
          <path id="패스_11959" data-name="패스 11959" d="M482.4,342.675l.6,1.211,1.337.194-.967.943.228,1.331-1.2-.629-1.2.629.228-1.331-.967-.943,1.337-.194Z" transform="translate(-480.274 -342.493)" fill="#f8c750"/>
          <path id="패스_11960" data-name="패스 11960" d="M483.5,346.455a.187.187,0,0,1-.088-.021l-1.107-.582-1.107.582a.189.189,0,0,1-.2-.014.192.192,0,0,1-.076-.186l.212-1.233-.9-.873a.191.191,0,0,1,.105-.325l1.238-.18.554-1.122a.2.2,0,0,1,.341,0l.554,1.122,1.238.18a.191.191,0,0,1,.105.325l-.9.873.211,1.233a.188.188,0,0,1-.187.222Zm-1.2-1.009a.188.188,0,0,1,.089.022l.854.449-.163-.952a.191.191,0,0,1,.054-.168l.691-.674-.955-.139a.192.192,0,0,1-.143-.1l-.428-.866-.428.866a.191.191,0,0,1-.143.1l-.955.139.691.674a.193.193,0,0,1,.054.168l-.163.952.854-.449A.188.188,0,0,1,482.306,345.447Z" transform="translate(-480.181 -342.404)" fill="#f8c750"/>
        </g>
        <g id="그룹_2113" data-name="그룹 2113" transform="translate(6596.029 1971)">
          <path id="패스_11961" data-name="패스 11961" d="M485.614,337.458l.6,1.211,1.337.194-.967.943.228,1.331-1.2-.629-1.2.629.228-1.331-.967-.943,1.337-.194Z" transform="translate(-483.489 -337.276)" fill="#f8c750"/>
          <path id="패스_11962" data-name="패스 11962" d="M486.716,341.239a.188.188,0,0,1-.089-.022l-1.107-.582-1.107.582a.189.189,0,0,1-.2-.014.192.192,0,0,1-.076-.186l.211-1.233-.9-.873a.191.191,0,0,1,.105-.325l1.238-.179.554-1.122a.2.2,0,0,1,.341,0l.554,1.122,1.238.179a.191.191,0,0,1,.105.325l-.9.873.211,1.233a.189.189,0,0,1-.187.223Zm-1.2-1.009a.187.187,0,0,1,.089.021l.854.449-.163-.952a.191.191,0,0,1,.054-.168l.691-.674-.956-.139a.191.191,0,0,1-.143-.1l-.427-.866-.428.866a.188.188,0,0,1-.143.1l-.956.139.692.674a.193.193,0,0,1,.054.168l-.163.952.854-.449A.187.187,0,0,1,485.521,340.23Z" transform="translate(-483.396 -337.187)" fill="#f8c750"/>
        </g>
        <g id="그룹_2114" data-name="그룹 2114" transform="translate(6601.438 1971)">
          <path id="패스_11963" data-name="패스 11963" d="M493.678,337.458l-.6,1.211-1.337.194.967.943-.228,1.331,1.2-.629,1.2.629-.228-1.331.967-.943-1.337-.194Z" transform="translate(-491.553 -337.276)" fill="#f8c750"/>
          <path id="패스_11964" data-name="패스 11964" d="M492.389,341.239a.189.189,0,0,1-.187-.223l.211-1.233-.9-.873a.191.191,0,0,1,.105-.325l1.238-.179.554-1.122a.2.2,0,0,1,.341,0l.554,1.122,1.238.179a.19.19,0,0,1,.105.325l-.9.873.211,1.233a.192.192,0,0,1-.076.186.189.189,0,0,1-.2.014l-1.107-.582-1.107.582A.188.188,0,0,1,492.389,341.239Zm-.33-2.332.691.674a.189.189,0,0,1,.054.168l-.163.952.854-.449a.192.192,0,0,1,.177,0l.855.449-.164-.952a.193.193,0,0,1,.054-.168l.692-.674-.956-.139a.188.188,0,0,1-.143-.1l-.428-.866-.427.866a.19.19,0,0,1-.143.1Z" transform="translate(-491.46 -337.187)" fill="#f8c750"/>
        </g>
      </g>
      <rect id="사각형_2185" data-name="사각형 2185" width="16.92" height="2" transform="translate(6593.5 1980.198)" fill="none" stroke="#38383b" stroke-linecap="round" stroke-linejoin="round" stroke-width="1.5"/>
      <g id="그룹_2135" data-name="그룹 2135">
        <path id="패스_11942" data-name="패스 11942" d="M494.464,352.55h-14v20h14Z" transform="translate(6114.536 1629.648)" fill="none" stroke="#38383b" stroke-linecap="round" stroke-linejoin="round" stroke-width="1.5"/>
        <g id="그룹_2134" data-name="그룹 2134" transform="translate(0 25)">
          <g id="그룹_2133" data-name="그룹 2133" transform="translate(0 -25)">
            <g id="그룹_2100" data-name="그룹 2100" transform="translate(6597 1985.492)">
              <line id="선_207" data-name="선 207" x2="1.381" transform="translate(0.31 0.25)" fill="#fff" stroke="#38383b" stroke-width="0.5"/>
              <path id="패스_11944" data-name="패스 11944" d="M485.324,357.569h-1.472a.25.25,0,1,1,0-.5h1.472a.25.25,0,1,1,0,.5Z" transform="translate(-483.588 -357.069)" fill="#38383b" stroke="#38383b" stroke-width="0.5"/>
            </g>
            <g id="그룹_2103" data-name="그룹 2103" transform="translate(6597 1988.192)">
              <line id="선_210" data-name="선 210" x2="1.381" transform="translate(0.31 0.25)" fill="#fff" stroke="#38383b" stroke-width="0.5"/>
              <path id="패스_11947" data-name="패스 11947" d="M485.324,361.583h-1.472a.25.25,0,1,1,0-.5h1.472a.25.25,0,1,1,0,.5Z" transform="translate(-483.588 -361.083)" fill="#38383b" stroke="#38383b" stroke-width="0.5"/>
            </g>
            <g id="그룹_2106" data-name="그룹 2106" transform="translate(6597 1990.892)">
              <line id="선_213" data-name="선 213" x2="1.381" transform="translate(0.31 0.25)" fill="#fff" stroke="#38383b" stroke-width="0.5"/>
              <path id="패스_11950" data-name="패스 11950" d="M485.324,365.6h-1.472a.25.25,0,1,1,0-.5h1.472a.25.25,0,1,1,0,.5Z" transform="translate(-483.588 -365.097)" fill="#38383b" stroke="#38383b" stroke-width="0.5"/>
            </g>
          </g>
          <g id="그룹_2132" data-name="그룹 2132" transform="translate(0.5 -25)">
            <g id="그룹_2101" data-name="그룹 2101" transform="translate(6600.5 1985.492)">
              <line id="선_208" data-name="선 208" x2="1.381" transform="translate(0.31 0.25)" fill="#fff" stroke="#38383b" stroke-width="0.5"/>
              <path id="패스_11945" data-name="패스 11945" d="M490.724,357.569h-1.473a.25.25,0,1,1,0-.5h1.473a.25.25,0,1,1,0,.5Z" transform="translate(-488.987 -357.069)" fill="#38383b" stroke="#38383b" stroke-width="0.5"/>
            </g>
            <g id="그룹_2104" data-name="그룹 2104" transform="translate(6600.5 1988.192)">
              <line id="선_211" data-name="선 211" x2="1.381" transform="translate(0.31 0.25)" fill="#fff" stroke="#38383b" stroke-width="0.5"/>
              <path id="패스_11948" data-name="패스 11948" d="M490.724,361.583h-1.473a.25.25,0,1,1,0-.5h1.473a.25.25,0,1,1,0,.5Z" transform="translate(-488.987 -361.083)" fill="#38383b" stroke="#38383b" stroke-width="0.5"/>
            </g>
            <g id="그룹_2107" data-name="그룹 2107" transform="translate(6600.5 1990.892)">
              <line id="선_214" data-name="선 214" x2="1.381" transform="translate(0.31 0.25)" fill="#fff" stroke="#38383b" stroke-width="0.5"/>
              <path id="패스_11951" data-name="패스 11951" d="M490.724,365.6h-1.473a.25.25,0,1,1,0-.5h1.473a.25.25,0,1,1,0,.5Z" transform="translate(-488.987 -365.097)" fill="#38383b" stroke="#38383b" stroke-width="0.5"/>
            </g>
          </g>
          <g id="그룹_2131" data-name="그룹 2131" transform="translate(1 -25)">
            <g id="그룹_2102" data-name="그룹 2102" transform="translate(6604 1985.492)">
              <line id="선_209" data-name="선 209" x2="1.381" transform="translate(0.309 0.25)" fill="#fff" stroke="#38383b" stroke-width="0.5"/>
              <path id="패스_11946" data-name="패스 11946" d="M496.122,357.569H494.65a.25.25,0,1,1,0-.5h1.472a.25.25,0,1,1,0,.5Z" transform="translate(-494.386 -357.069)" fill="#38383b" stroke="#38383b" stroke-width="0.5"/>
            </g>
            <g id="그룹_2105" data-name="그룹 2105" transform="translate(6604 1988.192)">
              <line id="선_212" data-name="선 212" x2="1.381" transform="translate(0.309 0.25)" fill="#fff" stroke="#38383b" stroke-width="0.5"/>
              <path id="패스_11949" data-name="패스 11949" d="M496.122,361.583H494.65a.25.25,0,1,1,0-.5h1.472a.25.25,0,1,1,0,.5Z" transform="translate(-494.386 -361.083)" fill="#38383b" stroke="#38383b" stroke-width="0.5"/>
            </g>
            <g id="그룹_2108" data-name="그룹 2108" transform="translate(6604 1990.892)">
              <line id="선_215" data-name="선 215" x2="1.381" transform="translate(0.309 0.25)" fill="#fff" stroke="#38383b" stroke-width="0.5"/>
              <path id="패스_11952" data-name="패스 11952" d="M496.122,365.6H494.65a.25.25,0,1,1,0-.5h1.472a.25.25,0,1,1,0,.5Z" transform="translate(-494.386 -365.097)" fill="#38383b" stroke="#38383b" stroke-width="0.5"/>
            </g>
          </g>
        </g>
        <g id="그룹_2115" data-name="그룹 2115" transform="translate(6590.69 1989.888)">
          <rect id="사각형_2186" data-name="사각형 2186" width="4" height="12" transform="translate(0.31 0.309)" fill="none" stroke="#38383b" stroke-linecap="round" stroke-linejoin="round" stroke-width="1.5"/>
        </g>
        <g id="그룹_2116" data-name="그룹 2116" transform="translate(6608.69 1989.888)">
          <rect id="사각형_2187" data-name="사각형 2187" width="4" height="12" transform="translate(0.31 0.309)" fill="none" stroke="#38383b" stroke-linecap="round" stroke-linejoin="round" stroke-width="1.5"/>
        </g>
        <path id="패스_11972" data-name="패스 11972" d="M6607.866,2009.4v-6h4v6" transform="translate(-7.866 -7.202)" fill="none" stroke="#38383b" stroke-linecap="round" stroke-linejoin="round" stroke-width="1.5"/>
      </g>
    </g>
  </g>
</svg>
