<svg width="96" height="60" viewBox="0 0 96 60" fill="none" xmlns="http://www.w3.org/2000/svg">
<path d="M24.3781 44.8845C24.1088 44.5565 23.599 44.4205 23.1943 44.4205H19.1431C18.364 44.4205 17.4969 44.8454 17.3445 45.6763L16.96 47.8582C16.9024 48.1964 16.9888 48.4564 17.1429 48.6501L17.5951 49.1905C17.8644 49.5185 18.3657 49.6629 18.779 49.6629H21.6954L21.3397 51.6613C21.3008 51.855 21.1856 51.9604 21.0213 51.9604H19.0093L19.26 50.5313L18.8078 49.9807H16.5468L16.2301 51.748C16.1725 52.0861 16.2487 52.3461 16.413 52.5398L16.8652 53.0802C17.1344 53.4082 17.6256 53.5526 18.0388 53.5526H22.234C22.9944 53.5526 23.8988 53.1091 24.0343 52.2968L24.4679 49.8736C24.5254 49.5355 24.4391 49.2755 24.2748 49.0817L23.8328 48.5312C23.5635 48.2032 23.0622 48.0673 22.6591 48.0673H19.7426L20.0509 46.3102C20.0797 46.1165 20.205 46.0111 20.3693 46.0111H22.2357L22.0053 47.3332L22.4575 47.8837H24.7185L25.0064 46.2235C25.064 45.8853 24.9776 45.6254 24.8235 45.4316L24.3815 44.8811L24.3781 44.8845Z" fill="#FF724D"/>
<path d="M33.2307 46.0825L33.4221 45.0204L32.9699 44.4698H25.589L25.396 45.5319L25.8499 46.0825H27.8602L26.6577 52.9664L27.1099 53.5169H29.3709L30.6699 46.0825H33.2307Z" fill="#FF724D"/>
<path d="M34.9802 44.4596L30.4955 52.9664L30.9291 53.5169H32.2569L33.4983 51.1804H36.1454L36.3758 52.9664L36.8093 53.5169H39.3312L38.3116 45.0102L37.8594 44.4596H34.9802ZM34.3637 49.5677L35.6628 47.1241L35.9608 49.5677H34.3637Z" fill="#FF724D"/>
<path d="M47.6536 44.4596H46.3648L43.4772 48.3409L42.2459 45.0102L41.7937 44.4596H39.2245L41.4465 49.9348L40.9181 52.9664L41.3601 53.5169H43.6228L44.1614 50.4565L48.1059 45.0102L47.6536 44.4596Z" fill="#FF724D"/>
<path d="M55.6408 44.4596H53.3798L52.7447 48.052H50.5599L51.0985 45.0102L50.6463 44.4596H48.3853L46.8932 52.9664L47.3352 53.5169H49.5979L50.2805 49.6646H52.4652L51.8877 52.9664L52.3298 53.5169H54.5924L56.093 45.0102L55.6408 44.4596Z" fill="#FF724D"/>
<path d="M58.2083 51.923L58.603 49.6544H62.5305L62.7134 48.6127L62.2612 48.0622H58.8824L59.2381 46.0536H63.2706L63.4535 45.0102L63.0013 44.4596H56.7078L55.2157 52.9664L55.6594 53.5169H62.0207L62.2121 52.4736L61.7599 51.923H58.2083Z" fill="#FF724D"/>
<path d="M70.3923 49.3264C70.6718 49.1429 70.9021 48.854 70.9698 48.4292L71.3543 46.266C71.4119 45.9278 71.3255 45.6678 71.1612 45.4741L70.7192 44.9235C70.4499 44.5956 69.9486 44.4596 69.5455 44.4596H63.926L62.434 52.9664L62.876 53.5169H65.137L65.7721 49.9161H68.0433L67.5131 52.9664L67.9552 53.5169H70.2162L70.7751 50.3783C70.8327 50.03 70.7564 49.77 70.5922 49.5762L70.3906 49.3247L70.3923 49.3264ZM68.2363 48.0231C68.1974 48.2066 68.0636 48.3222 67.9484 48.3222H66.0532L66.458 46.0536H68.5852L68.238 48.0231H68.2363Z" fill="#FF724D"/>
<path d="M79.1484 44.8845C78.8791 44.5565 78.3693 44.4205 77.9645 44.4205H73.7694C72.9903 44.4205 72.1232 44.8454 71.9691 45.6763L70.9004 51.7497C70.8428 52.0878 70.919 52.3478 71.0833 52.5415L71.5355 53.0819C71.8048 53.4099 72.2959 53.5543 72.7092 53.5543H76.9043C77.6648 53.5543 78.5692 53.1108 78.7046 52.2985L79.7733 46.2252C79.8309 45.887 79.7445 45.6271 79.5904 45.4333L79.1484 44.8828V44.8845ZM76.0118 51.663C75.9728 51.8567 75.8577 51.9621 75.6934 51.9621H73.683L74.6738 46.3136C74.7026 46.1199 74.8279 46.0145 74.9905 46.0145H77.0025L76.0118 51.663Z" fill="#FF724D"/>
<path d="M60.2576 27.3476C60.1222 25.7418 60.0815 24.1291 59.9934 22.5199C59.9833 22.3278 59.9409 22.1375 59.9003 21.852C59.1026 22.2701 58.3455 22.6031 57.6613 23.045C57.0482 23.4409 56.4978 23.8844 55.7001 23.8266C55.3817 23.8028 55.2936 24.0611 55.4731 24.333C55.5206 24.4061 55.5714 24.4775 55.6222 24.5488C56.6214 25.9474 57.5614 27.3884 57.9103 29.1013C58.1558 30.3061 58.2693 31.5381 58.4387 32.7582C58.4878 33.11 58.586 33.4192 58.8519 33.6962C59.2652 34.1261 59.6801 34.5731 59.9883 35.0795C60.3694 35.7031 60.6489 36.3896 60.9588 37.0557C61.0723 37.2988 61.1536 37.5061 61.4957 37.5333C61.4957 37.5333 61.8818 37.6216 62.4407 37.6811C63.2672 37.7695 64.4748 37.7966 65.3927 37.382C65.3927 37.382 65.3944 37.382 65.3961 37.382C65.8466 37.173 66.287 36.913 66.7358 36.6462C66.2988 36.4525 65.9177 36.2979 65.5468 36.1194C64.3816 35.557 63.2858 34.8942 62.4932 33.8356C61.0553 31.917 60.4626 29.6926 60.2627 27.351L60.2576 27.3476Z" fill="#FF724D"/>
<path d="M28.7409 31.5279C28.6935 32.0751 28.5969 32.6409 28.3293 33.1269C28.3598 33.1388 28.3903 33.1507 28.4191 33.1609C28.5817 33.0505 28.7409 32.9332 28.9103 32.8313C30.4887 31.8899 31.7911 31.7879 33.4204 32.9128C34.3722 33.5688 34.9836 34.5085 35.5967 35.455C35.9541 36.0073 36.2911 36.6003 36.7568 37.0506C37.7798 38.0379 39.0924 38.2793 40.4676 38.2843C40.7216 38.2843 40.8486 38.2232 40.9164 37.9615C41.3483 36.2928 42.0935 34.8042 43.4026 33.635C43.5568 33.4974 43.6838 33.2646 43.7126 33.059C43.8244 32.2739 43.8735 31.4803 43.9768 30.6952C44.1174 29.6349 44.3257 28.583 44.7931 27.6127C45.2809 26.6016 45.8127 25.6092 46.3512 24.6236C46.5257 24.3041 46.4495 24.1869 46.1328 24.09C45.6332 23.9371 45.1183 23.7978 44.6508 23.57C43.6685 23.0908 42.7184 22.542 41.7429 22.0492C40.4998 21.4221 39.2871 20.7696 38.4403 19.5988C37.8882 18.8358 37.8797 18.2495 38.4589 17.4882C39.2719 16.4211 40.3321 15.6309 41.3686 14.8067C41.7886 14.4736 42.1798 14.1049 42.6558 13.692C42.4847 13.6767 42.4474 13.6631 42.4119 13.6716C42.1172 13.7345 41.8242 13.799 41.5295 13.8653C39.5513 14.3088 37.8865 15.2978 36.4825 16.7592C35.3985 17.8876 34.738 19.2776 34.0081 20.6285C33.4238 21.7093 32.7649 22.7289 31.7285 23.4477C30.1737 24.5234 28.4242 25.023 26.5747 25.2439C26.0328 25.3084 25.4908 25.3781 24.9709 25.4427C25.5569 25.8284 26.1784 26.1564 26.7035 26.5965C27.6688 27.4071 28.431 28.5014 28.6596 29.7589C28.7646 30.3418 28.7934 30.9382 28.7426 31.5279H28.7409Z" fill="#FF724D"/>
<path d="M89.4897 53.1688C89.4897 53.0566 89.5168 52.8425 89.7014 52.6573L96 46.3376H84.026V43.8226C84.026 41.5829 82.2172 39.768 79.985 39.768H70.5346C71.0749 39.0203 71.4864 38.1639 71.7167 37.2208L75.1921 23.0622C75.9136 20.1207 74.7534 17.0364 72.2723 15.3099L52.1536 1.29742C49.6691 -0.432474 46.3292 -0.432474 43.8447 1.29742L23.7277 15.3099C21.2652 17.0262 20.0915 20.141 20.8079 23.0622L24.2833 37.2208C24.5153 38.1639 24.9251 39.0203 25.4654 39.768H15.8795C13.7235 39.768 11.974 41.5217 11.974 43.6866V46.3376H0L6.29861 52.6573C6.57975 52.9394 6.57975 53.3982 6.29861 53.6803L0 60H11.1695C12.582 60 13.8132 59.2166 14.4602 58.0628H81.5415C82.1884 59.2183 83.4197 60 84.8322 60H96L89.7014 53.6803C89.5185 53.4967 89.4897 53.2809 89.4897 53.1688ZM11.9757 56.2139C11.9757 56.6592 11.6132 57.0228 11.1695 57.0228H7.16405L8.39701 55.7857C9.83491 54.343 9.83491 51.9946 8.39701 50.5518L7.16405 49.3148H11.9757V56.2139ZM23.6905 22.3501C23.2654 20.6185 23.9615 18.7714 25.4214 17.7552L45.5383 3.74273C47.0118 2.71634 48.9899 2.71634 50.4634 3.74273L70.5803 17.7552C72.0402 18.7714 72.7363 20.6185 72.3112 22.3501L68.8359 36.5088C68.4023 38.2727 66.9373 39.5488 65.1793 39.768H61.0824C60.9215 38.5598 60.6099 37.3907 60.0696 36.2828C59.6479 35.4161 58.9942 34.7296 58.3675 34.0159C58.1812 33.8035 58.0424 33.501 57.9933 33.2223C57.8442 32.3557 57.7477 31.4805 57.6359 30.6071C57.4682 29.3003 57.1431 28.0411 56.4537 26.9077C55.8779 25.9612 55.2614 25.0384 54.667 24.114C54.9346 23.3782 55.463 23.0163 56.2878 23.0791C56.4707 23.0927 56.6756 22.9551 56.8551 22.8565C57.7511 22.3705 58.6216 21.8336 59.5379 21.3917C60.615 20.8717 61.6396 20.3025 62.4119 19.356C62.7354 18.96 62.8286 18.5743 62.5762 18.0849C62.268 17.4884 61.8327 17.0143 61.3229 16.6065C60.6438 16.061 59.9189 15.5716 59.2567 15.0074C58.8231 14.637 58.4759 14.1663 58.0729 13.7584C57.6274 13.3064 57.1278 12.9309 56.4588 12.9003C56.0456 12.8799 55.629 12.9003 55.2157 12.8697C54.313 12.8051 53.4171 12.6896 52.6583 12.1305C52.5567 12.0557 52.4568 11.8926 52.4619 11.7754C52.4856 11.3369 52.5076 10.8883 52.6143 10.4652C52.8887 9.38443 52.9005 8.30027 52.782 7.20421C52.7176 6.61286 52.1299 5.95182 51.6354 5.97901C50.941 6.0164 50.2466 6.08097 49.5573 6.16764C49.0373 6.23221 48.5174 6.52789 48.3616 7.06487C48.2515 7.44382 48.365 7.83466 48.448 8.20511C48.5293 8.57046 48.575 8.94261 48.6376 9.31136C48.7427 9.92481 48.7748 10.5722 49.0103 11.1551C49.0424 11.2163 49.0678 11.2724 49.0932 11.3352C49.3185 11.8926 48.995 11.9096 48.995 11.9096C48.3819 11.9062 47.7993 12.1322 47.4132 12.3276C47.3031 12.3837 47.2099 12.4347 47.1354 12.4789C47.0202 12.5468 46.9525 12.5944 46.944 12.5995C46.5663 12.7915 46.1395 12.7525 45.7365 12.7983C45.7127 12.8 45.689 12.8051 45.6653 12.8068C45.6315 12.8119 45.5993 12.817 45.5654 12.8238C45.4977 12.8374 45.4282 12.8476 45.3571 12.8595C44.4476 13.0566 43.7397 13.5919 43.5449 13.7516C42.903 14.309 42.3407 14.9599 41.6887 15.5036C40.7758 16.2649 39.824 16.9769 39.089 17.9285C38.7469 18.3704 38.7282 18.6711 39.0398 19.1164C39.592 19.9014 40.3219 20.4843 41.1603 20.921C42.212 21.4682 43.3061 21.9338 44.3341 22.5184C45.0251 22.9126 45.7348 23.2168 46.485 23.4598C46.8339 23.5719 47.1608 23.7521 47.5436 23.9203C47.2675 24.4896 47.0236 25.0113 46.7628 25.5228C46.3614 26.3112 45.916 27.0793 45.5434 27.8814C44.9066 29.2493 44.7508 30.7311 44.639 32.2129C44.5746 33.0592 44.4171 33.8443 43.7346 34.439C42.5609 35.4637 42.024 36.8452 41.6802 38.31C41.5667 38.7892 41.4753 39.2752 41.3872 39.7697H30.8173C29.0576 39.5505 27.5926 38.2744 27.1607 36.5105L23.6854 22.3518L23.6905 22.3501ZM51.068 19.6822C51.1899 19.6822 51.2763 19.6041 51.3034 19.4596L51.5676 17.9727H49.3998C49.0915 17.9727 48.7206 17.8657 48.5191 17.621L48.1821 17.2182C48.0669 17.0738 48.0025 16.8801 48.0466 16.6286L48.3328 15.0057C48.448 14.3889 49.0915 14.0728 49.6708 14.0728H52.6837C52.9852 14.0728 53.3646 14.1731 53.5644 14.4178L53.893 14.8273C54.0081 14.9718 54.0725 15.1655 54.0285 15.417L53.8134 16.6524H52.1316L51.7946 16.2428L51.9656 15.2589H50.5769C50.4549 15.2589 50.3618 15.3388 50.3414 15.4815L50.1128 16.7883H52.2806C52.5804 16.7883 52.953 16.8886 53.1546 17.1333L53.4831 17.5428C53.6051 17.6872 53.6694 17.881 53.6271 18.1325L53.3053 19.9354C53.2054 20.5387 52.533 20.8683 51.9673 20.8683H48.8477C48.5394 20.8683 48.1753 20.7613 47.9737 20.5166L47.6367 20.1139C47.5148 19.9694 47.4572 19.7757 47.5012 19.5242L47.7366 18.2106H49.4184L49.7554 18.6202L49.5691 19.6822H51.068ZM48.9086 32.0804C49.5742 30.9231 50.2178 29.7523 50.8665 28.5832C50.9986 28.3453 51.107 28.0955 51.2441 27.8168C51.5168 28.3861 51.7455 28.9265 52.03 29.4363C52.6837 30.602 53.3476 31.7626 54.0386 32.9079C54.7618 34.1026 55.5527 35.2564 56.2488 36.4646C56.5503 36.9863 56.6519 37.6184 56.9093 38.1707C57.1634 38.7128 57.4479 39.2413 57.7324 39.768H44.7711C45.3131 38.8742 45.5942 37.8665 46.0041 36.9132C46.2818 36.2692 46.7425 35.7067 47.1083 35.1C47.7146 34.0975 48.3226 33.0949 48.9069 32.0804H48.9086ZM54.5925 20.6372C55.2293 19.8318 55.8356 19.0637 56.4504 18.3024C56.5029 18.2378 56.6316 18.1817 56.7061 18.1987C57.4174 18.3687 58.1237 18.5539 58.9366 18.7612C58.3337 19.3628 57.7934 19.9133 57.2396 20.4503C56.9551 20.7256 56.6536 20.9822 56.3471 21.2337C56.2725 21.2949 56.132 21.3561 56.0608 21.3255C55.5866 21.1198 55.1226 20.8887 54.5925 20.6372ZM47.1032 20.6372C46.5375 20.8836 46.0837 21.0859 45.623 21.2762C45.5586 21.3034 45.4384 21.2898 45.391 21.2456C44.6407 20.5574 43.8938 19.8658 43.1588 19.1622C43.0419 19.0501 42.9809 18.8768 42.8742 18.7C43.5144 18.5335 44.1004 18.3619 44.6949 18.2378C44.8422 18.2072 45.0759 18.2752 45.1725 18.384C45.8161 19.1045 46.4325 19.8488 47.1015 20.6372H47.1032ZM81.0588 55.0856H14.9429V42.7452H30.653C30.8867 42.7673 31.1204 42.7826 31.3592 42.7826H64.6424C64.8812 42.7826 65.115 42.769 65.3487 42.7452H79.985C80.5761 42.7452 81.0588 43.2278 81.0588 43.8226V55.0856ZM87.6047 55.7857L88.8376 57.0228H84.8322C84.3885 57.0228 84.026 56.6592 84.026 56.2139V49.3148H88.8376L87.6047 50.5518C86.9086 51.2503 86.5241 52.1798 86.5241 53.1688C86.5241 54.1578 86.9086 55.0873 87.6047 55.7857Z" fill="#FF724D"/>
</svg>
