<svg xmlns="http://www.w3.org/2000/svg" width="58" height="58" viewBox="0 0 58 58">
  <g id="그룹_2607" data-name="그룹 2607" transform="translate(-141 -86)">
    <path id="패스_12194" data-name="패스 12194" d="M29,0A29,29,0,1,1,0,29,29,29,0,0,1,29,0Z" transform="translate(141 86)" fill="#ececec"/>
    <g id="그룹_2606" data-name="그룹 2606" transform="translate(-522.776 137.848)">
      <g id="그룹_2451" data-name="그룹 2451" transform="translate(677.777 -37.848)">
        <path id="패스_12166" data-name="패스 12166" d="M707.042-27.239a1.437,1.437,0,0,0-1.158-.977l-8.395-1.22-3.755-7.611a1.438,1.438,0,0,0-1.924-.653,1.438,1.438,0,0,0-.652.653L687.4-29.435l-8.395,1.22a1.437,1.437,0,0,0-1.214,1.629,1.433,1.433,0,0,0,.42.821l6.077,5.924-1.434,8.365a1.435,1.435,0,0,0,1.172,1.659,1.44,1.44,0,0,0,.911-.144l7.512-3.949,7.513,3.949a1.433,1.433,0,0,0,1.938-.6,1.44,1.44,0,0,0,.145-.913l-1.434-8.365,6.078-5.924A1.435,1.435,0,0,0,707.042-27.239Z" transform="translate(-677.777 37.848)" fill="#fff" stroke="#38383b" stroke-linecap="round" stroke-linejoin="round" stroke-width="1.5"/>
      </g>
      <circle id="타원_450" data-name="타원 450" cx="5.469" cy="5.469" r="5.469" transform="translate(696.733 -25.543)" fill="#f8c750"/>
      <circle id="타원_426" data-name="타원 426" cx="5.463" cy="5.463" r="5.463" transform="translate(696.737 -25.537)" fill="none" stroke="#38383b" stroke-linecap="round" stroke-linejoin="round" stroke-width="1.5"/>
      <path id="패스_12167" data-name="패스 12167" d="M702-22.479h-1.521V-24a.8.8,0,0,0-.8-.8.8.8,0,0,0-.8.8v1.521h-1.521a.8.8,0,0,0-.8.8.8.8,0,0,0,.8.8h1.521v1.521a.8.8,0,0,0,.8.8.8.8,0,0,0,.8-.8h0v-1.521H702a.8.8,0,0,0,.8-.8A.8.8,0,0,0,702-22.479Z" transform="translate(2.525 1.754)" fill="#38383b"/>
    </g>
  </g>
</svg>
