<svg xmlns="http://www.w3.org/2000/svg" xmlns:xlink="http://www.w3.org/1999/xlink" width="25" height="25" viewBox="0 0 25 25">
  <defs>
    <clipPath id="clip-path">
      <rect id="사각형_2431" data-name="사각형 2431" width="25" height="25" transform="translate(0.16 -0.198)" fill="#ffc8c8"/>
    </clipPath>
  </defs>
  <g id="마스크_그룹_144" data-name="마스크 그룹 144" transform="translate(-0.16 0.198)" clip-path="url(#clip-path)">
    <g id="그룹_2572" data-name="그룹 2572" transform="translate(3.837 3.216)">
      <path id="패스_12237" data-name="패스 12237" d="M381.013,558.79h17.344a.438.438,0,0,1,.438.438v14.259a.438.438,0,0,1-.438.438h-6.818l-1.471,2.641a.438.438,0,0,1-.765,0l-1.471-2.641h-6.818a.438.438,0,0,1-.438-.438V559.228A.438.438,0,0,1,381.013,558.79Zm16.906.876H381.451v13.384h6.638a.438.438,0,0,1,.382.225l1.214,2.18,1.214-2.18a.438.438,0,0,1,.382-.225h6.638Z" transform="translate(-380.575 -558.79)" fill="#38383b" stroke="#38383b" stroke-linecap="round" stroke-width="0.7"/>
      <g id="그룹_2571" data-name="그룹 2571" transform="translate(1.788 5.323)">
        <path id="패스_12238" data-name="패스 12238" d="M385.916,567.407a.7.7,0,0,1,.627.392l.376.761.843.122a.7.7,0,0,1,.386,1.194l-.609.593.144.839a.7.7,0,0,1-.688.817.7.7,0,0,1-.325-.08l-.754-.4-.754.4a.7.7,0,0,1-.736-.053.694.694,0,0,1-.278-.683l.144-.84-.61-.595a.7.7,0,0,1,.385-1.192l.845-.123.377-.764A.7.7,0,0,1,385.916,567.407Zm1.366,2.091-.716-.1a.438.438,0,0,1-.329-.239l-.321-.649-.321.649a.438.438,0,0,1-.329.239l-.716.1.519.506a.438.438,0,0,1,.126.387l-.122.714.641-.337a.438.438,0,0,1,.407,0l.64.337-.123-.713a.438.438,0,0,1,.126-.388Z" transform="translate(-383.47 -567.407)" fill="#38383b"/>
        <path id="패스_12239" data-name="패스 12239" d="M393.954,567.407a.7.7,0,0,1,.627.392l.376.761.843.122a.7.7,0,0,1,.386,1.194l-.609.593.144.839a.7.7,0,0,1-.688.817.7.7,0,0,1-.325-.08l-.754-.4-.754.4a.7.7,0,0,1-.736-.053.694.694,0,0,1-.278-.683l.144-.84-.61-.595a.7.7,0,0,1,.385-1.192l.845-.123.377-.764A.7.7,0,0,1,393.954,567.407Zm1.366,2.091-.716-.1a.438.438,0,0,1-.329-.239l-.321-.649-.321.649a.438.438,0,0,1-.329.239l-.716.1.518.506a.438.438,0,0,1,.126.387l-.122.714.641-.337a.438.438,0,0,1,.407,0l.64.337-.123-.713A.438.438,0,0,1,394.8,570Z" transform="translate(-386.543 -567.407)" fill="#38383b"/>
        <path id="패스_12240" data-name="패스 12240" d="M401.992,567.407a.7.7,0,0,1,.627.392l.376.761.843.122a.7.7,0,0,1,.386,1.194l-.609.593.144.839a.7.7,0,0,1-.688.817.7.7,0,0,1-.325-.08l-.754-.4-.754.4a.7.7,0,0,1-.736-.053.694.694,0,0,1-.278-.683l.144-.84-.61-.595a.7.7,0,0,1,.386-1.192l.845-.123.377-.764A.7.7,0,0,1,401.992,567.407Zm1.366,2.091-.716-.1a.438.438,0,0,1-.329-.239l-.321-.649-.321.649a.438.438,0,0,1-.329.239l-.716.1.518.506a.438.438,0,0,1,.126.387l-.122.714.641-.337a.438.438,0,0,1,.407,0l.64.337-.123-.713a.438.438,0,0,1,.126-.388Z" transform="translate(-389.616 -567.407)" fill="#38383b"/>
      </g>
    </g>
  </g>
</svg>
