<svg xmlns="http://www.w3.org/2000/svg" xmlns:xlink="http://www.w3.org/1999/xlink" width="21" height="21" viewBox="0 0 21 21">
  <defs>
    <clipPath id="clip-path">
      <rect id="사각형_2305" data-name="사각형 2305" width="21" height="21" transform="translate(20 321)" fill="#bb7070"/>
    </clipPath>
  </defs>
  <g id="마스크_그룹_105" data-name="마스크 그룹 105" transform="translate(-20 -321)" clip-path="url(#clip-path)">
    <g id="그룹_2456" data-name="그룹 2456" transform="translate(0.711 0.154)">
      <path id="패스_12116" data-name="패스 12116" d="M54.676,372.382a3.571,3.571,0,0,0-7.037.77A28.445,28.445,0,0,1,54.676,372.382Z" transform="translate(-23.777 -42.496)" fill="#9c804f"/>
      <path id="패스_12117" data-name="패스 12117" d="M55.254,371.081a27.129,27.129,0,0,1,5.766,1.844c.626-3.023-1.58-6.036-4.927-6.729a6.071,6.071,0,0,0-6.843,3.146,3.828,3.828,0,0,1,4.725-.289A3.371,3.371,0,0,1,55.254,371.081Z" transform="translate(-24.357 -41.207)" fill="#efb347"/>
      <path id="패스_12118" data-name="패스 12118" d="M53.662,373.882l-6.635.632-.139.115a7.588,7.588,0,0,0-1.686,4.778c0,3.527,7.779,3.527,7.779,3.527s7.478-.064,7.478-3.527a7.592,7.592,0,0,0-.939-3.66A18.1,18.1,0,0,0,53.662,373.882Z" transform="translate(-22.913 -44)" fill="#46956e"/>
      <path id="패스_12119" data-name="패스 12119" d="M48.354,382.857a1.316,1.316,0,1,0,.61-1.759,1.316,1.316,0,0,0-.61,1.759Z" transform="translate(-23.99 -46.527)" fill="#da6a6f"/>
      <path id="패스_12120" data-name="패스 12120" d="M64.006,382.469a1.316,1.316,0,1,1-1.117-1.489h0A1.317,1.317,0,0,1,64.006,382.469Z" transform="translate(-28.687 -46.528)" fill="#da6a6f"/>
      <path id="빼기_8" data-name="빼기 8" d="M52.18,380.969a1.417,1.417,0,1,1,1.222-1.4A1.322,1.322,0,0,1,52.18,380.969Zm.648-1.4a.4.4,0,1,0,.4.4h0A.4.4,0,0,0,52.828,379.565Z" transform="translate(-24.965 -45.527)" fill="#38383b"/>
      <path id="빼기_9" data-name="빼기 9" d="M60.086,380.969a1.417,1.417,0,1,1,1.222-1.4A1.322,1.322,0,0,1,60.086,380.969Zm.649-1.4a.4.4,0,1,0,.4.4v0A.4.4,0,0,0,60.735,379.565Z" transform="translate(-27.786 -45.527)" fill="#38383b"/>
      <path id="패스_12116-2" data-name="패스 12116" d="M54.676,372.382a3.571,3.571,0,0,0-7.037.77A28.445,28.445,0,0,1,54.676,372.382Z" transform="translate(-23.777 -42.496)" fill="none" stroke="#38383b" stroke-linecap="round" stroke-linejoin="round" stroke-width="0.5"/>
      <path id="패스_12117-2" data-name="패스 12117" d="M55.254,371.081a27.129,27.129,0,0,1,5.766,1.844c.626-3.023-1.58-6.036-4.927-6.729a6.071,6.071,0,0,0-6.843,3.146" transform="translate(-24.357 -41.207)" fill="none" stroke="#38383b" stroke-linecap="round" stroke-linejoin="round" stroke-width="0.5"/>
      <path id="패스_12118-2" data-name="패스 12118" d="M46.888,375.043a7.588,7.588,0,0,0-1.686,4.778c0,3.527,7.779,3.527,7.779,3.527s7.478-.064,7.478-3.527a7.592,7.592,0,0,0-.939-3.66" transform="translate(-22.913 -44.414)" fill="none" stroke="#38383b" stroke-linecap="round" stroke-linejoin="round" stroke-width="0.5"/>
      <circle id="타원_420" data-name="타원 420" cx="0.483" cy="0.483" r="0.483" transform="translate(27.334 333.925)" fill="#fff"/>
      <circle id="타원_421" data-name="타원 421" cx="0.483" cy="0.483" r="0.483" transform="translate(32.465 333.925)" fill="#fff"/>
      <path id="빼기_8-2" data-name="빼기 8" d="M52.18,380.969a1.417,1.417,0,1,1,1.222-1.4A1.322,1.322,0,0,1,52.18,380.969Zm.648-1.4a.4.4,0,1,0,.4.4h0A.4.4,0,0,0,52.828,379.565Z" transform="translate(-24.965 -45.527)" fill="#38383b"/>
      <path id="빼기_9-2" data-name="빼기 9" d="M60.086,380.969a1.417,1.417,0,1,1,1.222-1.4A1.322,1.322,0,0,1,60.086,380.969Zm.649-1.4a.4.4,0,1,0,.4.4v0A.4.4,0,0,0,60.735,379.565Z" transform="translate(-27.786 -45.527)" fill="#38383b"/>
    </g>
  </g>
</svg>
