<svg width="34" height="46" viewBox="0 0 34 46" fill="none" xmlns="http://www.w3.org/2000/svg">
<path d="M7.95104 37.203V40.596H2.51504V37.203H7.95104ZM5.68304 45.033H4.78304V42.306H1.42604V41.55H9.04004V42.306H5.68304V45.033ZM3.39704 37.95V39.849H7.06904V37.95H3.39704ZM11.6532 42.054C10.3662 42.054 9.7182 41.298 9.7182 40.524V40.254C9.7182 39.471 10.3662 38.724 11.6532 38.724C12.9402 38.724 13.5882 39.48 13.5882 40.254V40.524C13.5882 41.298 12.9402 42.054 11.6532 42.054ZM16.9002 39.201V39.975H15.7212V42.756H14.8392V36.735H15.7212V39.201H16.9002ZM11.5452 42.648V44.169H15.9462V44.943H10.6542V42.648H11.5452ZM14.0292 37.653V38.409H9.2682V37.653H11.2122V36.654H12.0942V37.653H14.0292ZM11.6532 41.343C12.3822 41.343 12.7422 40.92 12.7422 40.479V40.299C12.7422 39.858 12.3912 39.435 11.6532 39.435C10.9152 39.435 10.5642 39.858 10.5642 40.299V40.479C10.5642 40.92 10.9242 41.343 11.6532 41.343ZM24.1484 36.735V45.033H23.2754V40.398H22.2944V44.628H21.4214V36.906H22.2944V39.624H23.2754V36.735H24.1484ZM20.4494 37.527V38.301H18.1544V42.036H18.6134C19.4234 42.036 20.0084 42 20.8544 41.865L20.9444 42.612C20.0084 42.765 19.3604 42.81 18.4334 42.81H17.2544V37.527H20.4494ZM31.5045 40.866H30.6225V36.735H31.5045V40.866ZM31.7385 45.087H26.3655V42.819H30.6315V42.018H26.3205V41.28H31.5045V43.539H27.2385V44.349H31.7385V45.087ZM27.2565 39.219H27.2475C27.2115 39.363 26.9775 39.624 26.6445 39.921C26.2665 40.254 25.7085 40.704 25.2135 41.055L24.7005 40.425C25.2765 39.993 25.8615 39.534 26.1855 39.237C26.6265 38.823 26.7705 38.49 26.7705 37.851V36.942H27.6705V37.815C27.6705 38.373 27.7335 38.661 28.1385 39.03C28.5615 39.408 29.0925 39.786 29.6055 40.128L29.0925 40.776C28.6335 40.443 28.1925 40.128 27.7695 39.768C27.5355 39.57 27.3015 39.345 27.2565 39.219Z" fill="#363636"/>
<mask id="mask0_19_490" style="mask-type:luminance" maskUnits="userSpaceOnUse" x="0" y="0" width="34" height="34">
<path d="M34 0H0V34H34V0Z" fill="white"/>
</mask>
<g mask="url(#mask0_19_490)">
<path d="M27.952 17.416C27.9518 19.9239 27.0927 22.3562 25.5176 24.3078C23.9425 26.2595 21.7464 27.6128 19.2951 28.1425C16.8437 28.6722 14.2848 28.3464 12.0445 27.2192C9.80406 26.092 8.01728 24.2315 6.98159 21.9474C5.94589 19.6632 5.7237 17.0933 6.35207 14.6653C6.98043 12.2374 8.42142 10.0978 10.4351 8.6029C12.4489 7.10798 14.9139 6.34786 17.4198 6.44903C19.9257 6.55021 22.3214 7.5066 24.208 9.15899" stroke="#38383B" stroke-width="1.3" stroke-linecap="round" stroke-linejoin="round"/>
<path d="M16.9761 9.728V11.426" stroke="#38383B" stroke-width="1.3" stroke-linecap="round" stroke-linejoin="round"/>
<path d="M24.665 17.416H22.967" stroke="#38383B" stroke-width="1.3" stroke-linecap="round" stroke-linejoin="round"/>
<path d="M16.9761 25.105V23.407" stroke="#38383B" stroke-width="1.3" stroke-linecap="round" stroke-linejoin="round"/>
<path d="M9.28809 17.416H10.9861" stroke="#38383B" stroke-width="1.3" stroke-linecap="round" stroke-linejoin="round"/>
<path d="M24.3891 9.30899L23.0661 5.99899L20.8291 9.48401L24.3891 9.30899Z" fill="#FF724D" stroke="#707070" stroke-width="1.3" stroke-linecap="round" stroke-linejoin="round"/>
<path d="M24.3891 9.30899L23.0661 5.99899L20.8291 9.48401L24.3891 9.30899Z" stroke="#38383B" stroke-width="1.3" stroke-linecap="round" stroke-linejoin="round"/>
</g>
</svg>
