<svg xmlns="http://www.w3.org/2000/svg" width="62.5" height="62.5" viewBox="0 0 62.5 62.5">
  <g id="그룹_3246" data-name="그룹 3246" transform="translate(-326.75 -525.75)">
    <path id="패스_12580" data-name="패스 12580" d="M30,0A30,30,0,1,1,0,30,30,30,0,0,1,30,0Z" transform="translate(328 527)" fill="#ececec" stroke="#707070" stroke-width="2.5"/>
    <g id="그룹_3235" data-name="그룹 3235" transform="translate(336.676 535.697)">
      <path id="패스_12574" data-name="패스 12574" d="M737.935,440.175a13.789,13.789,0,1,1,13.79-13.789A13.8,13.8,0,0,1,737.935,440.175Zm0-25.065a11.276,11.276,0,1,0,11.276,11.276A11.289,11.289,0,0,0,737.935,415.11Z" transform="translate(-716.611 -405.103)" fill="#707070"/>
      <circle id="타원_494" data-name="타원 494" cx="4.677" cy="4.677" r="4.677" transform="translate(16.647 16.608)" fill="#707070"/>
      <path id="패스_12575" data-name="패스 12575" d="M721.8,429.628h-3.768a1.417,1.417,0,0,1,0-2.834H721.8a1.417,1.417,0,0,1,0,2.834Z" transform="translate(-716.611 -406.867)" fill="#707070"/>
      <path id="패스_12576" data-name="패스 12576" d="M761.362,429.628h-3.768a1.417,1.417,0,0,1,0-2.834h3.768a1.417,1.417,0,0,1,0,2.834Z" transform="translate(-720.132 -406.867)" fill="#707070"/>
      <path id="패스_12577" data-name="패스 12577" d="M739.7,411.7a1.416,1.416,0,0,1-1.417-1.417V406.52a1.417,1.417,0,0,1,2.834,0v3.767A1.416,1.416,0,0,1,739.7,411.7Z" transform="translate(-718.371 -405.103)" fill="#707070"/>
      <path id="패스_12578" data-name="패스 12578" d="M739.7,451.231a1.416,1.416,0,0,1-1.417-1.417v-3.768a1.417,1.417,0,0,1,2.834,0v3.768A1.416,1.416,0,0,1,739.7,451.231Z" transform="translate(-718.371 -408.624)" fill="#707070"/>
      <path id="패스_12579" data-name="패스 12579" d="M725.562,428.211" transform="translate(-716.611 -406.867)" fill="#707070"/>
    </g>
  </g>
</svg>
