<svg xmlns="http://www.w3.org/2000/svg" xmlns:xlink="http://www.w3.org/1999/xlink" width="19" height="19" viewBox="0 0 19 19">
  <defs>
    <clipPath id="clip-path">
      <rect id="사각형_2496" data-name="사각형 2496" width="19" height="19" transform="translate(10452 683)" fill="#ec7b7b"/>
    </clipPath>
  </defs>
  <g id="마스크_그룹_157" data-name="마스크 그룹 157" transform="translate(-10452 -683)" clip-path="url(#clip-path)">
    <path id="패스_12220" data-name="패스 12220" d="M108.125,143.068c-.469-.143-.934-.289-1.4-.431a.5.5,0,0,1-.326-.3,7.269,7.269,0,0,0-.409-.878.505.505,0,0,1-.019-.48c.229-.45.454-.9.679-1.354a.5.5,0,0,0-.1-.585c-.341-.345-.686-.69-1.024-1.031a.511.511,0,0,0-.6-.09q-.788.422-1.583.84a.482.482,0,0,1-.435.022c-.18-.075-.364-.146-.548-.2a.5.5,0,0,1-.334-.322c-.191-.582-.386-1.155-.574-1.733a.5.5,0,0,0-.484-.348H99.514a.5.5,0,0,0-.491.36c-.176.581-.356,1.159-.529,1.74a.5.5,0,0,1-.326.334,4.786,4.786,0,0,0-.461.172.481.481,0,0,1-.435-.022c-.529-.278-1.054-.559-1.583-.84a.5.5,0,0,0-.6.09c-.345.341-.69.687-1.028,1.031a.5.5,0,0,0-.1.585l.679,1.354a.478.478,0,0,1-.019.48,6.694,6.694,0,0,0-.409.878.5.5,0,0,1-.326.3l-1.4.431a.5.5,0,0,0-.364.483v1.455a.511.511,0,0,0,.353.488c.461.15.919.3,1.38.462a.5.5,0,0,1,.323.311,5.662,5.662,0,0,0,.4.885.492.492,0,0,1,0,.488c-.236.443-.472.885-.709,1.332a.508.508,0,0,0,.094.6c.345.345.683.69,1.028,1.032a.507.507,0,0,0,.589.1c.533-.27,1.069-.536,1.6-.8a.5.5,0,0,1,.432-.011c.183.075.367.15.559.214a.494.494,0,0,1,.326.334c.173.573.353,1.155.529,1.736a.5.5,0,0,0,.491.364h1.455a.5.5,0,0,0,.484-.353c.188-.574.383-1.155.574-1.729a.48.48,0,0,1,.334-.322c.218-.071.431-.158.645-.244a.5.5,0,0,1,.431.011l1.6.8a.507.507,0,0,0,.589-.1c.345-.342.69-.687,1.028-1.032a.508.508,0,0,0,.094-.6c-.236-.446-.472-.889-.709-1.332a.491.491,0,0,1,0-.488,5.712,5.712,0,0,0,.4-.885.5.5,0,0,1,.322-.311c.457-.158.919-.311,1.38-.462a.507.507,0,0,0,.349-.488v-1.455A.5.5,0,0,0,108.125,143.068Zm-7.819,5.16a3.885,3.885,0,1,1,4.114-3.878A4,4,0,0,1,100.306,148.228Z" transform="translate(10361.194 548.15)" fill="none" stroke="#707070" stroke-linecap="round" stroke-linejoin="round" stroke-width="1.2" fill-rule="evenodd"/>
  </g>
</svg>
