<svg xmlns="http://www.w3.org/2000/svg" xmlns:xlink="http://www.w3.org/1999/xlink" width="16" height="16" viewBox="0 0 16 16">
  <defs>
    <clipPath id="clip-path">
      <rect id="사각형_2287" data-name="사각형 2287" width="16" height="16" transform="translate(23 529)" fill="#fbc0c0"/>
    </clipPath>
  </defs>
  <g id="마스크_그룹_93" data-name="마스크 그룹 93" transform="translate(-23 -529)" clip-path="url(#clip-path)">
    <path id="패스_10534" data-name="패스 10534" d="M586.462,430.935l-1.089-2.666c-.346-.845-1.074-.194-1.63-.12-.774.1-1.484-1.734-1.715-2.3a.066.066,0,0,1,0-.013.03.03,0,0,1-.005-.012h0c-.039-.1-.1-.231-.158-.389-.3-.759-.747-2.069-.229-2.455.449-.337,1.426-.381,1.08-1.228l-1.088-2.667a.733.733,0,0,0-.951-.4,8.991,8.991,0,0,0-1.877.839c-1.045.749-1.047,2.2-.952,3.349a14.452,14.452,0,0,0,1.1,4.2s0,.007,0,.012a.036.036,0,0,1,0,.012h0c.2.48.412.96.65,1.429a12.582,12.582,0,0,0,1.507,2.345c.732.883,1.755,1.92,3.026,1.725a9.108,9.108,0,0,0,1.927-.716A.731.731,0,0,0,586.462,430.935Z" transform="translate(-550.804 111.367)" fill="#707070"/>
  </g>
</svg>
