<svg xmlns="http://www.w3.org/2000/svg" width="6.151" height="12.561" viewBox="0 0 6.151 12.561">
  <g id="그룹_2793" data-name="그룹 2793" transform="translate(0 0)">
    <g id="그룹_2792" data-name="그룹 2792" transform="translate(1.676 0)">
      <ellipse id="타원_474" data-name="타원 474" cx="1.091" cy="1.091" rx="1.091" ry="1.091" transform="translate(0 0)"/>
    </g>
    <path id="패스_12328" data-name="패스 12328" d="M-36.675,706.057l.51-2.37a1.318,1.318,0,0,1,.327-.625l.029-.03a1.326,1.326,0,0,1,.208-.17l.022-.015,1.282-1.011a.55.55,0,0,0,.2-.51l-.263-1.793-.1-.956a4.347,4.347,0,0,1-.125-1.207,1.043,1.043,0,0,1,1.49-.573l.007,0,1.617.873a.768.768,0,0,1,.375.468.81.81,0,0,1,.028.078l.5,1.633a.61.61,0,0,1-.4.763.61.61,0,0,1-.763-.4l-.476-1.549-.316-.171.368,2.507a1.476,1.476,0,0,1-.03.583,1.32,1.32,0,0,1-.477.78l-1.932,1.524a.664.664,0,0,0-.238.381l-.448,2.084a.647.647,0,0,1-.629.509.652.652,0,0,1-.136-.014l-.14-.03A.639.639,0,0,1-36.675,706.057Z" transform="translate(36.689 -694.298)"/>
    <path id="패스_12329" data-name="패스 12329" d="M2.37,711.725l.093.89-1.183.915a.524.524,0,1,1-.642-.829l1.678-1.3C2.339,711.515,2.359,711.621,2.37,711.725Z" transform="translate(-0.33 -707.426)"/>
    <path id="패스_12330" data-name="패스 12330" d="M-30.708,747.33a1.512,1.512,0,0,0,.349-.392L-29.3,750.8a.607.607,0,0,1-.425.745.607.607,0,0,1-.745-.425l-.9-3.275Z" transform="translate(34.853 -739.116)"/>
  </g>
</svg>
