<svg id="그룹_2753" data-name="그룹 2753" xmlns="http://www.w3.org/2000/svg" width="43.158" height="43.158" viewBox="0 0 43.158 43.158">
  <path id="패스_10841" data-name="패스 10841" d="M147.535,175.1a21.579,21.579,0,1,1-21.579,21.579A21.579,21.579,0,0,1,147.535,175.1Z" transform="translate(-125.956 -175.097)" fill="#ffcd40"/>
  <g id="그룹_2724" data-name="그룹 2724" transform="translate(10.987 13.406)">
    <path id="패스_12288" data-name="패스 12288" d="M631.781,296.521a.421.421,0,0,1,.412.334c.586,2.773,2.047,4.179,4.343,4.179a7.1,7.1,0,0,0,2.674-.57.421.421,0,0,1,.552.187,19.677,19.677,0,0,0,4.367,5.78,9.274,9.274,0,0,0,2.125,1.472l.03.014c2.165,1.135,1.677,2.643,1.655,2.707a.428.428,0,0,1-.045.093l-.944,1.453a.421.421,0,0,1-.26.181,7.419,7.419,0,0,1-1.634.174c-3.9,0-7.96-2.626-8.131-2.738l-9.983-6.389a.421.421,0,0,1-.109-.609l4.612-6.1A.421.421,0,0,1,631.781,296.521Zm4.755,5.356a4.817,4.817,0,0,1-3.028-.969,5.848,5.848,0,0,1-1.918-3.015l-3.811,5.041,9.6,6.146c.043.028,4.028,2.6,7.673,2.6a6.714,6.714,0,0,0,1.283-.118l.81-1.247c.033-.186.075-.951-1.243-1.647-.309-.137-3.727-1.745-6.712-7.291A7.911,7.911,0,0,1,636.536,301.877Z" transform="translate(-626.748 -296.521)"/>
    <path id="패스_12289" data-name="패스 12289" d="M646.778,316.6a12.843,12.843,0,0,1-4.79-1.075,19.451,19.451,0,0,1-3.143-1.621l-9.723-6.258a.421.421,0,0,1,.456-.708l9.725,6.26.006,0c.049.033,5,3.292,8.942,2.4a.421.421,0,1,1,.186.821A7.493,7.493,0,0,1,646.778,316.6Z" transform="translate(-627.512 -302.349)"/>
    <path id="패스_12290" data-name="패스 12290" d="M651.935,303.212a.421.421,0,0,1-.393-.27,2.263,2.263,0,0,1,.454-2.5.421.421,0,0,1,.57.619,1.44,1.44,0,0,0-.239,1.574.421.421,0,0,1-.393.573Z" transform="translate(-639.294 -298.466)"/>
    <g id="그룹_2708" data-name="그룹 2708" transform="translate(12.235 5.483)">
      <path id="선_376" data-name="선 376" d="M.021,1.748A.421.421,0,0,1-.214.977L1.731-.329a.421.421,0,0,1,.469.7L.256,1.676A.419.419,0,0,1,.021,1.748Z" transform="translate(0.4 0.4)"/>
      <path id="선_377" data-name="선 377" d="M.021,1.748A.421.421,0,0,1-.214.977L1.731-.329a.421.421,0,0,1,.469.7L.256,1.676A.419.419,0,0,1,.021,1.748Z" transform="translate(1.108 1.455)"/>
      <path id="선_378" data-name="선 378" d="M.021,1.748A.421.421,0,0,1-.214.977L1.731-.329a.421.421,0,0,1,.469.7L.256,1.676A.419.419,0,0,1,.021,1.748Z" transform="translate(1.817 2.511)"/>
    </g>
    <path id="선_379" data-name="선 379" d="M17.66.442H.021a.421.421,0,0,1,0-.842H17.66a.421.421,0,1,1,0,.842Z" transform="translate(0.432 15.561)"/>
  </g>
</svg>
