<svg id="그룹_2738" data-name="그룹 2738" xmlns="http://www.w3.org/2000/svg" width="43.158" height="43.158" viewBox="0 0 43.158 43.158">
  <path id="패스_10848" data-name="패스 10848" d="M21.579,0A21.579,21.579,0,1,1,0,21.579,21.579,21.579,0,0,1,21.579,0Z" transform="translate(0 0)" fill="#efefef"/>
  <g id="그룹_1802" data-name="그룹 1802" transform="translate(9.109 13.318)">
    <path id="패스_10866" data-name="패스 10866" d="M786.512,512.055h24.1a.421.421,0,0,1,.421.421v8.675a.421.421,0,0,1-.421.421h-3.594a.421.421,0,0,1-.41-.324l-1.02-4.3H791.6l-1.02,4.3a.421.421,0,0,1-.41.324h-3.659a.421.421,0,0,1-.421-.421v-8.675A.421.421,0,0,1,786.512,512.055Zm23.675.842H786.933v7.833h2.9l1.02-4.3a.421.421,0,0,1,.41-.324h14.651a.421.421,0,0,1,.41.324l1.02,4.3h2.84Z" transform="translate(-786.091 -505.051)"/>
    <path id="패스_10867" data-name="패스 10867" d="M810.121,507.79a.421.421,0,0,1-.421-.421v-6.583H790.044v6.583a.421.421,0,0,1-.842,0v-7a.421.421,0,0,1,.421-.421h20.5a.421.421,0,0,1,.421.421v7A.421.421,0,0,1,810.121,507.79Z" transform="translate(-787.402 -499.944)"/>
    <g id="그룹_1801" data-name="그룹 1801" transform="translate(5.055 2.988)">
      <path id="사각형_2059" data-name="사각형 2059" d="M.021-.4H6.543a.421.421,0,0,1,.421.421V4.037a.421.421,0,0,1-.421.421H.021A.421.421,0,0,1-.4,4.037V.021A.421.421,0,0,1,.021-.4Zm6.1.842H.442V3.616h5.68Z" transform="translate(0.4 0.4)"/>
      <path id="사각형_2060" data-name="사각형 2060" d="M.021-.4H6.543a.421.421,0,0,1,.421.421V4.037a.421.421,0,0,1-.421.421H.021A.421.421,0,0,1-.4,4.037V.021A.421.421,0,0,1,.021-.4Zm6.1.842H.442V3.616h5.68Z" transform="translate(7.865 0.4)"/>
    </g>
  </g>
</svg>
