<svg id="그룹_2745" data-name="그룹 2745" xmlns="http://www.w3.org/2000/svg" width="43.158" height="43.158" viewBox="0 0 43.158 43.158">
  <path id="패스_10878" data-name="패스 10878" d="M21.579,0A21.579,21.579,0,1,1,0,21.579,21.579,21.579,0,0,1,21.579,0Z" transform="translate(0 0)" fill="#efefef"/>
  <g id="그룹_1818" data-name="그룹 1818" transform="translate(13.526 11.421)">
    <path id="패스_10528" data-name="패스 10528" d="M411.466,307.945a1.008,1.008,0,0,0-.678-.272h-1l-.059-1a2.021,2.021,0,0,0-.544-1.521,1.029,1.029,0,0,0-.723-.264c-.555.014-1.16.021-1.43.015l-.093-1.107a2.4,2.4,0,0,0-.913-1.535c-1.185-1-3.229-1.374-6.079-1.106l-.452-1.183a1.115,1.115,0,0,0,.845-.09,1.079,1.079,0,0,0,.428-1.388l-1.786-4.8a1.534,1.534,0,0,0-.851-1.036,1.305,1.305,0,0,0-.932.033,2.223,2.223,0,0,0-1.626-.452,1.877,1.877,0,0,0-1.508.8,1.791,1.791,0,0,0-.068,1.449l2.381,7.651v8.99h15.479v-2.064A1.484,1.484,0,0,0,411.466,307.945Zm-17.058-14.7a1.513,1.513,0,0,1,1.213-.6,1.8,1.8,0,0,1,1.392.432l.108.113.137-.078a.959.959,0,0,1,.728-.071,1.171,1.171,0,0,1,.614.794l1.791,4.812a.663.663,0,0,1-.793.944,1.041,1.041,0,0,1-.528-.724l-.383.121c0,.015.011.026.016.039h0l.841,2.2-2.828.648-2.341-7.518A1.4,1.4,0,0,1,394.408,293.245Zm2.369,17.483v-8.458l3.067-.7c3.484-.35,5.133.343,5.905.987a2.017,2.017,0,0,1,.787,1.27l.578,6.9Zm14.674,0h-3.934l-.454-5.419c.265.008.7,0,1.422-.021a.617.617,0,0,1,.432.165,1.681,1.681,0,0,1,.407,1.234l.082,1.388H410.8a.585.585,0,0,1,.391.163,1.11,1.11,0,0,1,.262.828Z" transform="translate(-393.709 -292.068)"/>
    <path id="패스_10528_-_윤곽선" data-name="패스 10528 - 윤곽선" d="M411.861,311.3H396.383a.158.158,0,0,1-.158-.158v-8.966l-2.374-7.625a1.93,1.93,0,0,1,.082-1.579,2.021,2.021,0,0,1,1.623-.875,2.046,2.046,0,0,1,.271-.016,2.318,2.318,0,0,1,1.408.445,1.585,1.585,0,0,1,.5-.084,1.292,1.292,0,0,1,.459.082,1.682,1.682,0,0,1,.945,1.133l1.783,4.79a1.23,1.23,0,0,1-.5,1.583,1.319,1.319,0,0,1-.618.158h-.056l.309.81c.556-.049,1.088-.074,1.581-.074a6.893,6.893,0,0,1,4.495,1.228,2.539,2.539,0,0,1,.969,1.645l.081.962c.305,0,.809-.005,1.276-.017l.052,0a1.21,1.21,0,0,1,.784.3,2.165,2.165,0,0,1,.6,1.635l.05.849h.861a1.163,1.163,0,0,1,.779.315,1.632,1.632,0,0,1,.437,1.235v2.064A.158.158,0,0,1,411.861,311.3Zm-15.321-.316H411.7v-1.906a1.336,1.336,0,0,0-.338-1.006.855.855,0,0,0-.564-.229h-1.007a.158.158,0,0,1-.158-.149l-.059-1a1.882,1.882,0,0,0-.491-1.411.889.889,0,0,0-.576-.226h-.039c-.556.014-1.165.021-1.437.016a.158.158,0,0,1-.154-.145l-.093-1.107a2.244,2.244,0,0,0-.858-1.428,6.6,6.6,0,0,0-4.291-1.153c-.519,0-1.082.028-1.671.083a.158.158,0,0,1-.162-.1l-.452-1.183a.158.158,0,0,1,.2-.206.807.807,0,0,0,.253.04,1.014,1.014,0,0,0,.461-.116l.006,0a.922.922,0,0,0,.357-1.188l0-.005-1.786-4.8a1.392,1.392,0,0,0-.759-.943.976.976,0,0,0-.348-.062,1.3,1.3,0,0,0-.47.094.158.158,0,0,1-.162-.028,1.967,1.967,0,0,0-1.273-.427,1.746,1.746,0,0,0-.224.012H395.6a1.732,1.732,0,0,0-1.39.722,1.643,1.643,0,0,0-.06,1.306.157.157,0,0,1,.006.017l2.381,7.651a.158.158,0,0,1,.007.047Zm14.919-.086h-3.934a.158.158,0,0,1-.157-.145l-.454-5.419a.158.158,0,0,1,.043-.122.16.16,0,0,1,.119-.049l.2,0c.262,0,.649-.009,1.184-.023h.056a.805.805,0,0,1,.514.206,1.827,1.827,0,0,1,.461,1.349l.073,1.234h1.243a.752.752,0,0,1,.5.207,1.256,1.256,0,0,1,.311.943v1.661A.158.158,0,0,1,411.459,310.893Zm-3.788-.316H411.3v-1.5a.968.968,0,0,0-.213-.714.428.428,0,0,0-.278-.12h-1.395a.158.158,0,0,1-.158-.149l-.082-1.388a1.552,1.552,0,0,0-.353-1.125.487.487,0,0,0-.306-.128h-.048c-.581.014-.957.023-1.224.023Zm-.549.316H396.785a.158.158,0,0,1-.158-.158v-8.458a.158.158,0,0,1,.123-.154l3.067-.7.019,0c.627-.063,1.224-.095,1.776-.095,2.4,0,3.636.608,4.247,1.118a2.16,2.16,0,0,1,.844,1.378l.578,6.9a.158.158,0,0,1-.157.171Zm-10.179-.316H406.95l-.563-6.733a1.863,1.863,0,0,0-.731-1.162c-.571-.476-1.736-1.044-4.044-1.044-.538,0-1.121.031-1.734.092l-2.934.672Zm-.222-8.54a.158.158,0,0,1-.151-.111l-2.341-7.519h0a1.541,1.541,0,0,1,.051-1.236,1.658,1.658,0,0,1,1.331-.681h0a1.777,1.777,0,0,1,.211-.011,1.833,1.833,0,0,1,1.312.49l.023.025.03-.017h0a1.191,1.191,0,0,1,.544-.138.9.9,0,0,1,.318.056,1.318,1.318,0,0,1,.708.891l1.789,4.807a.835.835,0,0,1-.326,1.084h0a.915.915,0,0,1-.419.108.709.709,0,0,1-.251-.045,1.076,1.076,0,0,1-.571-.675l-.079.025.8,2.085a.158.158,0,0,1-.112.21l-2.828.648A.156.156,0,0,1,396.72,302.037Zm-2.2-7.738.005.015,2.3,7.379,2.508-.575-.776-2.032a.153.153,0,0,1-.007-.024c0-.008-.006-.016-.009-.025a.158.158,0,0,1,.1-.2l.383-.121a.158.158,0,0,1,.2.1.917.917,0,0,0,.434.624.4.4,0,0,0,.139.024.606.606,0,0,0,.265-.067l0,0c.369-.2.2-.642.182-.692l-1.792-4.816a1.038,1.038,0,0,0-.522-.7.583.583,0,0,0-.206-.036.913.913,0,0,0-.387.1h0l-.137.078a.158.158,0,0,1-.192-.028l-.108-.113a1.7,1.7,0,0,0-1.255-.385h0a1.374,1.374,0,0,0-1.095.528A1.251,1.251,0,0,0,394.525,294.3Z" transform="translate(-393.717 -292.076)"/>
  </g>
</svg>
