<svg id="그룹_2754" data-name="그룹 2754" xmlns="http://www.w3.org/2000/svg" width="43.158" height="43.158" viewBox="0 0 43.158 43.158">
  <path id="패스_10841" data-name="패스 10841" d="M147.535,175.1a21.579,21.579,0,1,1-21.579,21.579A21.579,21.579,0,0,1,147.535,175.1Z" transform="translate(-125.956 -175.097)" fill="#ffcd40"/>
  <g id="그룹_2718" data-name="그룹 2718" transform="translate(10.632 12.463)">
    <path id="패스_12296" data-name="패스 12296" d="M698.971,323.108H680.212a1.787,1.787,0,0,1-1.568-1.941v-1.879a.421.421,0,0,1,.421-.421h21.053a.421.421,0,0,1,.421.421v1.879A1.787,1.787,0,0,1,698.971,323.108Zm-19.485-3.4v1.458c0,.6.333,1.1.726,1.1h18.759c.393,0,.725-.5.725-1.1v-1.458Z" transform="translate(-678.644 -307.863)"/>
    <path id="패스_12297" data-name="패스 12297" d="M700.118,313.093H679.065a.421.421,0,0,1-.421-.421v-8.726a.421.421,0,1,1,.842,0v8.3H699.7v-8.3a.421.421,0,1,1,.842,0v8.726A.421.421,0,0,1,700.118,313.093Z" transform="translate(-678.644 -301.246)"/>
    <path id="패스_12298" data-name="패스 12298" d="M700.118,302.989a.421.421,0,0,1-.421-.421v-1.132a.726.726,0,0,0-.725-.725H680.212a.727.727,0,0,0-.726.725v1.132a.421.421,0,1,1-.842,0v-1.132a1.57,1.57,0,0,1,1.568-1.568h18.759a1.569,1.569,0,0,1,1.568,1.568v1.132A.421.421,0,0,1,700.118,302.989Z" transform="translate(-678.644 -299.868)"/>
    <g id="그룹_2717" data-name="그룹 2717" transform="translate(9.973 14.658)">
      <path id="선_389" data-name="선 389" d="M.021,3.175A.421.421,0,0,1-.4,2.754V.021a.421.421,0,0,1,.842,0V2.754A.421.421,0,0,1,.021,3.175Z" transform="translate(1.508 0.4)"/>
      <path id="선_390" data-name="선 390" d="M.021,3.175A.421.421,0,0,1-.4,2.754V.021a.421.421,0,0,1,.842,0V2.754A.421.421,0,0,1,.021,3.175Z" transform="translate(0.4 0.4)"/>
    </g>
    <path id="선_391" data-name="선 391" d="M12.487.442H.021a.421.421,0,0,1,0-.842H12.487a.421.421,0,1,1,0,.842Z" transform="translate(4.693 17.79)"/>
    <circle id="타원_464" data-name="타원 464" cx="0.553" cy="0.553" r="0.553" transform="translate(10.394 12.571)" fill="#38383b"/>
    <path id="타원_464_-_윤곽선" data-name="타원 464 - 윤곽선" d="M.574-.4A.974.974,0,1,1-.4.574.976.976,0,0,1,.574-.4Z" transform="translate(10.373 12.55)"/>
  </g>
</svg>
