<svg id="그룹_2735" data-name="그룹 2735" xmlns="http://www.w3.org/2000/svg" width="43.158" height="43.158" viewBox="0 0 43.158 43.158">
  <path id="패스_10848" data-name="패스 10848" d="M21.579,0A21.579,21.579,0,1,1,0,21.579,21.579,21.579,0,0,1,21.579,0Z" transform="translate(0 0)" fill="#ffcd40"/>
  <path id="패스_10849" data-name="패스 10849" d="M674.849,260.005H658.266a1.26,1.26,0,0,0-1.258,1.259v10.518a1.26,1.26,0,0,0,1.258,1.259h7.444v1.682l-4.736.579a.194.194,0,0,0-.171.192v.707a.2.2,0,0,0,.195.195h11.119a.2.2,0,0,0,.194-.195v-.707a.193.193,0,0,0-.171-.192l-4.735-.579v-1.682h7.444a1.26,1.26,0,0,0,1.259-1.259V261.264A1.26,1.26,0,0,0,674.849,260.005Zm.793,11.777a.794.794,0,0,1-.793.793H658.266a.794.794,0,0,1-.793-.793V261.264a.8.8,0,0,1,.793-.793h16.583a.794.794,0,0,1,.793.793Z" transform="translate(-645.429 -246.321)"/>
  <path id="패스_10849_-_윤곽선" data-name="패스 10849 - 윤곽선" d="M658.274,259.855h16.583a1.419,1.419,0,0,1,1.417,1.417v10.518a1.419,1.419,0,0,1-1.417,1.417h-7.286v1.384l4.6.562a.351.351,0,0,1,.309.349v.707a.353.353,0,0,1-.352.352H661.006a.353.353,0,0,1-.352-.352V275.5a.352.352,0,0,1,.31-.349l4.6-.562v-1.384h-7.286a1.418,1.418,0,0,1-1.416-1.417V261.272A1.418,1.418,0,0,1,658.274,259.855Zm16.583,13.036a1.1,1.1,0,0,0,1.1-1.1V261.272a1.1,1.1,0,0,0-1.1-1.1H658.274a1.1,1.1,0,0,0-1.1,1.1v10.518a1.1,1.1,0,0,0,1.1,1.1h7.6v1.98l-4.875.6a.036.036,0,0,0-.032.036v.707a.037.037,0,0,0,.037.037h11.119a.037.037,0,0,0,.036-.037V275.5a.036.036,0,0,0-.031-.035l-4.875-.6v-1.98Zm-16.583-12.57h16.583a.952.952,0,0,1,.951.951v10.518a.952.952,0,0,1-.951.951H658.274a.952.952,0,0,1-.951-.951V261.272A.952.952,0,0,1,658.274,260.321Zm16.583,12.1a.636.636,0,0,0,.635-.635V261.272a.636.636,0,0,0-.635-.635H658.274a.636.636,0,0,0-.636.635v10.518a.636.636,0,0,0,.636.635Z" transform="translate(-645.437 -246.329)"/>
</svg>
