<svg id="그룹_2746" data-name="그룹 2746" xmlns="http://www.w3.org/2000/svg" width="43.158" height="43.158" viewBox="0 0 43.158 43.158">
  <path id="패스_10868" data-name="패스 10868" d="M21.579,0A21.579,21.579,0,1,1,0,21.579,21.579,21.579,0,0,1,21.579,0Z" transform="translate(0 0)" fill="#efefef"/>
  <g id="그룹_2721" data-name="그룹 2721" transform="translate(10.734 14.008)">
    <g id="그룹_2720" data-name="그룹 2720" transform="translate(0 0)">
      <path id="타원_466" data-name="타원 466" d="M6.075-.4A6.475,6.475,0,1,1-.4,6.075,6.482,6.482,0,0,1,6.075-.4Zm0,12.108A5.633,5.633,0,1,0,.442,6.075,5.639,5.639,0,0,0,6.075,11.708Z" transform="translate(5.241 2.921)"/>
      <path id="타원_467" data-name="타원 467" d="M4.3-.4A4.7,4.7,0,1,1-.4,4.3,4.707,4.707,0,0,1,4.3-.4Zm0,8.561A3.86,3.86,0,1,0,.442,4.3,3.864,3.864,0,0,0,4.3,8.161Z" transform="translate(7.014 4.694)"/>
      <path id="패스_12302" data-name="패스 12302" d="M714.082,356.9h-3.828a.421.421,0,0,1-.421-.421v-5.6a.421.421,0,0,1,.842,0v5.184h2.986v-5.184a.421.421,0,0,1,.842,0v5.6A.421.421,0,0,1,714.082,356.9Z" transform="translate(-709.833 -350.446)"/>
      <path id="선_396" data-name="선 396" d="M.021,15.708A.421.421,0,0,1-.4,15.287V.021a.421.421,0,0,1,.842,0V15.287A.421.421,0,0,1,.021,15.708Z" transform="translate(2.314 0.41)"/>
      <path id="선_397" data-name="선 397" d="M.021,15.071A.421.421,0,0,1-.4,14.65V.021a.421.421,0,0,1,.842,0V14.65A.421.421,0,0,1,.021,15.071Z" transform="translate(21.494 0.4)"/>
      <path id="패스_12303" data-name="패스 12303" d="M735.412,358.934a.421.421,0,0,1-.42-.4,11.509,11.509,0,0,1,2.3-7.535l.3-.371a.421.421,0,1,1,.659.524l-.3.371a10.645,10.645,0,0,0-2.117,6.971.421.421,0,0,1-.4.441Z" transform="translate(-716.461 -350.449)"/>
      <path id="선_398" data-name="선 398" d="M2.584.442H.021a.421.421,0,0,1,0-.842H2.584a.421.421,0,0,1,0,.842Z" transform="translate(18.931 8.043)"/>
    </g>
  </g>
</svg>
