<svg id="그룹_2747" data-name="그룹 2747" xmlns="http://www.w3.org/2000/svg" width="43.158" height="43.158" viewBox="0 0 43.158 43.158">
  <g id="그룹_1775" data-name="그룹 1775" transform="translate(0 0)">
    <path id="패스_10844" data-name="패스 10844" d="M21.579,0A21.579,21.579,0,1,1,0,21.579,21.579,21.579,0,0,1,21.579,0Z" transform="translate(0 0)" fill="#efefef"/>
  </g>
  <g id="그룹_2730" data-name="그룹 2730" transform="translate(8.263 12.474)">
    <g id="그룹_2729" data-name="그룹 2729" transform="translate(0)">
      <path id="패스_12305" data-name="패스 12305" d="M725.708,450.91v-2.782H725.7v2.74C725.7,450.884,725.707,450.9,725.708,450.91Z" transform="translate(-717.481 -437.653)"/>
      <path id="패스_12305_-_윤곽선" data-name="패스 12305 - 윤곽선" d="M725.562,450.946a.233.233,0,0,1-.012-.07v-2.9h.324v2.94l-.315.012A.081.081,0,0,0,725.562,450.946Z" transform="translate(-717.489 -437.661)"/>
      <path id="패스_12306" data-name="패스 12306" d="M725.746,450.958a1.031,1.031,0,0,0,.034.155h.1Z" transform="translate(-717.479 -437.504)"/>
      <path id="패스_12306_-_윤곽선" data-name="패스 12306 - 윤곽선" d="M725.875,450.862l.346.414h-.539l-.041-.1a.544.544,0,0,1-.033-.133c0-.015,0-.031-.008-.046Z" transform="translate(-717.486 -437.509)"/>
      <path id="패스_12307" data-name="패스 12307" d="M725.05,448.644h-5.976a.65.65,0,0,1-.651-.652v-8.631a.651.651,0,0,1,.651-.651h13.611a.652.652,0,0,1,.6.4h.382a1.02,1.02,0,0,0-.981-.781H719.075a1.035,1.035,0,0,0-1.033,1.034v8.631a1.034,1.034,0,0,0,1.033,1.034h5.976Z" transform="translate(-717.884 -438.169)"/>
      <path id="패스_12307_-_윤곽선" data-name="패스 12307 - 윤곽선" d="M725.216,449.192h-6.134A1.194,1.194,0,0,1,717.892,448v-8.632a1.194,1.194,0,0,1,1.19-1.192H732.7a1.184,1.184,0,0,1,1.134.9l.051.2h-.691l-.041-.1a.493.493,0,0,0-.455-.3H719.083a.494.494,0,0,0-.493.493V448a.494.494,0,0,0,.493.494h6.134Zm-6.134-10.7a.877.877,0,0,0-.875.876V448a.878.878,0,0,0,.875.876H724.9v-.066h-5.818a.81.81,0,0,1-.809-.809v-8.632a.811.811,0,0,1,.808-.808h13.612a.808.808,0,0,1,.7.4h.057a.845.845,0,0,0-.753-.465Z" transform="translate(-717.892 -438.177)"/>
      <path id="패스_12308" data-name="패스 12308" d="M724.895,450.78v-.963l-3.757.459a.159.159,0,0,0-.14.158v.58a.159.159,0,0,0,.16.159h3.777A2.01,2.01,0,0,1,724.895,450.78Z" transform="translate(-717.729 -437.564)"/>
      <path id="패스_12308_-_윤곽선" data-name="패스 12308 - 윤곽선" d="M725.135,451.34h-3.969a.318.318,0,0,1-.318-.317v-.58a.317.317,0,0,1,.279-.315l3.933-.48v1.142a1.839,1.839,0,0,0,.037.362Zm-.39-1.335-3.58.437v.581h3.594a2.043,2.043,0,0,1-.013-.235Z" transform="translate(-717.736 -437.573)"/>
    </g>
    <path id="패스_10847" data-name="패스 10847" d="M742.824,439.855H726.71a1.224,1.224,0,0,0-1.223,1.223V451.3a1.223,1.223,0,0,0,1.223,1.223h7.234v1.635l-4.6.562a.188.188,0,0,0-.166.187v.687a.189.189,0,0,0,.19.189H740.17a.189.189,0,0,0,.188-.189V454.9a.189.189,0,0,0-.165-.187l-4.6-.562v-1.635h7.234a1.224,1.224,0,0,0,1.223-1.223v-10.22A1.226,1.226,0,0,0,742.824,439.855Zm.771,11.444a.772.772,0,0,1-.771.771H726.71a.771.771,0,0,1-.771-.771v-10.22a.773.773,0,0,1,.771-.771h16.114a.772.772,0,0,1,.771.771Z" transform="translate(-717.492 -438.089)"/>
    <path id="패스_10847_-_윤곽선" data-name="패스 10847 - 윤곽선" d="M726.718,439.705h16.114a1.386,1.386,0,0,1,1.382,1.377V451.3a1.384,1.384,0,0,1-1.381,1.381h-7.076v1.337l4.463.545a.347.347,0,0,1,.3.344v.691a.347.347,0,0,1-.346.347H729.373a.348.348,0,0,1-.347-.347v-.687a.347.347,0,0,1,.305-.344l4.463-.545v-1.337h-7.076a1.383,1.383,0,0,1-1.381-1.381v-10.22A1.384,1.384,0,0,1,726.718,439.705Zm16.115,12.663A1.068,1.068,0,0,0,743.9,451.3v-10.22a1.069,1.069,0,0,0-1.066-1.062H726.718a1.068,1.068,0,0,0-1.065,1.065v10.22a1.066,1.066,0,0,0,1.065,1.065h7.391V454.3l-4.741.579a.03.03,0,0,0-.028.031v.687a.031.031,0,0,0,.031.032h10.805a.031.031,0,0,0,.031-.032v-.691a.031.031,0,0,0-.027-.031l-4.741-.579v-1.932Zm-16.115-12.209h16.114a.933.933,0,0,1,.928.928v10.22a.931.931,0,0,1-.928.928H726.718a.929.929,0,0,1-.928-.928v-10.22A.933.933,0,0,1,726.718,440.159Zm16.114,11.761a.615.615,0,0,0,.613-.613v-10.22a.616.616,0,0,0-.613-.613H726.718a.616.616,0,0,0-.613.613v10.22a.613.613,0,0,0,.613.613Z" transform="translate(-717.5 -438.097)"/>
  </g>
</svg>
