<svg id="그룹_2751" data-name="그룹 2751" xmlns="http://www.w3.org/2000/svg" width="43.158" height="43.158" viewBox="0 0 43.158 43.158">
  <path id="패스_10841" data-name="패스 10841" d="M21.579,0A21.579,21.579,0,1,1,0,21.579,21.579,21.579,0,0,1,21.579,0Z" transform="translate(0 0)" fill="#efefef"/>
  <g id="그룹_2706" data-name="그룹 2706" transform="translate(12.211 13.263)">
    <path id="패스_12286" data-name="패스 12286" d="M680.781,437.077h0a6.868,6.868,0,1,1-6.869,6.868A6.888,6.888,0,0,1,680.782,437.077Zm0,12.894a6.026,6.026,0,1,0-6.026-6.026A6.032,6.032,0,0,0,680.781,449.971Zm0-11.113a1.885,1.885,0,1,1-1.885,1.884A1.886,1.886,0,0,1,680.781,438.858Zm0,2.927a1.042,1.042,0,1,0-1.043-1.043A1.044,1.044,0,0,0,680.781,441.785Zm-3.2.276a1.885,1.885,0,1,1-1.885,1.885A1.887,1.887,0,0,1,677.578,442.061Zm0,2.927a1.042,1.042,0,1,0-1.043-1.042A1.043,1.043,0,0,0,677.578,444.988Zm6.406-2.926a1.884,1.884,0,0,1,.028,3.768h-.028a1.885,1.885,0,1,1,0-3.769Zm-.021,2.927h.021a1.008,1.008,0,1,0-.021,0Zm-3.183.276a1.885,1.885,0,1,1-1.885,1.885A1.887,1.887,0,0,1,680.781,445.265Zm0,2.927a1.042,1.042,0,1,0-1.043-1.042A1.043,1.043,0,0,0,680.781,448.192Z" transform="translate(-672.525 -435.69)"/>
    <path id="타원_390" data-name="타원 390" d="M7.856-.4A8.256,8.256,0,1,1-.4,7.856,8.265,8.265,0,0,1,7.856-.4Zm0,15.67A7.414,7.414,0,1,0,.442,7.856,7.422,7.422,0,0,0,7.856,15.27Z" transform="translate(0.4 0.4)"/>
    <path id="선_291" data-name="선 291" d="M11.587.442H.021a.421.421,0,0,1,0-.842H11.587a.421.421,0,0,1,0,.842Z" transform="translate(8.235 16.069)"/>
  </g>
</svg>
