<svg id="그룹_2736" data-name="그룹 2736" xmlns="http://www.w3.org/2000/svg" width="43.158" height="43.158" viewBox="0 0 43.158 43.158">
  <path id="패스_10848" data-name="패스 10848" d="M21.579,0A21.579,21.579,0,1,1,0,21.579,21.579,21.579,0,0,1,21.579,0Z" transform="translate(0 0)" fill="#ffcd40"/>
  <g id="그룹_1770" data-name="그룹 1770" transform="translate(11.158 12.21)">
    <g id="그룹_1766" data-name="그룹 1766" transform="translate(0 0)">
      <g id="그룹_1765" data-name="그룹 1765" transform="translate(0 3.257)">
        <g id="그룹_1764" data-name="그룹 1764" transform="translate(0 0)">
          <path id="패스_10850" data-name="패스 10850" d="M750.044,283.369a.885.885,0,0,1-.729-.385l-8.263-12.163a.882.882,0,0,1,.49-1.345l8.968-2.523a.89.89,0,0,1,.788.159.879.879,0,0,1,.331.734l-.707,14.683a.878.878,0,0,1-.643.807A.9.9,0,0,1,750.044,283.369Zm.707-15.607-.013,0-8.967,2.523a.042.042,0,0,0-.027.026.038.038,0,0,0,.005.035l8.262,12.162a.042.042,0,0,0,.033.018l.015,0a.037.037,0,0,0,.025-.034l.707-14.687a.039.039,0,0,0-.039-.041Z" transform="translate(-740.9 -266.92)"/>
        </g>
      </g>
      <path id="선_187" data-name="선 187" d="M.612,2.632A.421.421,0,0,1,.205,2.32L-.385.131A.421.421,0,1,1,.428-.089L1.018,2.1a.421.421,0,0,1-.407.531Z" transform="translate(3.956 0.4)"/>
      <path id="선_188" data-name="선 188" d="M.021,2.408a.419.419,0,0,1-.209-.056.421.421,0,0,1-.155-.575L.787-.189a.421.421,0,1,1,.73.42L.386,2.2A.421.421,0,0,1,.021,2.408Z" transform="translate(6.356 0.512)"/>
      <path id="선_189" data-name="선 189" d="M1.987,1.573a.419.419,0,0,1-.209-.056L-.189.386a.421.421,0,1,1,.42-.73L2.2.787a.421.421,0,0,1-.21.786Z" transform="translate(1.091 2.455)"/>
    </g>
    <g id="그룹_1769" data-name="그룹 1769" transform="translate(11.517 6.525)">
      <g id="그룹_1768" data-name="그룹 1768" transform="translate(0 1.565)">
        <g id="그룹_1767" data-name="그룹 1767" transform="translate(0 0)">
          <path id="패스_10851" data-name="패스 10851" d="M751.977,282.394a.731.731,0,0,1-.356-.092l-.009-.005a.778.778,0,0,1-.149-.115.731.731,0,0,1-.2-.652l1.847-9.674a.732.732,0,0,1,1.072-.5l5.445,3.053a.73.73,0,0,1,.13,1.179l-7.286,6.618A.729.729,0,0,1,751.977,282.394Zm1.928-10.228-1.754,9.189,6.925-6.29Z" transform="translate(-751.248 -271.263)"/>
        </g>
      </g>
      <path id="선_190" data-name="선 190" d="M.021,1.759A.419.419,0,0,1-.189,1.7a.421.421,0,0,1-.155-.575L.413-.189a.421.421,0,0,1,.73.42L.386,1.548A.421.421,0,0,1,.021,1.759Z" transform="translate(6.219 0.784)"/>
      <path id="선_191" data-name="선 191" d="M.021.838A.421.421,0,0,1-.089.01l1.466-.4A.421.421,0,0,1,1.6.428L.131.823A.422.422,0,0,1,.021.838Z" transform="translate(7.129 2.509)"/>
      <path id="선_192" data-name="선 192" d="M.417,1.909A.421.421,0,0,1,.01,1.6L-.385.131A.421.421,0,1,1,.428-.089l.4,1.466a.421.421,0,0,1-.407.531Z" transform="translate(4.646 0.4)"/>
    </g>
    <path id="선_193" data-name="선 193" d="M.021,5.633a.421.421,0,0,1-.345-.179.421.421,0,0,1,.1-.587L7.152-.323a.421.421,0,1,1,.485.689L.263,5.556A.419.419,0,0,1,.021,5.633Z" transform="translate(2.865 5.219)"/>
    <path id="선_194" data-name="선 194" d="M.021,3.557A.421.421,0,0,1-.2,2.778L4.806-.336a.421.421,0,1,1,.445.715L.243,3.493A.419.419,0,0,1,.021,3.557Z" transform="translate(4.98 10.41)"/>
  </g>
</svg>
