<svg id="그룹_2757" data-name="그룹 2757" xmlns="http://www.w3.org/2000/svg" width="43.158" height="43.158" viewBox="0 0 43.158 43.158">
  <path id="패스_10878" data-name="패스 10878" d="M21.579,0A21.579,21.579,0,1,1,0,21.579,21.579,21.579,0,0,1,21.579,0Z" transform="translate(0 0)" fill="#efefef"/>
  <g id="그룹_2756" data-name="그룹 2756" transform="translate(12.279 12.632)">
    <path id="패스_10879" data-name="패스 10879" d="M694.207,441H676.451a.421.421,0,0,1-.421-.421V438.2a.421.421,0,0,1,.421-.421h17.756a.421.421,0,0,1,.421.421v2.382A.421.421,0,0,1,694.207,441Zm-17.335-.842h16.914v-1.54H676.872Z" transform="translate(-676.03 -436.029)"/>
    <path id="패스_10880" data-name="패스 10880" d="M694.207,455.218H676.451a.421.421,0,0,1-.421-.421V441.7a.421.421,0,1,1,.842,0v12.681h16.914V441.7a.421.421,0,1,1,.842,0v13.1A.421.421,0,0,1,694.207,455.218Z" transform="translate(-676.03 -437.142)"/>
    <path id="선_399" data-name="선 399" d="M1.374.442H.021a.421.421,0,0,1,0-.842H1.374a.421.421,0,0,1,0,.842Z" transform="translate(3.255 6.959)"/>
    <path id="선_400" data-name="선 400" d="M1.374.442H.021a.421.421,0,0,1,0-.842H1.374a.421.421,0,0,1,0,.842Z" transform="translate(6.818 6.959)"/>
    <path id="선_401" data-name="선 401" d="M1.374.442H.021a.421.421,0,0,1,0-.842H1.374a.421.421,0,0,1,0,.842Z" transform="translate(10.381 6.959)"/>
    <path id="선_402" data-name="선 402" d="M1.374.442H.021a.421.421,0,0,1,0-.842H1.374a.421.421,0,0,1,0,.842Z" transform="translate(13.948 6.959)"/>
    <path id="선_403" data-name="선 403" d="M1.374.442H.021a.421.421,0,0,1,0-.842H1.374a.421.421,0,0,1,0,.842Z" transform="translate(3.257 9.709)"/>
    <path id="선_404" data-name="선 404" d="M1.374.442H.021a.421.421,0,0,1,0-.842H1.374a.421.421,0,0,1,0,.842Z" transform="translate(6.82 9.709)"/>
    <path id="선_405" data-name="선 405" d="M1.374.442H.021a.421.421,0,0,1,0-.842H1.374a.421.421,0,0,1,0,.842Z" transform="translate(10.383 9.709)"/>
    <path id="선_406" data-name="선 406" d="M1.374.442H.021a.421.421,0,0,1,0-.842H1.374a.421.421,0,0,1,0,.842Z" transform="translate(13.947 9.709)"/>
    <path id="선_407" data-name="선 407" d="M1.374.442H.021a.421.421,0,0,1,0-.842H1.374a.421.421,0,0,1,0,.842Z" transform="translate(3.259 12.458)"/>
    <path id="선_408" data-name="선 408" d="M1.374.442H.021a.421.421,0,0,1,0-.842H1.374a.421.421,0,0,1,0,.842Z" transform="translate(6.822 12.458)"/>
    <path id="선_409" data-name="선 409" d="M1.374.442H.021a.421.421,0,0,1,0-.842H1.374a.421.421,0,0,1,0,.842Z" transform="translate(10.385 12.458)"/>
    <path id="선_410" data-name="선 410" d="M1.374.442H.021a.421.421,0,0,1,0-.842H1.374a.421.421,0,0,1,0,.842Z" transform="translate(13.948 12.458)"/>
    <path id="선_411" data-name="선 411" d="M1.374.442H.021a.421.421,0,0,1,0-.842H1.374a.421.421,0,0,1,0,.842Z" transform="translate(3.261 15.208)"/>
    <path id="선_412" data-name="선 412" d="M1.374.442H.021a.421.421,0,0,1,0-.842H1.374a.421.421,0,0,1,0,.842Z" transform="translate(6.824 15.208)"/>
    <path id="선_413" data-name="선 413" d="M1.374.442H.021a.421.421,0,0,1,0-.842H1.374a.421.421,0,0,1,0,.842Z" transform="translate(10.387 15.208)"/>
    <g id="그룹_2755" data-name="그룹 2755" transform="translate(3.021 0)">
      <path id="선_414" data-name="선 414" d="M.021,3.1A.421.421,0,0,1-.4,2.679V.021a.421.421,0,0,1,.842,0V2.679A.421.421,0,0,1,.021,3.1Z" transform="translate(0.4 0.4)"/>
      <path id="선_415" data-name="선 415" d="M.021,3.1A.421.421,0,0,1-.4,2.679V.021a.421.421,0,0,1,.842,0V2.679A.421.421,0,0,1,.021,3.1Z" transform="translate(4.309 0.4)"/>
      <path id="선_416" data-name="선 416" d="M.021,3.1A.421.421,0,0,1-.4,2.679V.021a.421.421,0,0,1,.842,0V2.679A.421.421,0,0,1,.021,3.1Z" transform="translate(8.219 0.4)"/>
      <path id="선_417" data-name="선 417" d="M.021,3.1A.421.421,0,0,1-.4,2.679V.021a.421.421,0,0,1,.842,0V2.679A.421.421,0,0,1,.021,3.1Z" transform="translate(12.128 0.4)"/>
    </g>
  </g>
</svg>
