<svg xmlns="http://www.w3.org/2000/svg" width="43.158" height="43.158" viewBox="0 0 43.158 43.158">
  <g id="그룹_2981" data-name="그룹 2981" transform="translate(-119 -227)">
    <g id="그룹_2750" data-name="그룹 2750" transform="translate(119 227)">
      <path id="패스_10837" data-name="패스 10837" d="M21.579,0A21.579,21.579,0,1,1,0,21.579,21.579,21.579,0,0,1,21.579,0Z" transform="translate(0 0)" fill="#efefef"/>
      <g id="그룹_1754" data-name="그룹 1754" transform="translate(13.526 13.526)">
        <path id="패스_10838" data-name="패스 10838" d="M774.687,394.087a8.2,8.2,0,1,1,8.195-8.2A8.2,8.2,0,0,1,774.687,394.087Zm0-15.827a7.632,7.632,0,1,0,7.632,7.632A7.641,7.641,0,0,0,774.687,378.26Z" transform="translate(-766.334 -377.539)"/>
        <path id="패스_10838_-_윤곽선" data-name="패스 10838 - 윤곽선" d="M774.695,394.253a8.353,8.353,0,1,1,8.353-8.353A8.363,8.363,0,0,1,774.695,394.253Zm0-16.39a8.037,8.037,0,1,0,8.037,8.037A8.046,8.046,0,0,0,774.695,377.863Zm0,15.827a7.79,7.79,0,1,1,7.79-7.79A7.8,7.8,0,0,1,774.695,393.69Zm0-15.264a7.474,7.474,0,1,0,7.475,7.474A7.482,7.482,0,0,0,774.695,378.426Z" transform="translate(-766.342 -377.547)"/>
        <circle id="타원_356" data-name="타원 356" cx="1.043" cy="1.043" r="1.043" transform="translate(7.309 7.31)"/>
        <path id="타원_356_-_윤곽선" data-name="타원 356 - 윤곽선" d="M1.051-.15a1.2,1.2,0,1,1-1.2,1.2A1.2,1.2,0,0,1,1.051-.15Zm0,2.087a.886.886,0,1,0-.886-.886A.887.887,0,0,0,1.051,1.937Z" transform="translate(7.301 7.302)"/>
        <path id="패스_10839" data-name="패스 10839" d="M781.756,387.84a.188.188,0,0,1-.188-.188v-6.013a.187.187,0,1,1,.375,0v6.013A.188.188,0,0,1,781.756,387.84Z" transform="translate(-773.403 -379.299)"/>
        <path id="패스_10839_-_윤곽선" data-name="패스 10839 - 윤곽선" d="M781.763,388.006a.346.346,0,0,1-.345-.346v-6.013a.345.345,0,1,1,.691,0v6.013A.346.346,0,0,1,781.763,388.006Zm0-6.389a.03.03,0,0,0-.03.03v6.013a.03.03,0,1,0,.059,0v-6.013A.03.03,0,0,0,781.763,381.617Z" transform="translate(-773.411 -379.307)"/>
        <path id="패스_10840" data-name="패스 10840" d="M781.631,391.409a.329.329,0,0,1-.145-.624l4.054-1.989a.329.329,0,0,1,.29.59l-4.054,1.989A.337.337,0,0,1,781.631,391.409Z" transform="translate(-773.278 -382.727)"/>
        <path id="패스_10840_-_윤곽선" data-name="패스 10840 - 윤곽선" d="M781.639,391.575a.486.486,0,0,1-.215-.923l4.054-1.989a.487.487,0,1,1,.429.874l-4.054,1.989A.5.5,0,0,1,781.639,391.575Zm4.053-2.646a.171.171,0,0,0-.075.018l-4.053,1.989a.17.17,0,0,0-.078.228.172.172,0,0,0,.23.078l4.052-1.988a.171.171,0,0,0-.076-.324Z" transform="translate(-773.286 -382.735)"/>
      </g>
    </g>
    <g id="그룹_2970" data-name="그룹 2970" transform="translate(20.354 -403.752)">
      <g id="그룹_2968" data-name="그룹 2968" transform="translate(113.551 640.889)">
        <path id="패스_12405" data-name="패스 12405" d="M113.847,644.329a.3.3,0,0,1-.223-.493,8.664,8.664,0,0,1,12.935-.1.3.3,0,0,1-.44.4,8.07,8.07,0,0,0-12.049.09A.3.3,0,0,1,113.847,644.329Z" transform="translate(-113.551 -640.889)"/>
      </g>
      <g id="그룹_2969" data-name="그룹 2969" transform="translate(124.276 641.941)">
        <path id="패스_12406" data-name="패스 12406" d="M161.03,648.091a.306.306,0,0,1-.055-.005l-2.029-.384a.3.3,0,0,1,.11-.584l1.677.317v-1.819a.3.3,0,1,1,.594,0v2.178a.3.3,0,0,1-.3.3Z" transform="translate(-158.704 -645.319)"/>
      </g>
    </g>
  </g>
</svg>
