<svg xmlns="http://www.w3.org/2000/svg" xmlns:xlink="http://www.w3.org/1999/xlink" width="32" height="32" viewBox="0 0 32 32">
  <defs>
    <clipPath id="clip-path">
      <rect id="사각형_2161" data-name="사각형 2161" width="32" height="32" transform="translate(196 154)" fill="#ffe8e8"/>
    </clipPath>
  </defs>
  <g id="마스크_그룹_26" data-name="마스크 그룹 26" transform="translate(-196 -154)" clip-path="url(#clip-path)">
    <g id="그룹_2115" data-name="그룹 2115" transform="translate(43.336 -196.222)">
      <path id="패스_10670" data-name="패스 10670" d="M167.912,366.946a7.862,7.862,0,1,1,7.863-7.862,7.863,7.863,0,0,1-7.863,7.862Z" transform="translate(0.584 0)" fill="#707070"/>
      <path id="패스_11911" data-name="패스 11911" d="M168.837,378.837a.776.776,0,0,1-.174-.576v-5.174a.875.875,0,0,1,.825-.923.6.6,0,0,1,.08,0h1.167a1.042,1.042,0,0,1,.668.2,1.078,1.078,0,0,1,.355.555l.44,1.618.425-1.617a1.028,1.028,0,0,1,.3-.509,1.158,1.158,0,0,1,.782-.244h1.1a.891.891,0,0,1,.625.244.822.822,0,0,1,.645-.244h.768a.863.863,0,0,1,.549.172,1.081,1.081,0,0,1,.29.351l.376.732.366-.732a1.02,1.02,0,0,1,.26-.333.946.946,0,0,1,.626-.2h.1c-.734-4.318-2.093-7.216-4.042-8.6a1.569,1.569,0,0,0-1.947.1,7.481,7.481,0,0,1-5.041,1.813,7.229,7.229,0,0,1-4.86-1.717,1.57,1.57,0,0,0-1.954-.083c-4.139,3.028-4.457,12.509-4.479,13.579v.034h0a1.572,1.572,0,0,0,1.571,1.571h10.207Z" transform="translate(0 2.37)" fill="#707070"/>
      <g id="그룹_1659" data-name="그룹 1659" transform="translate(169.264 375.132)">
        <path id="패스_10672" data-name="패스 10672" d="M171.2,371.5a.433.433,0,0,1,.122-.209.464.464,0,0,1,.314-.084h1.153c.2,0,.3.107.3.32v5.236a.161.161,0,0,1-.038.123.2.2,0,0,1-.122.031h-.809a.2.2,0,0,1-.122-.031.16.16,0,0,1-.038-.123v-3.993h-.122l-1.026,3.7a.255.255,0,0,1-.1.166.385.385,0,0,1-.19.038h-.681a.393.393,0,0,1-.191-.038.24.24,0,0,1-.095-.166l-1.046-3.7h-.122v3.993a.165.165,0,0,1-.037.123.192.192,0,0,1-.122.031h-.81a.2.2,0,0,1-.122-.031.161.161,0,0,1-.038-.123v-5.24c0-.212.1-.318.3-.318h1.167a.462.462,0,0,1,.312.084.424.424,0,0,1,.122.209l1.04,3.818Z" transform="translate(-167.261 -371.198)" fill="#707070"/>
        <path id="패스_10673" data-name="패스 10673" d="M175.871,371.392a.409.409,0,0,1,.105-.134.294.294,0,0,1,.2-.057h.822a.192.192,0,0,1,.146.048c.03.031.024.087-.019.169l-1.581,3.065v2.275a.166.166,0,0,1-.037.122.2.2,0,0,1-.122.032h-.816a.185.185,0,0,1-.122-.032.162.162,0,0,1-.038-.122v-2.284L172.8,371.42c-.042-.081-.048-.138-.019-.169a.194.194,0,0,1,.146-.048h.822a.3.3,0,0,1,.194.057.409.409,0,0,1,.105.134l.924,1.8Z" transform="translate(-166.179 -371.199)" fill="#707070"/>
      </g>
    </g>
  </g>
</svg>
