<svg xmlns="http://www.w3.org/2000/svg" xmlns:xlink="http://www.w3.org/1999/xlink" width="32" height="32" viewBox="0 0 32 32">
  <defs>
    <clipPath id="clip-path">
      <rect id="사각형_2161" data-name="사각형 2161" width="32" height="32" transform="translate(160 154)" fill="#ffe8e8"/>
    </clipPath>
  </defs>
  <g id="마스크_그룹_25" data-name="마스크 그룹 25" transform="translate(-160 -154)" clip-path="url(#clip-path)">
    <path id="패스_11930" data-name="패스 11930" d="M197.247,351h-.025a14.988,14.988,0,0,0-14.951,14.529c0,.158-.024.312-.024.47s.018.312.024.47A14.986,14.986,0,0,0,197.222,381h.025a15,15,0,0,0,0-30Zm6.561,11.176L198,374.677a.75.75,0,0,1-.679.433h-.065a.746.746,0,0,1-.659-.553l-1.821-6.8-5.826-3.883a.75.75,0,0,1,.34-1.37l13.763-1.39a.75.75,0,0,1,.751,1.062Z" transform="translate(-21.247 -195.996)" fill="#707070"/>
  </g>
</svg>
