<svg width="22" height="22" viewBox="0 0 22 22" fill="none" xmlns="http://www.w3.org/2000/svg">
<path d="M8.2054 21.4973H0.971986C0.848357 21.4986 0.729228 21.4541 0.64074 21.3735C0.552253 21.2929 0.501641 21.1828 0.5 21.0674V10.351C0.500503 10.2392 0.548208 10.1321 0.632778 10.0528L10.6566 0.625144C10.7487 0.544896 10.8699 0.500244 10.9958 0.500244C11.1218 0.500244 11.243 0.544896 11.3351 0.625144L21.3672 10.048C21.4517 10.1273 21.4994 10.2344 21.5 10.3462V21.0674C21.4978 21.1825 21.447 21.2921 21.3585 21.3722C21.2701 21.4524 21.1513 21.4967 21.028 21.4954H13.7946V15.7654C13.7924 15.65 13.7415 15.5401 13.6529 15.4596C13.5643 15.3791 13.4452 15.3345 13.3216 15.3355H8.67842C8.55497 15.3342 8.436 15.3786 8.34754 15.459C8.25908 15.5394 8.20835 15.6492 8.20643 15.7644V21.5002L8.2054 21.4973Z" fill="#FF724D"/>
</svg>
